<svg width="704" height="704" viewBox="0 0 704 704" fill="none" xmlns="http://www.w3.org/2000/svg">
<path d="M423.403 33.3129C424.028 33.2263 424.599 33.3476 425.117 33.6768C425.631 33.9964 425.993 34.4465 426.203 35.0269C426.507 35.8643 426.453 36.6373 426.043 37.3458C425.638 38.0414 424.912 38.5788 423.866 38.9581L419.198 40.6492L415.568 30.6294L420.078 28.9952C421.096 28.6263 421.975 28.5715 422.715 28.8309C423.465 29.0869 423.984 29.6145 424.274 30.4138C424.487 31.0037 424.508 31.5507 424.335 32.0546C424.172 32.555 423.861 32.9745 423.403 33.3129ZM419.477 33.7986L421.076 33.2194C421.476 33.0746 421.749 32.8787 421.896 32.6315C422.05 32.3714 422.064 32.0701 421.94 31.7276C421.816 31.385 421.612 31.163 421.327 31.0615C421.053 30.9565 420.715 30.9765 420.316 31.1213L418.717 31.7005L419.477 33.7986ZM422.724 37.1435C423.133 36.9953 423.414 36.7911 423.567 36.531C423.727 36.258 423.743 35.9454 423.615 35.5933C423.488 35.2413 423.269 35.0084 422.958 34.8948C422.658 34.7777 422.303 34.7933 421.894 34.9415L420.124 35.5828L420.925 37.7951L422.724 37.1435ZM427.423 25.7868L431.068 36.4133L428.612 37.2555L424.968 26.629L427.423 25.7868ZM439.071 29.167C439.147 29.3978 439.212 29.6429 439.265 29.9023L433.684 31.7373C433.887 32.2246 434.172 32.557 434.539 32.7345C434.913 32.8993 435.306 32.9137 435.72 32.7778C436.335 32.5755 436.678 32.1752 436.747 31.577L439.372 30.7141C439.411 31.2871 439.323 31.8437 439.106 32.3837C438.899 32.9205 438.571 33.396 438.121 33.8102C437.671 34.2245 437.119 34.539 436.465 34.754C435.677 35.0132 434.92 35.0757 434.194 34.9415C433.468 34.8073 432.829 34.4846 432.278 33.9734C431.726 33.4623 431.313 32.7885 431.038 31.952C430.763 31.1155 430.691 30.3295 430.822 29.5939C430.962 28.8552 431.285 28.2164 431.79 27.6776C432.295 27.1388 432.946 26.7382 433.744 26.4759C434.523 26.2198 435.269 26.1557 435.982 26.2834C436.695 26.4112 437.319 26.7226 437.855 27.2177C438.4 27.7096 438.806 28.3594 439.071 29.167ZM436.334 29.3478C436.195 28.9247 435.94 28.6356 435.57 28.4805C435.199 28.3253 434.797 28.3189 434.365 28.4611C433.951 28.5971 433.64 28.8326 433.43 29.1678C433.231 29.4998 433.17 29.898 433.248 30.3624L436.334 29.3478ZM444.187 23.2182C445.136 22.9293 445.986 23.0091 446.736 23.4578C447.493 23.8938 448.035 24.6492 448.362 25.7239L449.804 30.4583L447.335 31.2101L445.995 26.8097C445.83 26.2675 445.561 25.8891 445.189 25.6744C444.817 25.4598 444.394 25.4247 443.919 25.5691C443.445 25.7136 443.113 25.9786 442.924 26.3643C442.734 26.7499 442.722 27.2138 442.887 27.756L444.227 32.1564L441.744 32.9126L439.276 24.8089L441.76 24.0527L442.087 25.1274C442.23 24.6925 442.483 24.3085 442.847 23.9755C443.208 23.6328 443.655 23.3803 444.187 23.2182ZM452.133 22.4559C452.3 21.9258 452.568 21.4726 452.935 21.0965C453.3 20.7106 453.751 20.4427 454.287 20.2927L455.027 22.9389L454.34 23.1312C453.716 23.3057 453.287 23.573 453.051 23.9332C452.813 24.2836 452.788 24.7951 452.976 25.4676L454.035 29.2541L451.535 29.9536L449.253 21.7957L451.753 21.0963L452.133 22.4559ZM464.42 21.9781C464.481 22.2132 464.53 22.4619 464.567 22.7242L458.881 24.2039C459.053 24.703 459.316 25.0528 459.672 25.2531C460.034 25.4411 460.426 25.4802 460.848 25.3706C461.474 25.2075 461.841 24.8296 461.949 24.237L464.623 23.5411C464.626 24.1155 464.502 24.6653 464.252 25.1906C464.011 25.7133 463.654 26.1672 463.179 26.5523C462.704 26.9373 462.133 27.2165 461.467 27.3899C460.664 27.5989 459.904 27.6136 459.188 27.4339C458.472 27.2542 457.855 26.8919 457.337 26.3471C456.818 25.8022 456.448 25.1037 456.227 24.2516C456.005 23.3994 455.983 22.6104 456.16 21.8846C456.347 21.1562 456.709 20.539 457.247 20.033C457.784 19.5271 458.459 19.1683 459.272 18.9567C460.066 18.7503 460.814 18.7332 461.518 18.9057C462.222 19.0781 462.825 19.4282 463.329 19.9561C463.842 20.4813 464.206 21.1554 464.42 21.9781ZM461.677 21.9861C461.564 21.5551 461.328 21.2506 460.968 21.0724C460.608 20.8942 460.208 20.8625 459.767 20.9772C459.346 21.0868 459.02 21.3023 458.79 21.6236C458.57 21.9424 458.484 22.336 458.533 22.8044L461.677 21.9861ZM467.726 18.216C467.882 17.774 468.15 17.3842 468.528 17.0464C468.907 16.7086 469.387 16.4718 469.968 16.336C470.648 16.1772 471.304 16.2058 471.937 16.4219C472.569 16.6379 473.118 17.0294 473.583 17.5964C474.058 18.1611 474.394 18.8672 474.592 19.7148C474.79 20.5624 474.802 21.3494 474.629 22.0758C474.463 22.7901 474.146 23.389 473.677 23.8727C473.205 24.3466 472.63 24.6629 471.95 24.8217C471.378 24.9552 470.843 24.9555 470.344 24.8225C469.855 24.6872 469.444 24.4611 469.11 24.1441L470.298 29.2296L467.77 29.82L464.925 17.6384L467.453 17.0481L467.726 18.216ZM472.02 20.3155C471.873 19.6847 471.58 19.2334 471.142 18.9614C470.712 18.6773 470.241 18.5951 469.728 18.7148C469.226 18.8322 468.84 19.1146 468.57 19.5621C468.31 20.0074 468.254 20.5453 468.401 21.1761C468.549 21.8069 468.837 22.2643 469.267 22.5484C469.707 22.8302 470.179 22.9124 470.681 22.795C471.184 22.6777 471.57 22.3952 471.84 21.9477C472.107 21.4903 472.167 20.9463 472.02 20.3155ZM485.496 19.0426C485.088 19.1182 484.692 19.0888 484.307 18.9544C483.931 18.8181 483.613 18.5992 483.351 18.2978C483.087 17.9864 482.918 17.6267 482.842 17.2187C482.765 16.8008 482.794 16.4042 482.93 16.0289C483.065 15.6437 483.283 15.3203 483.584 15.0585C483.896 14.7949 484.255 14.6253 484.663 14.5496C485.081 14.4721 485.478 14.5015 485.853 14.6378C486.238 14.7722 486.563 14.9951 486.826 15.3065C487.088 15.608 487.258 15.9677 487.335 16.3856C487.411 16.7936 487.381 17.1902 487.247 17.5754C487.111 17.9506 486.887 18.2701 486.575 18.5337C486.274 18.7954 485.914 18.9651 485.496 19.0426ZM507.005 10.1706C507.969 10.052 508.791 10.2619 509.469 10.8005C510.156 11.3278 510.57 12.169 510.712 13.3242L511.306 18.1458L510.266 18.2738L509.688 13.5727C509.578 12.6787 509.278 12.0222 508.787 11.6032C508.297 11.1843 507.681 11.0205 506.937 11.112C506.164 11.2072 505.578 11.5394 505.179 12.1085C504.78 12.6777 504.64 13.4494 504.76 14.4238L505.309 18.8838L504.269 19.0118L503.691 14.3107C503.581 13.4167 503.281 12.7602 502.791 12.3412C502.301 11.9223 501.679 11.7591 500.925 11.8518C500.152 11.947 499.566 12.2792 499.167 12.8483C498.768 13.4175 498.628 14.1893 498.748 15.1636L499.297 19.6237L498.242 19.7534L497.23 11.5265L498.284 11.3967L498.459 12.8131C498.657 12.2687 498.981 11.8362 499.431 11.5157C499.88 11.1851 500.401 10.9834 500.993 10.9105C501.706 10.8227 502.35 10.9168 502.925 11.1928C503.509 11.4676 503.963 11.9217 504.285 12.555C504.426 11.8748 504.741 11.3313 505.232 10.9242C505.731 10.5059 506.322 10.2547 507.005 10.1706ZM513.239 8.03219C513.028 8.05243 512.839 7.99422 512.674 7.85755C512.508 7.72089 512.415 7.54173 512.393 7.32009C512.372 7.09844 512.43 6.90986 512.568 6.75436C512.705 6.58878 512.879 6.49587 513.09 6.47563C513.302 6.45538 513.491 6.5136 513.656 6.65026C513.821 6.77685 513.914 6.95097 513.935 7.17261C513.956 7.39426 513.898 7.58787 513.762 7.75345C513.625 7.91903 513.451 8.01195 513.239 8.03219ZM513.917 9.53815L514.707 17.7894L513.649 17.8906L512.859 9.63935L513.917 9.53815ZM524.299 12.5613C524.322 12.9249 524.33 13.2033 524.322 13.3965L517.459 13.834C517.529 14.4583 517.714 14.9839 518.015 15.411C518.316 15.838 518.697 16.1535 519.156 16.3575C519.614 16.5514 520.106 16.6316 520.631 16.5981C521.318 16.5543 521.883 16.351 522.327 15.988C522.78 15.6245 523.065 15.155 523.18 14.5798L524.301 14.5083C524.151 15.3292 523.759 16.0185 523.125 16.5761C522.501 17.1229 521.688 17.4282 520.688 17.492C519.911 17.5415 519.203 17.4142 518.565 17.1101C517.926 16.7959 517.41 16.3318 517.016 15.7181C516.631 15.0935 516.412 14.352 516.357 13.4935C516.302 12.6349 516.426 11.8715 516.728 11.2032C517.03 10.5349 517.478 10.0094 518.073 9.62672C518.667 9.24404 519.358 9.02759 520.146 8.97738C520.934 8.92717 521.631 9.0551 522.239 9.36117C522.857 9.6666 523.341 10.1022 523.691 10.6681C524.051 11.2232 524.254 11.8543 524.299 12.5613ZM523.221 12.5996C523.192 11.9828 523.032 11.4656 522.742 11.0481C522.462 10.6298 522.093 10.3238 521.634 10.1299C521.175 9.93603 520.683 9.85583 520.158 9.88931C519.37 9.93952 518.715 10.2348 518.192 10.7753C517.668 11.3157 517.406 12.0474 517.404 12.9704L523.221 12.5996ZM527.19 5.76663L527.593 16.9935L526.531 17.0317L526.128 5.80477L527.19 5.76663ZM533.628 17.0059C532.849 17.0166 532.143 16.8541 531.511 16.5186C530.889 16.1729 530.391 15.6837 530.018 15.0512C529.655 14.4084 529.468 13.6568 529.456 12.7967C529.444 11.9365 529.616 11.1851 529.972 10.5426C530.327 9.8899 530.816 9.38724 531.439 9.03458C532.062 8.6718 532.762 8.48507 533.542 8.47441C534.321 8.46375 535.027 8.63122 535.659 8.97683C536.301 9.31218 536.804 9.80127 537.167 10.4441C537.54 11.0767 537.732 11.823 537.744 12.6832C537.756 13.5333 537.584 14.2847 537.228 14.9373C536.873 15.59 536.379 16.0978 535.746 16.4607C535.113 16.8135 534.407 16.9952 533.628 17.0059ZM533.615 16.0799C534.162 16.0724 534.666 15.9441 535.128 15.6948C535.59 15.4355 535.96 15.0559 536.236 14.5561C536.523 14.0461 536.661 13.4268 536.651 12.6982C536.641 11.9696 536.491 11.3592 536.201 10.8672C535.911 10.3651 535.531 9.99581 535.062 9.75931C534.593 9.51268 534.086 9.39311 533.539 9.40059C532.993 9.40807 532.488 9.54149 532.026 9.80086C531.564 10.0501 531.195 10.4297 530.918 10.9395C530.652 11.4391 530.524 12.0533 530.534 12.7819C530.544 13.5105 530.689 14.126 530.969 14.6282C531.259 15.1202 531.634 15.4896 532.092 15.7364C532.561 15.9729 533.069 16.0874 533.615 16.0799ZM549.965 8.87262C550.936 8.91538 551.711 9.25851 552.291 9.90201C552.881 10.5358 553.15 11.4341 553.099 12.5969L552.885 17.4502L551.838 17.4041L552.047 12.6721C552.087 11.7723 551.9 11.0751 551.486 10.5808C551.072 10.0864 550.491 9.82272 549.743 9.78976C548.964 9.75546 548.331 9.98589 547.843 10.4811C547.355 10.9762 547.09 11.7142 547.046 12.695L546.849 17.1843L545.802 17.1382L546.011 12.4062C546.05 11.5063 545.863 10.8092 545.449 10.3148C545.036 9.82046 544.449 9.55657 543.691 9.52316C542.913 9.48886 542.279 9.71929 541.792 10.2145C541.304 10.7096 541.038 11.4476 540.995 12.4284L540.797 16.9177L539.736 16.8709L540.1 8.58997L541.162 8.63674L541.099 10.0624C541.385 9.55832 541.776 9.18552 542.273 8.94402C542.77 8.6924 543.317 8.57974 543.914 8.60602C544.632 8.63764 545.251 8.83715 545.772 9.20453C546.303 9.57236 546.675 10.0953 546.888 10.7733C547.139 10.1259 547.541 9.6421 548.092 9.32193C548.653 8.9921 549.278 8.84233 549.965 8.87262ZM555.211 13.4472C555.306 12.6023 555.554 11.8815 555.957 11.2848C556.37 10.6792 556.893 10.2385 557.525 9.96267C558.167 9.67791 558.866 9.57759 559.62 9.66171C560.405 9.74919 561.059 10.0054 561.582 10.4303C562.115 10.8563 562.475 11.365 562.664 11.9563L562.866 10.1458L563.922 10.2636L563.003 18.5015L561.947 18.3837L562.151 16.5581C561.827 17.0922 561.357 17.5134 560.742 17.8216C560.138 18.1209 559.444 18.2268 558.66 18.1393C557.915 18.0563 557.261 17.8052 556.697 17.3858C556.143 16.9676 555.731 16.4176 555.46 15.7357C555.2 15.0549 555.117 14.2921 555.211 13.4472ZM562.407 14.2647C562.481 13.6009 562.41 13.0024 562.194 12.4691C561.979 11.9359 561.65 11.5072 561.207 11.1829C560.775 10.8597 560.277 10.6667 559.714 10.6039C559.13 10.5389 558.593 10.6113 558.101 10.8213C557.609 11.0312 557.199 11.3725 556.872 11.8451C556.555 12.3088 556.359 12.8827 556.283 13.5666C556.207 14.2406 556.272 14.8486 556.476 15.3907C556.692 15.9239 557.016 16.3521 557.448 16.6753C557.882 16.9884 558.39 17.1775 558.974 17.2425C559.537 17.3053 560.065 17.2268 560.558 17.0068C561.061 16.7879 561.476 16.4421 561.804 15.9695C562.132 15.4969 562.333 14.9286 562.407 14.2647ZM580.887 13.1726C581.839 13.3682 582.55 13.8294 583.02 14.5564C583.503 15.2755 583.627 16.2051 583.393 17.3451L582.415 22.1037L581.389 21.8928L582.342 17.2532C582.523 16.3709 582.449 15.653 582.118 15.0995C581.788 14.5459 581.256 14.1938 580.522 14.043C579.759 13.8861 579.097 14.0136 578.537 14.4255C577.977 14.8374 577.598 15.5242 577.401 16.4858L576.496 20.8875L575.47 20.6766L576.424 16.037C576.605 15.1547 576.53 14.4368 576.2 13.8832C575.869 13.3297 575.332 12.9765 574.589 12.8237C573.825 12.6668 573.164 12.7943 572.604 13.2062C572.044 13.6181 571.665 14.3049 571.467 15.2665L570.563 19.6682L569.522 19.4543L571.19 11.335L572.231 11.5489L571.944 12.9467C572.306 12.4941 572.751 12.1878 573.28 12.0278C573.811 11.8579 574.369 11.8331 574.953 11.9533C575.657 12.0979 576.237 12.3928 576.694 12.8378C577.16 13.2849 577.444 13.86 577.548 14.5632C577.898 13.9636 578.371 13.5493 578.966 13.3202C579.572 13.0833 580.213 13.034 580.887 13.1726ZM593.885 16.6763L591.603 24.6448L590.581 24.3523L590.982 22.9512C590.607 23.3805 590.138 23.6569 589.576 23.7802C589.015 23.9036 588.432 23.8789 587.829 23.7061C586.875 23.433 586.181 22.9182 585.745 22.1617C585.311 21.3954 585.255 20.4528 585.575 19.3339L586.909 14.6783L587.916 14.9667L586.616 19.5055C586.368 20.3715 586.392 21.0944 586.69 21.6743C586.996 22.257 587.525 22.6556 588.274 22.8702C589.042 23.0904 589.725 23.0227 590.322 22.6672C590.918 22.3116 591.352 21.662 591.622 20.7182L592.863 16.3837L593.885 16.6763ZM592.456 13.7247L588.967 14.6045L589.193 13.8164L592.72 12.8052L592.456 13.7247ZM598.481 15.0419L594.926 25.6986L593.918 25.3623L597.473 14.7056L598.481 15.0419ZM601.04 20.0285L599.268 24.8602C599.093 25.3353 599.063 25.6963 599.178 25.943C599.292 26.1898 599.577 26.3968 600.033 26.564L600.946 26.8986L600.632 27.7538L599.563 27.3617C598.86 27.1038 598.396 26.7506 598.173 26.3021C597.953 25.8441 597.98 25.2398 598.256 24.4891L600.028 19.6574L598.944 19.2601L599.253 18.4192L600.336 18.8164L601.052 16.8638L602.064 17.2349L601.348 19.1876L603.486 19.9717L603.178 20.8126L601.04 20.0285ZM606.435 19.4507C606.238 19.3714 606.097 19.2329 606.013 19.0354C605.929 18.8379 605.928 18.6359 606.012 18.4293C606.095 18.2227 606.233 18.0821 606.427 18.0073C606.624 17.9232 606.822 17.9208 607.019 18.0002C607.216 18.0795 607.357 18.218 607.441 18.4155C607.529 18.6036 607.531 18.8009 607.448 19.0075C607.365 19.2141 607.225 19.3594 607.027 19.4435C606.83 19.5277 606.632 19.5301 606.435 19.4507ZM606.344 21.0997L603.249 28.7891L602.263 28.3923L605.358 20.7029L606.344 21.0997ZM609.117 24.3083C609.589 23.913 610.158 23.6686 610.826 23.575C611.506 23.4765 612.205 23.5925 612.922 23.923C613.602 24.2366 614.139 24.6793 614.533 25.251C614.941 25.8177 615.16 26.4651 615.192 27.1932C615.238 27.9163 615.083 28.6639 614.727 29.4359C614.371 30.208 613.901 30.816 613.317 31.2602C612.743 31.7086 612.106 31.9665 611.406 32.0339C610.715 32.1055 610.03 31.9846 609.35 31.671C608.642 31.3447 608.102 30.8953 607.731 30.3229C607.364 29.7413 607.178 29.1426 607.172 28.527L604.769 33.7382L603.818 33.2996L608.928 22.2154L609.88 22.654L609.117 24.3083ZM613.748 28.9846C614.036 28.3596 614.16 27.7647 614.119 27.2C614.092 26.6302 613.922 26.1284 613.61 25.6945C613.297 25.2606 612.874 24.9208 612.341 24.675C611.827 24.4377 611.296 24.3435 610.75 24.3925C610.212 24.4457 609.714 24.6449 609.254 24.9901C608.794 25.3352 608.424 25.811 608.144 26.4176C607.865 27.0243 607.743 27.6145 607.779 28.1885C607.815 28.7625 607.988 29.271 608.296 29.7141C608.614 30.1614 609.03 30.5037 609.544 30.741C610.078 30.9868 610.611 31.0877 611.144 31.0437C611.681 30.9904 612.175 30.7891 612.626 30.4398C613.09 30.0855 613.464 29.6004 613.748 28.9846ZM620.885 24.6268L615.673 34.579L614.732 34.0861L619.943 24.1339L620.885 24.6268ZM620.838 37.6983C620.166 37.3022 619.648 36.7964 619.283 36.1811C618.931 35.5622 618.761 34.8856 618.771 34.1513C618.795 33.4135 619.026 32.6741 619.463 31.9333C619.901 31.1925 620.438 30.6401 621.076 30.2763C621.719 29.9037 622.398 29.7287 623.114 29.7514C623.834 29.7654 624.53 29.9704 625.201 30.3666C625.872 30.7627 626.388 31.2728 626.748 31.8969C627.122 32.5173 627.297 33.1965 627.273 33.9344C627.262 34.6687 627.039 35.4062 626.601 36.147C626.169 36.8791 625.631 37.4315 624.988 37.8041C624.345 38.1766 623.659 38.3534 622.93 38.3343C622.206 38.3065 621.509 38.0945 620.838 37.6983ZM621.308 36.9009C621.779 37.1787 622.276 37.3313 622.801 37.3588C623.33 37.3776 623.843 37.2455 624.339 36.9625C624.849 36.6759 625.29 36.2189 625.66 35.5914C626.03 34.9639 626.22 34.3645 626.228 33.7934C626.241 33.2136 626.109 32.7007 625.831 32.2549C625.559 31.8003 625.188 31.4342 624.717 31.1563C624.246 30.8785 623.746 30.7302 623.217 30.7114C622.692 30.6839 622.18 30.816 621.678 31.1077C621.191 31.3959 620.762 31.8537 620.391 32.4812C620.021 33.1088 619.825 33.7099 619.803 34.2845C619.795 34.8557 619.923 35.3659 620.186 35.8153C620.464 36.2612 620.838 36.623 621.308 36.9009ZM632.762 41.3216C632.376 41.0432 632.141 40.6679 632.058 40.1957C631.98 39.7153 632.083 39.2782 632.368 38.8843C632.658 38.4821 633.04 38.2464 633.515 38.177C633.995 38.0993 634.428 38.1997 634.814 38.4781C635.216 38.7684 635.452 39.1507 635.521 39.6252C635.605 40.0974 635.501 40.5346 635.211 40.9367C634.927 41.3306 634.545 41.5664 634.064 41.644C633.598 41.7193 633.164 41.6119 632.762 41.3216ZM645.642 47.6965C646.215 47.4697 646.833 47.4168 647.495 47.5379C648.172 47.6584 648.799 47.9883 649.376 48.5275C649.923 49.0391 650.293 49.6282 650.488 50.2948C650.696 50.9609 650.701 51.6446 650.502 52.3458C650.318 53.0465 649.936 53.7073 649.355 54.3282C648.774 54.9492 648.137 55.3786 647.443 55.6166C646.757 55.8616 646.071 55.906 645.386 55.7499C644.708 55.6008 644.095 55.2704 643.548 54.7588C642.979 54.2265 642.608 53.6303 642.436 52.9701C642.27 52.3026 642.281 51.6756 642.469 51.0893L638.55 55.2805L637.784 54.565L646.122 45.6505L646.887 46.366L645.642 47.6965ZM648.568 53.592C649.038 53.0893 649.343 52.5636 649.482 52.0147C649.635 51.4654 649.632 50.9356 649.472 50.4254C649.311 49.9153 649.017 49.4597 648.588 49.0587C648.174 48.6716 647.7 48.4153 647.166 48.29C646.639 48.1716 646.103 48.2038 645.558 48.3867C645.013 48.5697 644.512 48.9051 644.056 49.3929C643.6 49.8808 643.298 50.4028 643.152 50.9591C643.006 51.5153 643.01 52.0522 643.163 52.5698C643.324 53.0943 643.611 53.5502 644.025 53.9373C644.454 54.3383 644.928 54.6017 645.448 54.7275C645.975 54.8459 646.507 54.8102 647.045 54.6203C647.597 54.43 648.105 54.0872 648.568 53.592ZM653.566 54.8334C654.101 54.6473 654.635 54.6293 655.168 54.7796C655.708 54.9372 656.218 55.2694 656.698 55.7762L655.894 56.5386L655.695 56.3293C655.166 55.7711 654.591 55.4658 653.969 55.4134C653.348 55.3609 652.685 55.669 651.98 56.3374L648.619 59.5228L647.888 58.7516L653.904 53.0491L654.635 53.8203L653.566 54.8334ZM659.382 56.6563C659.241 56.4969 659.178 56.31 659.191 56.0958C659.205 55.8815 659.295 55.7007 659.462 55.5535C659.629 55.4063 659.816 55.3427 660.023 55.3629C660.237 55.3764 660.414 55.4629 660.555 55.6223C660.695 55.7818 660.759 55.9686 660.745 56.1829C660.739 56.3905 660.653 56.5679 660.486 56.7151C660.319 56.8624 660.128 56.9292 659.914 56.9157C659.7 56.9022 659.522 56.8158 659.382 56.6563ZM658.56 58.0889L652.342 63.57L651.639 62.7728L657.857 57.2917L658.56 58.0889ZM666.548 68.2081C667.135 68.9829 667.365 69.7987 667.239 70.6555C667.127 71.5142 666.607 72.2947 665.679 72.997L661.805 75.9284L661.173 75.0931L664.95 72.235C665.668 71.6915 666.086 71.1027 666.203 70.4686C666.319 69.8345 666.152 69.2189 665.7 68.6216C665.23 68.0002 664.648 67.6596 663.956 67.5998C663.263 67.54 662.525 67.8063 661.743 68.3987L658.159 71.1102L657.527 70.2749L661.304 67.4168C662.023 66.8733 662.44 66.2845 662.557 65.6504C662.673 65.0163 662.503 64.3966 662.045 63.7913C661.575 63.1699 660.993 62.8293 660.301 62.7695C659.608 62.7097 658.87 62.976 658.088 63.5684L654.504 66.2799L653.863 65.4325L660.473 60.4308L661.114 61.2782L659.976 62.1393C660.547 62.0377 661.083 62.1012 661.586 62.3298C662.097 62.5523 662.533 62.9017 662.893 63.3778C663.327 63.9508 663.568 64.555 663.617 65.1904C663.673 65.8339 663.508 66.454 663.121 67.0508C663.78 66.8314 664.409 66.8317 665.007 67.0518C665.619 67.2739 666.133 67.6593 666.548 68.2081ZM670.943 81.8713C670.633 82.0619 670.39 82.1988 670.216 82.2822L666.619 76.4208C666.1 76.7749 665.722 77.1849 665.485 77.6507C665.249 78.1165 665.148 78.6001 665.182 79.1014C665.225 79.5974 665.385 80.0697 665.66 80.5182C666.02 81.1048 666.464 81.5091 666.992 81.7312C667.526 81.962 668.074 81.9938 668.636 81.8267L669.224 82.7842C668.428 83.0352 667.635 83.011 666.846 82.7117C666.07 82.4157 665.421 81.8407 664.897 80.9867C664.489 80.3225 664.27 79.6373 664.241 78.9312C664.22 78.2197 664.388 77.5463 664.746 76.9109C665.118 76.2788 665.671 75.7377 666.404 75.2878C667.137 74.8378 667.87 74.59 668.602 74.5445C669.334 74.499 670.008 74.6493 670.625 74.9955C671.241 75.3417 671.755 75.8512 672.168 76.5241C672.581 77.1969 672.794 77.8735 672.808 78.5537C672.827 79.2427 672.669 79.8743 672.332 80.4488C672.01 81.0266 671.547 81.5007 670.943 81.8713ZM670.405 80.9368C670.937 80.6225 671.319 80.2394 671.553 79.7875C671.791 79.3442 671.889 78.8745 671.846 78.3785C671.803 77.8825 671.643 77.4102 671.368 76.9617C670.955 76.2889 670.387 75.8476 669.665 75.6379C668.943 75.4281 668.173 75.5382 667.356 75.9682L670.405 80.9368ZM676.906 81.6709C676.804 81.4846 676.783 81.2884 676.843 81.0823C676.903 80.8761 677.031 80.7195 677.226 80.6123C677.421 80.5052 677.617 80.4841 677.814 80.549C678.021 80.609 678.175 80.7322 678.277 80.9185C678.379 81.1048 678.4 81.301 678.34 81.5072C678.289 81.7084 678.166 81.8626 677.971 81.9698C677.776 82.0769 677.575 82.1005 677.369 82.0404C677.163 81.9804 677.009 81.8572 676.906 81.6709ZM675.791 82.8891L668.525 86.8778L668.014 85.9462L675.28 81.9576L675.791 82.8891ZM676.213 86.9065C676.779 86.8834 677.295 87.0211 677.761 87.3196C678.232 87.627 678.624 88.093 678.937 88.7174L677.946 89.2136L677.817 88.9557C677.472 88.268 677.01 87.8089 676.431 87.5784C675.851 87.348 675.127 87.4503 674.259 87.8854L670.119 89.9589L669.643 89.0087L677.054 85.2968L677.53 86.247L676.213 86.9065ZM673.381 97.3306C673.07 96.6159 672.948 95.9022 673.013 95.1896C673.092 94.4822 673.351 93.8343 673.791 93.246C674.243 92.663 674.864 92.2 675.653 91.8571C676.442 91.5142 677.202 91.3828 677.932 91.4628C678.671 91.5387 679.324 91.7959 679.889 92.2342C680.464 92.6685 680.907 93.243 681.218 93.9578C681.528 94.6725 681.646 95.3882 681.571 96.1049C681.51 96.8268 681.253 97.4793 680.8 98.0623C680.36 98.6507 679.746 99.1163 678.957 99.4591C678.178 99.798 677.418 99.9295 676.679 99.8535C675.939 99.7775 675.28 99.5177 674.701 99.0741C674.132 98.6265 673.691 98.0454 673.381 97.3306ZM674.23 96.9615C674.448 97.4628 674.761 97.8785 675.169 98.2086C675.587 98.5347 676.08 98.7289 676.647 98.7911C677.229 98.8586 677.853 98.7471 678.522 98.4567C679.19 98.1662 679.695 97.7922 680.037 97.3346C680.388 96.873 680.582 96.3803 680.619 95.8565C680.666 95.3287 680.58 94.8142 680.362 94.313C680.144 93.8117 679.827 93.398 679.409 93.0719C679.001 92.7418 678.508 92.5476 677.931 92.4894C677.367 92.4364 676.751 92.5552 676.083 92.8457C675.415 93.1361 674.903 93.5075 674.548 93.9598C674.206 94.4174 674.01 94.9054 673.959 95.424C673.922 95.9478 674.012 96.4603 674.23 96.9615ZM683.98 112.536C683.634 112.649 683.366 112.725 683.177 112.765L681.056 106.223C680.468 106.445 680.005 106.755 679.666 107.152C679.326 107.55 679.114 107.996 679.03 108.491C678.956 108.984 679 109.48 679.162 109.981C679.374 110.635 679.711 111.133 680.172 111.472C680.637 111.822 681.162 111.982 681.748 111.951L682.094 113.02C681.262 113.077 680.497 112.867 679.8 112.391C679.116 111.921 678.619 111.21 678.31 110.257C678.07 109.515 678.018 108.798 678.155 108.105C678.302 107.408 678.624 106.793 679.121 106.26C679.631 105.733 680.295 105.336 681.114 105.071C681.932 104.806 682.702 104.737 683.424 104.865C684.147 104.992 684.767 105.297 685.284 105.778C685.802 106.259 686.183 106.875 686.426 107.626C686.67 108.377 686.718 109.085 686.572 109.749C686.429 110.423 686.126 111 685.664 111.48C685.216 111.966 684.654 112.318 683.98 112.536ZM683.677 111.502C684.267 111.321 684.729 111.038 685.062 110.654C685.398 110.279 685.603 109.845 685.677 109.353C685.752 108.861 685.708 108.364 685.546 107.864C685.302 107.113 684.854 106.55 684.201 106.177C683.548 105.803 682.774 105.73 681.879 105.956L683.677 111.502ZM690.964 124.951L682.889 126.824L682.649 125.788L684.069 125.459C683.511 125.339 683.042 125.063 682.661 124.632C682.281 124.201 682.02 123.68 681.878 123.068C681.654 122.102 681.767 121.245 682.217 120.496C682.677 119.746 683.473 119.239 684.607 118.976L689.325 117.882L689.561 118.903L684.962 119.969C684.085 120.173 683.464 120.545 683.102 121.086C682.741 121.637 682.649 122.292 682.825 123.051C683.005 123.83 683.396 124.394 683.996 124.743C684.597 125.093 685.375 125.156 686.331 124.935L690.724 123.916L690.964 124.951ZM692.851 122.27L690.388 119.646L691.187 119.461L693.783 122.054L692.851 122.27ZM692.364 131.551C692.537 132.528 692.374 133.379 691.876 134.104C691.388 134.828 690.57 135.292 689.424 135.495L684.641 136.343L684.458 135.312L689.122 134.485C690.009 134.328 690.647 133.983 691.036 133.452C691.426 132.93 691.554 132.286 691.418 131.518C691.278 130.731 690.918 130.148 690.336 129.767C689.755 129.387 688.981 129.283 688.014 129.455L683.56 130.244L683.374 129.198L691.536 127.751L691.721 128.797L690.331 129.044C690.875 129.214 691.32 129.521 691.666 129.963C692.022 130.404 692.254 130.933 692.364 131.551ZM694.835 137.918C694.807 137.707 694.859 137.517 694.99 137.347C695.121 137.176 695.297 137.077 695.517 137.048C695.738 137.019 695.929 137.071 696.089 137.203C696.259 137.334 696.358 137.505 696.385 137.716C696.413 137.927 696.361 138.117 696.23 138.287C696.109 138.456 695.938 138.555 695.718 138.584C695.497 138.612 695.301 138.561 695.131 138.43C694.961 138.299 694.862 138.129 694.835 137.918ZM693.353 138.647L685.133 139.718L684.996 138.664L693.215 137.593L693.353 138.647ZM689.486 141.188C690.341 141.098 691.104 141.19 691.774 141.465C692.455 141.739 692.998 142.16 693.404 142.727C693.82 143.294 694.069 143.965 694.151 144.74C694.259 145.756 694.096 146.618 693.662 147.326C693.229 148.043 692.59 148.544 691.744 148.826L691.625 147.694C692.203 147.49 692.634 147.134 692.916 146.626C693.209 146.127 693.319 145.53 693.245 144.836C693.187 144.282 693.008 143.797 692.71 143.381C692.411 142.965 691.997 142.653 691.466 142.444C690.946 142.245 690.324 142.183 689.599 142.26C688.874 142.337 688.274 142.528 687.797 142.833C687.322 143.148 686.981 143.54 686.777 144.009C686.572 144.479 686.499 144.99 686.558 145.544C686.631 146.238 686.858 146.799 687.24 147.227C687.632 147.664 688.137 147.921 688.756 147.998L688.876 149.13C688.01 149.028 687.286 148.673 686.702 148.063C686.118 147.453 685.773 146.645 685.667 145.638C685.585 144.863 685.683 144.156 685.961 143.515C686.249 142.874 686.693 142.349 687.29 141.94C687.898 141.529 688.63 141.279 689.486 141.188ZM686.409 155C686.367 154.221 686.5 153.51 686.81 152.864C687.13 152.229 687.599 151.712 688.216 151.313C688.843 150.924 689.586 150.707 690.445 150.66C691.304 150.613 692.062 150.754 692.719 151.084C693.385 151.412 693.907 151.881 694.285 152.488C694.673 153.096 694.888 153.788 694.93 154.567C694.972 155.345 694.834 156.057 694.514 156.703C694.205 157.358 693.737 157.88 693.109 158.269C692.492 158.667 691.754 158.89 690.895 158.937C690.046 158.983 689.289 158.842 688.622 158.513C687.956 158.184 687.428 157.711 687.04 157.094C686.662 156.476 686.451 155.778 686.409 155ZM687.334 154.949C687.363 155.495 687.512 155.994 687.78 156.445C688.058 156.897 688.452 157.25 688.963 157.506C689.484 157.772 690.108 157.885 690.836 157.845C691.564 157.806 692.167 157.631 692.647 157.321C693.137 157.011 693.491 156.616 693.708 156.138C693.935 155.66 694.034 155.147 694.004 154.602C693.975 154.056 693.821 153.558 693.543 153.106C693.275 152.655 692.881 152.301 692.36 152.046C691.85 151.8 691.231 151.697 690.504 151.736C689.776 151.776 689.167 151.946 688.677 152.246C688.197 152.556 687.843 152.945 687.615 153.414C687.398 153.892 687.304 154.404 687.334 154.949ZM689.367 171.431L689.409 166.603L686.897 165.655L686.907 164.532L697.348 168.493L697.338 169.693L686.83 173.458L686.839 172.335L689.367 171.431ZM690.251 171.119L696.007 169.074L690.287 166.929L690.251 171.119ZM697.21 178.821C697.153 179.994 696.891 180.989 696.425 181.807C695.959 182.625 695.316 183.237 694.495 183.643C693.675 184.048 692.714 184.224 691.612 184.17C690.52 184.116 689.586 183.847 688.809 183.363C688.043 182.879 687.468 182.208 687.085 181.348C686.711 180.488 686.554 179.472 686.611 178.3L686.766 175.161L697.365 175.683L697.21 178.821ZM687.491 178.343C687.418 179.819 687.747 180.96 688.478 181.766C689.218 182.583 690.28 183.025 691.665 183.093C693.06 183.162 694.166 182.826 694.982 182.086C695.809 181.357 696.258 180.254 696.331 178.778L696.433 176.701L687.593 176.266L687.491 178.343ZM691.522 185.87C692.56 185.966 693.466 186.279 694.24 186.809C695.024 187.339 695.607 188.018 695.987 188.846C696.378 189.675 696.528 190.574 696.438 191.541C696.328 192.72 695.953 193.702 695.311 194.486C694.678 195.281 693.835 195.822 692.781 196.111L692.896 194.871C693.64 194.635 694.242 194.224 694.703 193.636C695.164 193.059 695.434 192.332 695.516 191.455C695.588 190.679 695.472 189.962 695.167 189.304C694.861 188.655 694.382 188.123 693.73 187.706C693.087 187.291 692.318 187.042 691.421 186.958C690.524 186.875 689.722 186.978 689.014 187.268C688.306 187.558 687.742 187.994 687.322 188.575C686.901 189.166 686.654 189.849 686.582 190.625C686.501 191.502 686.628 192.266 686.964 192.917C687.309 193.579 687.82 194.094 688.498 194.462L688.382 195.702C687.41 195.225 686.686 194.538 686.211 193.64C685.735 192.742 685.552 191.708 685.66 190.54C685.75 189.572 686.058 188.716 686.585 187.973C687.121 187.23 687.819 186.669 688.677 186.292C689.536 185.914 690.484 185.773 691.522 185.87ZM688.739 201.775C689.58 201.899 690.292 202.172 690.874 202.595C691.465 203.03 691.888 203.567 692.141 204.208C692.404 204.86 692.48 205.562 692.37 206.313C692.255 207.094 691.976 207.738 691.534 208.246C691.089 208.764 690.568 209.107 689.971 209.275L691.773 209.54L691.619 210.591L683.418 209.388L683.572 208.336L685.39 208.603C684.867 208.26 684.463 207.776 684.176 207.151C683.898 206.538 683.816 205.84 683.93 205.059C684.039 204.318 684.313 203.673 684.751 203.124C685.189 202.584 685.753 202.191 686.443 201.945C687.133 201.708 687.898 201.652 688.739 201.775ZM687.673 208.938C688.334 209.035 688.934 208.985 689.475 208.788C690.015 208.591 690.455 208.277 690.794 207.846C691.132 207.425 691.342 206.934 691.425 206.374C691.51 205.793 691.456 205.253 691.263 204.754C691.071 204.255 690.744 203.834 690.283 203.49C689.83 203.158 689.264 202.942 688.583 202.842C687.912 202.743 687.302 202.787 686.753 202.972C686.213 203.169 685.773 203.478 685.435 203.899C685.108 204.322 684.901 204.823 684.816 205.404C684.733 205.965 684.794 206.495 684.997 206.996C685.198 207.506 685.529 207.933 685.99 208.277C686.451 208.621 687.012 208.841 687.673 208.938ZM690.655 217.091C690.481 218.067 690.035 218.81 689.317 219.319C688.609 219.83 687.682 219.983 686.536 219.779L681.754 218.925L681.938 217.894L686.6 218.726C687.487 218.884 688.205 218.781 688.753 218.416C689.3 218.062 689.641 217.501 689.778 216.734C689.919 215.946 689.782 215.274 689.367 214.717C688.953 214.16 688.262 213.795 687.296 213.622L682.842 212.827L683.029 211.781L691.189 213.238L691.002 214.284L689.612 214.036C690.064 214.384 690.376 214.825 690.548 215.36C690.73 215.896 690.766 216.473 690.655 217.091ZM688.296 224.036L683.249 223.028C682.753 222.929 682.391 222.955 682.165 223.106C681.939 223.257 681.778 223.57 681.683 224.047L681.493 224.999L680.6 224.821L680.823 223.704C680.969 222.97 681.247 222.458 681.656 222.168C682.075 221.88 682.676 221.814 683.46 221.971L688.507 222.979L688.733 221.848L689.611 222.023L689.385 223.154L691.425 223.562L691.214 224.619L689.174 224.211L688.728 226.444L687.85 226.269L688.296 224.036ZM689.754 229.141C689.799 228.934 689.911 228.772 690.092 228.655C690.272 228.539 690.472 228.505 690.689 228.552C690.907 228.599 691.069 228.712 691.175 228.89C691.291 229.071 691.327 229.265 691.282 229.473C691.237 229.68 691.124 229.842 690.944 229.958C690.773 230.077 690.579 230.112 690.361 230.065C690.144 230.018 689.977 229.904 689.86 229.724C689.744 229.543 689.709 229.349 689.754 229.141ZM688.113 229.329L680.012 227.574L680.237 226.535L688.338 228.291L688.113 229.329ZM684.242 236.305L683.369 236.103L684.7 230.35L685.573 230.552L684.242 236.305ZM681.769 243.749C681.514 244.3 681.095 244.716 680.512 244.995C679.929 245.275 679.318 245.334 678.681 245.171C678.161 245.039 677.724 244.786 677.37 244.414C677.023 244.054 676.791 243.593 676.673 243.03C676.565 242.47 676.6 241.841 676.778 241.145L677.685 237.585L687.968 240.206L687.087 243.663C686.822 244.703 686.38 245.431 685.762 245.848C685.142 246.275 684.449 246.391 683.684 246.196C683.046 246.033 682.57 245.729 682.256 245.283C681.951 244.84 681.789 244.329 681.769 243.749ZM683.16 240.077L682.549 242.475C682.371 243.172 682.397 243.747 682.625 244.203C682.861 244.67 683.268 244.977 683.847 245.125C684.416 245.27 684.911 245.193 685.332 244.893C685.751 244.602 686.052 244.094 686.237 243.369L686.837 241.015L683.16 240.077ZM677.664 241.293C677.474 242.038 677.503 242.662 677.751 243.164C677.997 243.675 678.429 244.01 679.046 244.168C679.664 244.325 680.211 244.229 680.686 243.881C681.169 243.544 681.504 243.008 681.692 242.272L682.307 239.86L678.291 238.836L677.664 241.293ZM680.661 247.336C681.664 247.62 682.497 248.093 683.162 248.755C683.836 249.42 684.285 250.194 684.507 251.078C684.74 251.964 684.724 252.875 684.459 253.809C684.136 254.949 683.587 255.845 682.813 256.499C682.045 257.165 681.117 257.543 680.029 257.635L680.369 256.437C681.143 256.341 681.81 256.046 682.371 255.553C682.929 255.069 683.328 254.404 683.568 253.557C683.78 252.807 683.797 252.081 683.618 251.378C683.435 250.684 683.062 250.073 682.496 249.545C681.94 249.019 681.229 248.633 680.363 248.388C679.496 248.142 678.688 248.097 677.939 248.253C677.19 248.409 676.556 248.734 676.037 249.228C675.516 249.733 675.149 250.36 674.936 251.11C674.696 251.957 674.681 252.731 674.893 253.433C675.111 254.147 675.52 254.747 676.118 255.232L675.779 256.43C674.91 255.784 674.324 254.976 674.02 254.006C673.716 253.036 673.725 251.986 674.045 250.857C674.31 249.922 674.769 249.137 675.423 248.502C676.086 247.869 676.874 247.446 677.787 247.231C678.7 247.017 679.658 247.052 680.661 247.336ZM679.052 270.654L669.063 267.498L669.383 266.485L677.36 269.005L670.509 262.924L670.742 262.185L679.814 261.135L671.867 258.624L672.187 257.611L682.176 260.767L681.837 261.838L671.959 262.968L679.395 269.568L679.052 270.654ZM668.697 276.42L670.264 271.854L668.181 270.16L668.546 269.097L677.197 276.159L676.808 277.293L665.649 277.541L666.013 276.478L668.697 276.42ZM669.634 276.404L675.741 276.285L670.993 272.441L669.634 276.404Z" fill="#696969"/>
<path d="M195.328 195.32C327.382 59.54 544.148 -32.1275 640.012 63.7368C735.852 159.577 644.232 376.392 508.429 508.423C376.398 644.227 159.585 735.847 63.7454 640.007C-32.1183 544.142 59.5251 327.352 195.328 195.32Z" fill="#87E871"/>
</svg>
