<svg width="969" height="968" viewBox="0 0 969 968" fill="none" xmlns="http://www.w3.org/2000/svg">
<path d="M602.801 36.3151C603.471 36.2436 604.076 36.3919 604.616 36.7599C605.153 37.1177 605.525 37.6093 605.729 38.2349C606.025 39.1374 605.942 39.9594 605.481 40.7008C605.026 41.4287 604.235 41.9773 603.107 42.3466L598.077 43.9936L594.541 33.1946L599.402 31.603C600.499 31.2438 601.438 31.2146 602.218 31.5157C603.008 31.8134 603.544 32.393 603.826 33.2544C604.034 33.8903 604.038 34.4738 603.837 35.0051C603.647 35.533 603.302 35.9697 602.801 36.3151ZM598.602 36.7022L600.325 36.1381C600.756 35.997 601.054 35.7973 601.219 35.5388C601.391 35.2667 601.416 34.9461 601.296 34.5769C601.175 34.2077 600.964 33.9643 600.665 33.8467C600.375 33.7257 600.015 33.7357 599.585 33.8767L597.862 34.4408L598.602 36.7022ZM601.951 40.3749C602.391 40.2305 602.698 40.0222 602.87 39.7502C603.049 39.4645 603.076 39.1319 602.952 38.7524C602.828 38.373 602.602 38.1175 602.276 37.9861C601.959 37.8513 601.58 37.8561 601.139 38.0005L599.232 38.6251L600.012 41.0095L601.951 40.3749ZM607.315 28.4281L610.865 39.8681L608.222 40.6884L604.672 29.2484L607.315 28.4281ZM619.592 32.3626C619.666 32.6106 619.729 32.8736 619.779 33.1516L613.781 34.958C613.984 35.4828 614.279 35.8448 614.665 36.0439C615.059 36.2295 615.479 36.2554 615.923 36.1216C616.584 35.9224 616.96 35.505 617.05 34.8692L619.871 34.0197C619.898 34.6316 619.788 35.2224 619.543 35.7922C619.308 36.3588 618.945 36.8569 618.454 37.2864C617.964 37.7158 617.367 38.0364 616.665 38.248C615.817 38.5031 615.009 38.5495 614.238 38.387C613.468 38.2245 612.796 37.8635 612.222 37.3039C611.648 36.7443 611.225 36.015 610.954 35.116C610.684 34.2171 610.628 33.3773 610.787 32.5968C610.957 31.8131 611.318 31.1409 611.87 30.5801C612.423 30.0193 613.128 29.6098 613.985 29.3515C614.822 29.0994 615.619 29.051 616.376 29.2063C617.133 29.3616 617.79 29.7102 618.348 30.2523C618.916 30.7912 619.33 31.4947 619.592 32.3626ZM616.669 32.482C616.532 32.0274 616.269 31.7124 615.878 31.5371C615.487 31.3618 615.059 31.3442 614.594 31.4842C614.15 31.618 613.811 31.8607 613.579 32.2124C613.357 32.561 613.282 32.9838 613.353 33.4809L616.669 32.482ZM625.169 26.1461C626.187 25.8602 627.091 25.965 627.88 26.4607C628.677 26.9431 629.237 27.7609 629.561 28.9141L630.988 33.9944L628.339 34.7384L627.013 30.0165C626.849 29.4347 626.572 29.0251 626.18 28.7877C625.788 28.5502 625.338 28.503 624.829 28.6459C624.32 28.7889 623.96 29.0637 623.749 29.4704C623.538 29.8771 623.514 30.3713 623.678 30.9531L625.004 35.675L622.339 36.4234L619.897 27.7277L622.562 26.9793L622.886 28.1325C623.048 27.6722 623.327 27.2688 623.723 26.9222C624.116 26.5653 624.598 26.3066 625.169 26.1461ZM633.608 25.5076C633.795 24.9453 634.088 24.4667 634.486 24.072C634.882 23.6668 635.367 23.3888 635.941 23.238L636.685 26.0716L635.95 26.2649C635.282 26.4404 634.819 26.7181 634.562 27.0981C634.302 27.4677 634.267 28.0125 634.456 28.7327L635.521 32.7874L632.844 33.4908L630.549 24.755L633.226 24.0517L633.608 25.5076ZM646.701 25.1895C646.763 25.441 646.812 25.7069 646.847 25.9871L640.763 27.4809C640.939 28.0156 641.215 28.3923 641.591 28.6111C641.975 28.8169 642.392 28.8644 642.843 28.7538C643.513 28.5891 643.91 28.1916 644.033 27.5613L646.894 26.8588C646.889 27.4712 646.749 28.0556 646.475 28.6119C646.211 29.1657 645.823 29.6443 645.311 30.0479C644.799 30.4514 644.186 30.7406 643.474 30.9156C642.614 31.1267 641.804 31.1311 641.043 30.929C640.283 30.7269 639.63 30.3316 639.085 29.743C638.541 29.1545 638.157 28.4043 637.933 27.4926C637.709 26.5809 637.697 25.7394 637.896 24.9681C638.106 24.1943 638.502 23.5416 639.082 23.0101C639.663 22.4786 640.388 22.1061 641.258 21.8925C642.107 21.6841 642.905 21.6769 643.653 21.8711C644.401 22.0653 645.039 22.4475 645.568 23.0177C646.107 23.5852 646.485 24.3092 646.701 25.1895ZM643.777 25.1576C643.663 24.6965 643.416 24.3683 643.035 24.173C642.653 23.9778 642.227 23.938 641.755 24.0538C641.305 24.1645 640.954 24.3894 640.704 24.7286C640.465 25.0652 640.367 25.4836 640.412 25.9837L643.777 25.1576ZM650.238 21.2168C650.409 20.7471 650.698 20.3339 651.104 19.9772C651.511 19.6205 652.025 19.3725 652.646 19.233C653.373 19.07 654.072 19.1065 654.744 19.3427C655.417 19.5789 655.998 20.0014 656.489 20.6102C656.99 21.2166 657.342 21.9726 657.545 22.8781C657.748 23.7836 657.754 24.6228 657.563 25.3957C657.38 26.1557 657.036 26.7914 656.531 27.3028C656.024 27.8037 655.407 28.1356 654.681 28.2987C654.07 28.4358 653.5 28.4311 652.969 28.2848C652.449 28.136 652.012 27.8912 651.659 27.5501L652.879 32.9832L650.178 33.5894L647.257 20.5752L649.958 19.9691L650.238 21.2168ZM654.797 23.4949C654.646 22.821 654.338 22.3371 653.874 22.0431C653.418 21.7362 652.916 21.6442 652.369 21.7671C651.832 21.8876 651.418 22.1852 651.126 22.6599C650.845 23.1322 650.78 23.7052 650.931 24.3791C651.082 25.053 651.386 25.5434 651.842 25.8502C652.308 26.1547 652.81 26.2467 653.347 26.1262C653.884 26.0057 654.298 25.7081 654.59 25.2334C654.879 24.7482 654.948 24.1687 654.797 23.4949ZM669.112 22.1517C668.678 22.2349 668.254 22.206 667.843 22.065C667.442 21.922 667.101 21.6906 666.82 21.3709C666.537 21.0405 666.354 20.658 666.271 20.2235C666.186 19.7783 666.214 19.3553 666.357 18.9544C666.498 18.5428 666.729 18.1966 667.049 17.9156C667.379 17.6326 667.761 17.4495 668.196 17.3664C668.641 17.2811 669.064 17.31 669.465 17.453C669.877 17.594 670.224 17.8296 670.507 18.16C670.788 18.4798 670.971 18.8622 671.056 19.3074C671.139 19.7419 671.11 20.165 670.969 20.5765C670.826 20.9774 670.59 21.3194 670.259 21.6024C669.94 21.8834 669.557 22.0664 669.112 22.1517ZM691.863 12.4227C692.889 12.2779 693.768 12.4861 694.501 13.0474C695.244 13.5965 695.702 14.4855 695.875 15.7143L696.599 20.8432L695.493 20.9993L694.787 15.9986C694.653 15.0476 694.321 14.3535 693.79 13.9161C693.26 13.4788 692.599 13.3159 691.809 13.4276C690.986 13.5437 690.367 13.909 689.953 14.5233C689.538 15.1376 689.404 15.963 689.55 16.9995L690.22 21.7437L689.114 21.8999L688.408 16.8992C688.274 15.9482 687.942 15.254 687.411 14.8167C686.881 14.3794 686.215 14.2173 685.414 14.3304C684.591 14.4466 683.972 14.8118 683.558 15.4261C683.143 16.0405 683.009 16.8659 683.155 17.9023L683.825 22.6466L682.703 22.805L681.468 14.0538L682.59 13.8954L682.802 15.402C683.003 14.8178 683.34 14.3506 683.814 14.0004C684.286 13.6395 684.838 13.4146 685.468 13.3256C686.227 13.2185 686.915 13.3066 687.532 13.5899C688.161 13.8718 688.653 14.3472 689.009 15.0162C689.146 14.2885 689.472 13.703 689.987 13.2598C690.511 12.8043 691.136 12.5253 691.863 12.4227ZM698.427 10.0219C698.202 10.0484 697.999 9.99072 697.82 9.84889C697.64 9.70707 697.536 9.51827 697.508 9.28249C697.481 9.04672 697.538 8.84434 697.681 8.67537C697.823 8.49568 698.007 8.39258 698.232 8.36608C698.457 8.33957 698.659 8.39723 698.839 8.53905C699.017 8.67016 699.12 8.8536 699.148 9.08938C699.176 9.32515 699.119 9.53289 698.977 9.71257C698.835 9.89226 698.652 9.99536 698.427 10.0219ZM699.184 11.6114L700.218 20.3887L699.093 20.5212L698.059 11.7439L699.184 11.6114ZM710.247 14.4776C710.286 14.8642 710.304 15.1606 710.303 15.3667L703.006 16.0879C703.104 16.7506 703.321 17.3038 703.658 17.7476C703.994 18.1915 704.411 18.5136 704.908 18.7139C705.404 18.9034 705.931 18.9706 706.489 18.9154C707.22 18.8432 707.814 18.6055 708.273 18.2023C708.743 17.7981 709.029 17.2873 709.13 16.67L710.322 16.5522C710.192 17.4325 709.8 18.1815 709.145 18.7993C708.501 19.4052 707.646 19.7607 706.583 19.8658C705.756 19.9475 704.997 19.8382 704.306 19.5378C703.614 19.2267 703.047 18.7514 702.604 18.112C702.171 17.4608 701.909 16.6788 701.819 15.766C701.729 14.8532 701.832 14.0352 702.129 13.3118C702.427 12.5884 702.885 12.0118 703.504 11.5819C704.123 11.1521 704.851 10.8957 705.689 10.813C706.526 10.7302 707.275 10.8406 707.933 11.1441C708.603 11.4466 709.135 11.8928 709.53 12.4828C709.934 13.0609 710.173 13.7259 710.247 14.4776ZM709.1 14.5584C709.046 13.9023 708.857 13.3571 708.532 12.923C708.218 12.4877 707.813 12.1753 707.317 11.9858C706.821 11.7962 706.294 11.729 705.736 11.7842C704.898 11.867 704.211 12.2061 703.673 12.8014C703.135 13.3967 702.883 14.1862 702.915 15.1698L709.1 14.5584ZM712.877 7.10578L713.919 19.0386L712.79 19.1371L711.749 7.2043L712.877 7.10578ZM720.347 18.7423C719.517 18.793 718.757 18.6557 718.067 18.3303C717.387 17.9935 716.832 17.4976 716.403 16.8427C715.984 16.1764 715.747 15.3855 715.691 14.47C715.635 13.5544 715.78 12.7455 716.126 12.0432C716.472 11.3302 716.967 10.7701 717.613 10.3631C718.257 9.9453 718.994 9.71105 719.824 9.66035C720.653 9.60965 721.413 9.75239 722.104 10.0886C722.805 10.4133 723.365 10.9088 723.784 11.5751C724.214 12.23 724.456 13.0152 724.512 13.9307C724.567 14.8355 724.422 15.6444 724.077 16.3575C723.731 17.0705 723.23 17.6363 722.575 18.0547C721.919 18.4624 721.176 18.6916 720.347 18.7423ZM720.286 17.7568C720.868 17.7212 721.399 17.559 721.878 17.2703C722.357 16.9707 722.731 16.5478 723.001 16.0016C723.28 15.4439 723.396 14.7774 723.349 14.0018C723.301 13.2263 723.111 12.5839 722.777 12.0745C722.442 11.5544 722.02 11.1803 721.508 10.952C720.996 10.7131 720.45 10.6113 719.868 10.6469C719.286 10.6824 718.756 10.85 718.277 11.1496C717.797 11.4384 717.423 11.8612 717.154 12.4182C716.896 12.9638 716.79 13.6243 716.838 14.3998C716.885 15.1754 717.071 15.8235 717.394 16.3443C717.728 16.8536 718.146 17.2281 718.647 17.4678C719.158 17.696 719.705 17.7923 720.286 17.7568ZM737.163 9.03314C738.199 9.01001 739.048 9.32027 739.71 9.96392C740.382 10.5965 740.732 11.5332 740.76 12.7738L740.876 17.9523L739.759 17.9772L739.646 12.9282C739.625 11.9681 739.377 11.2396 738.901 10.7429C738.426 10.2462 737.789 10.0068 736.991 10.0246C736.16 10.0432 735.503 10.3331 735.019 10.8944C734.535 11.4557 734.305 12.2596 734.328 13.306L734.435 18.0961L733.318 18.121L733.206 13.072C733.184 12.1119 732.936 11.3834 732.461 10.8867C731.985 10.39 731.343 10.1507 730.534 10.1688C729.703 10.1873 729.046 10.4772 728.562 11.0385C728.078 11.5998 727.848 12.4037 727.871 13.4502L727.978 18.2403L726.845 18.2656L726.648 9.42982L727.781 9.40452L727.815 10.9257C728.083 10.3692 728.473 9.94495 728.984 9.65289C729.496 9.35004 730.07 9.19151 730.706 9.1773C731.472 9.1602 732.145 9.32867 732.725 9.68271C733.316 10.0365 733.749 10.5665 734.024 11.2728C734.245 10.5662 734.638 10.0232 735.201 9.64361C735.776 9.25301 736.429 9.04952 737.163 9.03314ZM742.962 13.5065C742.98 12.6003 743.174 11.8109 743.544 11.1384C743.925 10.4553 744.437 9.93677 745.081 9.58281C745.736 9.21829 746.468 9.0442 747.277 9.06056C748.119 9.07757 748.838 9.28639 749.434 9.687C750.041 10.0878 750.473 10.5931 750.731 11.2027L750.77 9.26069L751.903 9.28359L751.724 18.1197L750.591 18.0968L750.631 16.1386C750.338 16.7372 749.88 17.2298 749.257 17.6166C748.645 17.9927 747.919 18.1723 747.077 18.1553C746.279 18.1392 745.56 17.9358 744.92 17.5451C744.291 17.1546 743.8 16.6104 743.447 15.9125C743.105 15.2148 742.943 14.4128 742.962 13.5065ZM750.681 13.6788C750.695 12.9667 750.562 12.338 750.282 11.7927C750.001 11.2473 749.611 10.8239 749.109 10.5223C748.619 10.221 748.072 10.0642 747.468 10.052C746.842 10.0394 746.278 10.1683 745.776 10.4387C745.274 10.7092 744.872 11.1112 744.57 11.6448C744.278 12.1678 744.125 12.7961 744.111 13.5298C744.096 14.2526 744.223 14.892 744.493 15.4479C744.773 15.9932 745.159 16.4166 745.649 16.7179C746.14 17.0085 746.698 17.1601 747.324 17.1727C747.928 17.1849 748.481 17.0504 748.983 16.7691C749.496 16.4881 749.904 16.0808 750.206 15.5472C750.508 15.0137 750.666 14.3908 750.681 13.6788ZM769.964 10.3438C770.996 10.4284 771.808 10.8251 772.4 11.5341C773.003 12.2331 773.254 13.201 773.153 14.4379L772.73 19.6003L771.617 19.5092L772.029 14.4758C772.107 13.5186 771.936 12.7683 771.515 12.2249C771.094 11.6815 770.485 11.3773 769.689 11.3121C768.861 11.2443 768.177 11.4644 767.638 11.9723C767.098 12.4803 766.785 13.256 766.7 14.2992L766.309 19.0745L765.196 18.9833L765.608 13.9499C765.686 12.9927 765.515 12.2424 765.094 11.6991C764.673 11.1557 764.059 10.851 763.252 10.7849C762.424 10.7171 761.74 10.9372 761.201 11.4452C760.661 11.9532 760.349 12.7288 760.263 13.772L759.872 18.5473L758.743 18.4548L759.464 9.64638L760.593 9.73887L760.469 11.2553C760.794 10.7297 761.226 10.3482 761.765 10.1109C762.305 9.86278 762.892 9.76471 763.527 9.81668C764.29 9.87922 764.942 10.1167 765.482 10.529C766.033 10.9423 766.408 11.5144 766.608 12.2454C766.902 11.5656 767.349 11.0663 767.949 10.7473C768.561 10.4184 769.232 10.284 769.964 10.3438ZM783.983 12.1198L782.818 20.8805L781.694 20.731L781.899 19.1907C781.57 19.7021 781.119 20.0666 780.546 20.2842C779.972 20.5019 779.354 20.5666 778.691 20.4783C777.643 20.3388 776.829 19.9041 776.252 19.174C775.675 18.4333 775.469 17.4478 775.633 16.2177L776.314 11.0992L777.421 11.2465L776.757 16.2366C776.63 17.1886 776.769 17.9473 777.172 18.5127C777.587 19.0795 778.206 19.4177 779.03 19.5273C779.875 19.6398 780.584 19.462 781.158 18.9941C781.732 18.5261 782.088 17.7734 782.226 16.7358L782.86 11.9703L783.983 12.1198ZM782.017 9.22902L778.473 10.7007L778.588 9.83429L782.151 8.21816L782.017 9.22902ZM788.37 9.60008L786.496 21.4307L785.377 21.2534L787.251 9.42279L788.37 9.60008ZM791.882 14.3677L790.902 19.7667C790.806 20.2976 790.84 20.6822 791.005 20.9206C791.17 21.1589 791.508 21.3244 792.017 21.4169L793.037 21.6019L792.863 22.5575L791.669 22.3407C790.883 22.1981 790.332 21.9116 790.015 21.4812C789.7 21.0402 789.619 20.4003 789.771 19.5615L790.751 14.1624L789.541 13.9427L789.711 13.0031L790.922 13.2228L791.318 11.0408L792.449 11.2461L792.053 13.428L794.442 13.8616L794.271 14.8013L791.882 14.3677ZM797.301 12.719C797.079 12.6748 796.904 12.5576 796.777 12.3673C796.649 12.177 796.609 11.9654 796.655 11.7325C796.702 11.4997 796.819 11.3249 797.007 11.2083C797.197 11.0811 797.404 11.0396 797.626 11.0837C797.848 11.1279 798.023 11.2451 798.15 11.4355C798.279 11.6152 798.321 11.8215 798.275 12.0543C798.228 12.2872 798.11 12.4672 797.92 12.5944C797.729 12.7216 797.523 12.7632 797.301 12.719ZM797.532 14.4647L795.809 23.1331L794.698 22.9123L796.42 14.2438L797.532 14.4647ZM800.976 17.2169C801.385 16.703 801.927 16.3258 802.604 16.0854C803.294 15.8369 804.049 15.8086 804.869 16.0006C805.646 16.1827 806.302 16.5302 806.836 17.0431C807.382 17.548 807.75 18.1772 807.939 18.9309C808.142 19.6765 808.139 20.4905 807.933 21.3731C807.726 22.2557 807.365 22.9914 806.851 23.5801C806.346 24.1714 805.736 24.577 805.02 24.7971C804.313 25.0197 803.572 25.0399 802.794 24.8578C801.985 24.6684 801.326 24.3144 800.815 23.7959C800.307 23.2669 799.985 22.6814 799.847 22.0396L798.451 27.9969L797.364 27.7423L800.332 15.071L801.419 15.3257L800.976 17.2169ZM806.814 21.1111C806.981 20.3966 806.983 19.7487 806.82 19.1674C806.67 18.5781 806.385 18.0903 805.966 17.7039C805.547 17.3175 805.032 17.053 804.423 16.9103C803.834 16.7725 803.26 16.7876 802.7 16.9556C802.15 17.1261 801.672 17.4408 801.265 17.8997C800.858 18.3586 800.574 18.9348 800.411 19.6282C800.249 20.3217 800.248 20.9643 800.409 21.5561C800.569 22.1479 800.858 22.6422 801.275 23.0391C801.702 23.4384 802.21 23.707 802.799 23.8448C803.408 23.9875 803.986 23.9789 804.534 23.8189C805.084 23.6484 805.556 23.3325 805.953 22.8711C806.362 22.4017 806.649 21.815 806.814 21.1111ZM813.126 14.9252L810.035 26.4978L808.941 26.2055L812.031 14.6329L813.126 14.9252ZM816.167 28.4481C815.372 28.207 814.707 27.8138 814.173 27.2685C813.653 26.716 813.306 26.0581 813.131 25.2948C812.97 24.5243 813.023 23.7001 813.289 22.8224C813.555 21.9446 813.973 21.2368 814.542 20.699C815.114 20.1508 815.774 19.7982 816.52 19.6413C817.27 19.474 818.043 19.511 818.838 19.7521C819.633 19.9932 820.296 20.3916 820.827 20.9472C821.371 21.4956 821.723 22.1551 821.884 22.9256C822.059 23.6889 822.013 24.5095 821.747 25.3872C821.484 26.2547 821.066 26.9625 820.494 27.5107C819.922 28.0588 819.255 28.415 818.495 28.5791C817.738 28.7329 816.962 28.6893 816.167 28.4481ZM816.453 27.5032C817.011 27.6723 817.565 27.705 818.115 27.6012C818.669 27.4871 819.166 27.2209 819.609 26.8026C820.065 26.3771 820.406 25.7925 820.631 25.049C820.857 24.3055 820.902 23.6369 820.766 23.0432C820.634 22.4392 820.367 21.9412 819.967 21.5493C819.571 21.1471 819.093 20.8614 818.536 20.6923C817.978 20.5232 817.423 20.4957 816.869 20.6098C816.319 20.7136 815.821 20.9798 815.376 21.4084C814.943 21.8299 814.614 22.4124 814.389 23.1559C814.163 23.8994 814.112 24.5716 814.234 25.1725C814.37 25.7662 814.631 26.2626 815.017 26.6617C815.417 27.0536 815.896 27.3341 816.453 27.5032ZM829.389 28.9861C828.913 28.8105 828.565 28.4921 828.344 28.0309C828.127 27.5597 828.108 27.0811 828.287 26.5952C828.47 26.0991 828.796 25.7476 829.263 25.5406C829.734 25.3235 830.208 25.3027 830.684 25.4784C831.18 25.6615 831.531 25.9868 831.738 26.4544C831.959 26.9155 831.978 27.3941 831.795 27.8901C831.615 28.376 831.29 28.7276 830.819 28.9447C830.361 29.1554 829.885 29.1692 829.389 28.9861ZM844.313 31.5324C844.821 31.117 845.431 30.8637 846.144 30.7725C846.871 30.6762 847.614 30.8088 848.375 31.1704C849.096 31.5135 849.663 31.9923 850.075 32.6069C850.502 33.2163 850.728 33.9094 850.753 34.686C850.792 35.4576 850.617 36.2526 850.228 37.0712C849.838 37.8897 849.33 38.532 848.702 38.998C848.084 39.4687 847.401 39.7355 846.654 39.7984C845.917 39.866 845.188 39.7282 844.467 39.3852C843.716 39.0282 843.147 38.5422 842.758 37.9271C842.374 37.3023 842.183 36.6617 842.185 36.0052L839.556 41.5304L838.548 41.0506L844.138 29.2986L845.147 29.7784L844.313 31.5324ZM849.19 36.5774C849.505 35.9148 849.645 35.2822 849.609 34.6795C849.587 34.0717 849.413 33.5346 849.085 33.0679C848.757 32.6013 848.311 32.2336 847.746 31.9647C847.2 31.7051 846.636 31.5979 846.052 31.6431C845.479 31.693 844.945 31.8989 844.45 32.261C843.955 32.6231 843.555 33.1257 843.249 33.7688C842.943 34.412 842.805 35.0397 842.837 35.6521C842.868 36.2645 843.045 36.8089 843.368 37.2853C843.701 37.7663 844.14 38.1366 844.686 38.3962C845.251 38.6651 845.818 38.7794 846.387 38.7393C846.96 38.6895 847.49 38.4812 847.975 38.1145C848.474 37.7427 848.88 37.2303 849.19 36.5774ZM854.588 36.1348C855.065 35.7652 855.598 35.5658 856.188 35.5369C856.787 35.5129 857.416 35.6756 858.073 36.0248L857.519 37.0684L857.248 36.9242C856.523 36.5395 855.838 36.4262 855.192 36.5841C854.546 36.7421 853.98 37.2785 853.494 38.1934L851.179 42.5537L850.178 42.0223L854.323 34.2167L855.324 34.7481L854.588 36.1348ZM861.006 35.9377C860.808 35.8261 860.679 35.6601 860.618 35.4395C860.557 35.2189 860.585 35.0053 860.701 34.7986C860.818 34.592 860.984 34.4628 861.2 34.411C861.42 34.3498 861.629 34.3749 861.826 34.4865C862.024 34.5981 862.153 34.7641 862.214 34.9847C862.281 35.1959 862.255 35.4048 862.139 35.6114C862.022 35.8181 861.853 35.952 861.632 36.0132C861.412 36.0744 861.203 36.0493 861.006 35.9377ZM860.678 37.6678L856.327 45.3606L855.341 44.8028L859.692 37.11L860.678 37.6678ZM872.238 44.7874C873.11 45.3466 873.641 46.078 873.831 46.9816C874.035 47.8819 873.803 48.8544 873.133 49.8991L870.337 54.2596L869.397 53.6568L872.123 49.4053C872.641 48.5968 872.842 47.8539 872.725 47.1764C872.608 46.499 872.214 45.9448 871.541 45.5138C870.842 45.0653 870.135 44.9388 869.42 45.1342C868.705 45.3295 868.065 45.8678 867.5 46.749L864.914 50.7824L863.974 50.1796L866.699 45.9281C867.218 45.1196 867.419 44.3767 867.302 43.6993C867.185 43.0218 866.786 42.4647 866.104 42.0279C865.405 41.5794 864.698 41.4529 863.983 41.6482C863.268 41.8436 862.628 42.3819 862.063 43.2631L859.477 47.2965L858.523 46.6849L863.293 39.2449L864.247 39.8564L863.426 41.1373C863.959 40.8255 864.519 40.6912 865.107 40.7346C865.7 40.7689 866.265 40.9579 866.801 41.3015C867.446 41.715 867.91 42.2306 868.193 42.8482C868.486 43.4715 868.549 44.1529 868.383 44.8923C868.961 44.4299 869.59 44.1987 870.27 44.1985C870.964 44.1951 871.62 44.3914 872.238 44.7874ZM881.713 56.6103C881.479 56.9207 881.292 57.1513 881.152 57.3021L875.293 52.8923C874.917 53.4463 874.702 54.0006 874.65 54.5552C874.597 55.1098 874.685 55.629 874.915 56.1128C875.152 56.5881 875.495 56.9944 875.943 57.3319C876.529 57.7732 877.128 58.0008 877.738 58.0149C878.358 58.0354 878.914 57.8529 879.407 57.4674L880.364 58.1878C879.672 58.7477 878.876 59.0334 877.976 59.0447C877.091 59.054 876.222 58.7374 875.368 58.0949C874.705 57.5952 874.22 57.0008 873.915 56.3118C873.616 55.6142 873.52 54.8802 873.627 54.1099C873.75 53.3375 874.086 52.5848 874.638 51.852C875.19 51.1192 875.82 50.5872 876.528 50.256C877.237 49.9249 877.964 49.8107 878.711 49.9135C879.457 50.0162 880.167 50.3207 880.839 50.8269C881.512 51.3331 881.988 51.921 882.267 52.5905C882.555 53.2665 882.645 53.9552 882.536 54.6564C882.442 55.3555 882.167 56.0068 881.713 56.6103ZM880.814 55.8933C881.219 55.3739 881.449 54.8444 881.503 54.305C881.567 53.772 881.48 53.2679 881.244 52.7927C881.007 52.3174 880.665 51.9111 880.217 51.5736C879.544 51.0674 878.808 50.8514 878.01 50.9255C877.211 50.9997 876.491 51.4096 875.848 52.1552L880.814 55.8933ZM887.482 54.0018C887.307 53.8587 887.207 53.6733 887.184 53.4455C887.161 53.2178 887.224 53.0119 887.374 52.8279C887.524 52.6438 887.709 52.5444 887.93 52.5295C888.158 52.5062 888.36 52.5662 888.535 52.7093C888.711 52.8525 888.811 53.0379 888.834 53.2657C888.864 53.485 888.804 53.6867 888.654 53.8708C888.504 54.0548 888.315 54.1585 888.087 54.1817C887.86 54.2049 887.658 54.145 887.482 54.0018ZM886.868 55.6522L881.286 62.5037L880.407 61.7879L885.99 54.9365L886.868 55.6522ZM888.852 59.3816C889.399 59.1264 889.963 59.0497 890.545 59.1516C891.135 59.2604 891.712 59.5577 892.276 60.0435L891.505 60.9391L891.272 60.7384C890.65 60.2034 890.007 59.9417 889.342 59.9532C888.678 59.9647 888.007 60.3631 887.331 61.1483L884.111 64.8902L883.252 64.151L889.017 57.4524L889.876 58.1916L888.852 59.3816ZM890.385 70.766C889.78 70.1963 889.36 69.5486 889.125 68.8228C888.904 68.0965 888.886 67.3528 889.069 66.5915C889.268 65.8298 889.682 65.1151 890.31 64.4474C890.939 63.7797 891.628 63.3315 892.377 63.103C893.133 62.8666 893.881 62.8442 894.619 63.0358C895.365 63.2196 896.041 63.5964 896.646 64.166C897.251 64.7357 897.667 65.3874 897.895 66.1211C898.139 66.8543 898.161 67.6017 897.962 68.3634C897.779 69.1247 897.373 69.8392 896.744 70.5069C896.123 71.1668 895.434 71.6149 894.677 71.8513C893.921 72.0877 893.166 72.1103 892.412 71.9191C891.666 71.7201 890.99 71.3357 890.385 70.766ZM891.062 70.0473C891.486 70.4468 891.968 70.7225 892.507 70.8743C893.053 71.0182 893.618 71.0013 894.2 70.8236C894.798 70.6453 895.363 70.2734 895.896 69.7078C896.428 69.1422 896.766 68.5634 896.909 67.9713C897.059 67.3714 897.042 66.807 896.858 66.2781C896.682 65.7414 896.381 65.2733 895.957 64.8737C895.533 64.4742 895.048 64.2025 894.501 64.0585C893.962 63.9067 893.398 63.9236 892.808 64.1092C892.233 64.2944 891.68 64.6698 891.147 65.2353C890.614 65.8009 890.269 66.38 890.111 66.9726C889.969 67.5646 889.982 68.1253 890.15 68.6547C890.334 69.1835 890.638 69.6477 891.062 70.0473ZM907.206 81.0944C906.917 81.3538 906.689 81.5439 906.522 81.6647L901.626 76.2062C901.149 76.677 900.831 77.1794 900.673 77.7133C900.514 78.2472 900.5 78.7738 900.633 79.293C900.773 79.8049 901.03 80.2698 901.405 80.6875C901.895 81.2338 902.438 81.5728 903.035 81.7045C903.639 81.8443 904.219 81.7727 904.777 81.4897L905.577 82.3814C904.79 82.7972 903.954 82.9237 903.069 82.761C902.199 82.5991 901.407 82.1205 900.694 81.3252C900.139 80.7066 899.779 80.0299 899.612 79.2948C899.454 78.5526 899.502 77.814 899.756 77.0789C900.025 76.3446 900.501 75.6713 901.184 75.0588C901.866 74.4464 902.587 74.0461 903.346 73.8581C904.106 73.6701 904.841 73.6986 905.554 73.9437C906.267 74.1887 906.904 74.6245 907.466 75.2511C908.028 75.8777 908.382 76.5465 908.526 77.2574C908.678 77.9763 908.633 78.6692 908.39 79.3362C908.163 80.0039 907.768 80.59 907.206 81.0944ZM906.463 80.2172C906.96 79.7857 907.288 79.3107 907.446 78.792C907.611 78.2813 907.623 77.77 907.483 77.258C907.343 76.746 907.085 76.2812 906.711 75.8634C906.149 75.2369 905.469 74.8828 904.671 74.8012C903.873 74.7197 903.087 74.9826 902.312 75.5901L906.463 80.2172ZM919.381 90.1334L912.341 95.4774L911.656 94.5749L912.894 93.6353C912.299 93.7618 911.722 93.6983 911.164 93.4447C910.606 93.1911 910.124 92.7979 909.72 92.265C909.08 91.4227 908.816 90.5393 908.927 89.615C909.047 88.684 909.601 87.8434 910.589 87.093L914.702 83.9708L915.377 84.8604L911.368 87.9043C910.603 88.485 910.162 89.1178 910.045 89.8027C909.935 90.4961 910.131 91.1737 910.633 91.8356C911.149 92.5146 911.775 92.8929 912.511 92.9706C913.248 93.0483 914.033 92.7707 914.866 92.1378L918.695 89.2309L919.381 90.1334ZM920.047 86.7011L916.506 85.2229L917.202 84.6943L920.859 86.0845L920.047 86.7011ZM923.624 95.9883C924.215 96.8654 924.424 97.7653 924.252 98.688C924.089 99.6046 923.493 100.41 922.463 101.103L918.167 103.996L917.543 103.07L921.732 100.249C922.529 99.7123 923.002 99.1009 923.151 98.4148C923.306 97.7377 923.152 97.0545 922.688 96.3654C922.212 95.6583 921.608 95.2451 920.877 95.1259C920.146 95.0067 919.347 95.2394 918.479 95.8242L914.478 98.5189L913.845 97.5791L921.175 92.6418L921.808 93.5816L920.56 94.4226C921.164 94.3539 921.73 94.4604 922.258 94.7422C922.795 95.018 923.251 95.4334 923.624 95.9883ZM928.765 101.079C928.646 100.886 928.614 100.678 928.667 100.455C928.72 100.233 928.847 100.059 929.049 99.9346C929.252 99.8102 929.459 99.7773 929.673 99.836C929.896 99.889 930.066 100.012 930.185 100.205C930.304 100.398 930.337 100.606 930.284 100.829C930.24 101.046 930.117 101.216 929.915 101.341C929.713 101.465 929.5 101.501 929.277 101.448C929.055 101.395 928.884 101.272 928.765 101.079ZM927.642 102.435L920.115 107.067L919.522 106.102L927.048 101.47L927.642 102.435ZM925.008 106.643C925.805 106.19 926.59 105.955 927.363 105.938C928.144 105.916 928.855 106.096 929.493 106.478C930.142 106.854 930.671 107.404 931.081 108.126C931.619 109.074 931.827 109.986 931.704 110.863C931.587 111.748 931.175 112.51 930.47 113.146L929.87 112.091C930.349 111.645 930.618 111.113 930.677 110.497C930.751 109.884 930.604 109.254 930.237 108.606C929.944 108.09 929.562 107.692 929.093 107.413C928.624 107.133 928.086 107.004 927.478 107.027C926.885 107.053 926.251 107.259 925.575 107.642C924.9 108.026 924.394 108.468 924.058 108.969C923.727 109.48 923.562 110.008 923.562 110.554C923.562 111.1 923.708 111.631 924.001 112.147C924.369 112.795 924.83 113.246 925.385 113.502C925.955 113.762 926.558 113.798 927.196 113.609L927.795 114.665C926.906 114.934 926.046 114.895 925.216 114.548C924.386 114.2 923.704 113.557 923.171 112.619C922.761 111.897 922.555 111.163 922.554 110.419C922.563 109.669 922.772 108.967 923.182 108.313C923.602 107.652 924.21 107.096 925.008 106.643ZM927.858 121.465C927.49 120.721 927.321 119.967 927.353 119.205C927.4 118.447 927.641 117.744 928.078 117.094C928.53 116.449 929.166 115.923 929.988 115.516C930.81 115.109 931.612 114.929 932.394 114.975C933.185 115.017 933.893 115.256 934.519 115.693C935.154 116.125 935.656 116.714 936.025 117.458C936.394 118.203 936.557 118.959 936.516 119.726C936.488 120.498 936.249 121.206 935.798 121.851C935.361 122.501 934.731 123.03 933.909 123.436C933.097 123.839 932.295 124.019 931.504 123.977C930.713 123.935 929.997 123.694 929.357 123.252C928.726 122.806 928.227 122.21 927.858 121.465ZM928.743 121.027C929.002 121.549 929.357 121.976 929.809 122.305C930.271 122.631 930.806 122.811 931.414 122.848C932.037 122.889 932.696 122.737 933.392 122.392C934.089 122.047 934.607 121.622 934.947 121.117C935.296 120.607 935.477 120.072 935.489 119.512C935.51 118.947 935.392 118.404 935.133 117.882C934.875 117.36 934.514 116.936 934.052 116.611C933.6 116.281 933.065 116.1 932.447 116.069C931.844 116.042 931.194 116.201 930.498 116.546C929.802 116.891 929.277 117.313 928.922 117.814C928.582 118.319 928.399 118.849 928.373 119.404C928.361 119.964 928.485 120.505 928.743 121.027ZM937.536 136.415L935.611 131.641L932.749 131.73L932.302 130.619L944.204 130.271L944.682 131.457L935.861 139.447L935.413 138.336L937.536 136.415ZM938.279 135.749L943.119 131.389L936.609 131.605L938.279 135.749ZM948.264 140.674C948.668 141.859 948.801 142.948 948.661 143.942C948.521 144.936 948.125 145.796 947.471 146.52C946.817 147.245 945.934 147.797 944.821 148.177C943.718 148.553 942.686 148.655 941.726 148.48C940.776 148.303 939.942 147.863 939.224 147.162C938.516 146.457 937.96 145.512 937.556 144.328L936.474 141.156L947.182 137.503L948.264 140.674ZM938.444 144.024C938.953 145.516 939.728 146.517 940.769 147.028C941.824 147.546 943.051 147.567 944.45 147.089C945.859 146.609 946.823 145.841 947.341 144.786C947.873 143.738 947.884 142.469 947.376 140.977L946.66 138.879L937.728 141.926L938.444 144.024ZM945.41 149.966C946.481 149.666 947.502 149.632 948.475 149.864C949.458 150.093 950.297 150.548 950.991 151.227C951.696 151.904 952.189 152.741 952.468 153.738C952.808 154.954 952.809 156.075 952.468 157.1C952.141 158.133 951.508 158.994 950.569 159.683L950.211 158.405C950.862 157.886 951.305 157.247 951.54 156.486C951.778 155.736 951.77 154.909 951.517 154.005C951.293 153.205 950.904 152.535 950.349 151.995C949.798 151.466 949.118 151.119 948.309 150.953C947.511 150.784 946.65 150.829 945.725 151.088C944.8 151.347 944.04 151.756 943.446 152.315C942.852 152.874 942.456 153.522 942.26 154.261C942.066 155.01 942.081 155.785 942.305 156.585C942.558 157.489 942.976 158.201 943.559 158.721C944.155 159.249 944.861 159.567 945.675 159.675L946.033 160.953C944.884 160.849 943.901 160.441 943.085 159.728C942.269 159.015 941.692 158.056 941.354 156.851C941.075 155.853 941.056 154.884 941.296 153.942C941.547 152.998 942.028 152.174 942.739 151.471C943.45 150.767 944.34 150.266 945.41 149.966ZM948.646 166.968C949.534 166.788 950.347 166.804 951.084 167.018C951.834 167.24 952.452 167.626 952.938 168.177C953.437 168.736 953.767 169.413 953.928 170.206C954.096 171.031 954.049 171.778 953.789 172.447C953.531 173.128 953.132 173.66 952.594 174.045L954.497 173.658L954.723 174.768L946.062 176.528L945.836 175.417L947.756 175.028C947.108 174.873 946.527 174.534 946.013 174.011C945.512 173.496 945.178 172.826 945.01 172.001C944.851 171.218 944.892 170.472 945.133 169.763C945.377 169.064 945.8 168.465 946.404 167.968C947.01 167.482 947.757 167.148 948.646 166.968ZM950.167 174.538C950.865 174.396 951.449 174.129 951.92 173.736C952.391 173.343 952.718 172.869 952.903 172.314C953.09 171.769 953.123 171.201 953.002 170.609C952.878 169.995 952.629 169.473 952.255 169.043C951.881 168.612 951.401 168.308 950.814 168.13C950.24 167.96 949.593 167.948 948.874 168.094C948.166 168.238 947.57 168.502 947.086 168.887C946.616 169.28 946.287 169.749 946.1 170.293C945.924 170.835 945.898 171.413 946.023 172.027C946.143 172.619 946.396 173.129 946.78 173.558C947.166 173.997 947.653 174.305 948.24 174.483C948.827 174.661 949.469 174.68 950.167 174.538ZM956.062 181.75C956.228 182.794 956.039 183.698 955.494 184.462C954.959 185.225 954.079 185.704 952.854 185.899L947.738 186.713L947.563 185.61L952.55 184.816C953.499 184.665 954.185 184.31 954.61 183.751C955.036 183.202 955.184 182.518 955.053 181.697C954.919 180.855 954.546 180.226 953.934 179.81C953.321 179.394 952.498 179.268 951.464 179.433L946.701 180.191L946.522 179.072L955.251 177.683L955.429 178.802L953.942 179.038C954.519 179.231 954.987 179.566 955.348 180.044C955.719 180.52 955.957 181.089 956.062 181.75ZM956.099 189.654L950.656 190.35C950.121 190.418 949.764 190.567 949.587 190.796C949.41 191.026 949.354 191.397 949.419 191.911L949.551 192.939L948.587 193.062L948.434 191.858C948.332 191.066 948.439 190.454 948.754 190.022C949.079 189.589 949.665 189.318 950.51 189.21L955.953 188.514L955.797 187.294L956.745 187.173L956.901 188.393L959.1 188.112L959.246 189.252L957.046 189.533L957.354 191.941L956.407 192.062L956.099 189.654ZM959.305 194.35C959.28 194.125 959.34 193.923 959.483 193.744C959.627 193.566 959.817 193.464 960.053 193.439C960.289 193.413 960.49 193.473 960.658 193.617C960.836 193.761 960.938 193.945 960.962 194.17C960.987 194.396 960.927 194.598 960.784 194.776C960.651 194.953 960.466 195.054 960.23 195.08C959.994 195.106 959.787 195.047 959.609 194.903C959.43 194.76 959.329 194.575 959.305 194.35ZM957.708 195.093L948.922 196.044L948.8 194.918L957.586 193.966L957.708 195.093ZM956.097 203.504L955.145 203.586L954.599 197.313L955.551 197.231L956.097 203.504ZM955.983 211.926C955.899 212.569 955.606 213.125 955.102 213.596C954.598 214.067 953.996 214.322 953.296 214.36C952.725 214.392 952.2 214.275 951.72 214.009C951.252 213.754 950.869 213.359 950.569 212.824C950.28 212.289 950.115 211.639 950.073 210.874L949.857 206.963L961.155 206.34L961.364 210.139C961.427 211.281 961.21 212.163 960.715 212.784C960.22 213.417 959.553 213.756 958.712 213.802C958.012 213.841 957.431 213.684 956.968 213.331C956.516 212.978 956.188 212.509 955.983 211.926ZM956.223 207.747L956.368 210.381C956.41 211.146 956.62 211.724 956.998 212.114C957.388 212.514 957.9 212.696 958.536 212.661C959.161 212.627 959.64 212.39 959.972 211.95C960.305 211.521 960.45 210.908 960.406 210.11L960.263 207.524L956.223 207.747ZM951.022 210.741C951.067 211.559 951.296 212.184 951.709 212.616C952.122 213.058 952.668 213.26 953.347 213.222C954.026 213.185 954.551 212.913 954.923 212.406C955.306 211.91 955.476 211.257 955.431 210.449L955.285 207.798L950.873 208.041L951.022 210.741ZM955.996 215.984C957.107 215.964 958.104 216.188 958.987 216.657C959.881 217.126 960.578 217.777 961.08 218.61C961.592 219.442 961.857 220.376 961.876 221.412C961.9 222.674 961.618 223.759 961.03 224.665C960.454 225.583 959.624 226.256 958.542 226.687L958.518 225.36C959.278 225.022 959.867 224.514 960.286 223.837C960.706 223.171 960.907 222.369 960.889 221.43C960.874 220.599 960.666 219.853 960.265 219.191C959.864 218.54 959.293 218.033 958.553 217.669C957.823 217.305 956.978 217.132 956.017 217.149C955.057 217.167 954.219 217.372 953.503 217.763C952.787 218.154 952.241 218.682 951.865 219.347C951.489 220.024 951.309 220.777 951.324 221.608C951.342 222.546 951.567 223.341 952 223.991C952.444 224.652 953.047 225.137 953.808 225.447L953.833 226.774C952.746 226.384 951.898 225.742 951.287 224.846C950.677 223.951 950.36 222.878 950.337 221.626C950.318 220.59 950.543 219.647 951.013 218.797C951.494 217.946 952.167 217.27 953.032 216.768C953.896 216.266 954.885 216.005 955.996 215.984ZM961.422 240.408L950.257 240.144L950.284 239.011L959.2 239.222L950.378 235.031L950.397 234.205L959.376 230.435L950.492 230.224L950.518 229.092L961.684 229.356L961.656 230.553L951.877 234.645L961.451 239.195L961.422 240.408ZM952.463 249.409L952.755 244.27L950.129 243.131L950.197 241.935L961.113 246.692L961.04 247.968L949.656 251.438L949.724 250.242L952.463 249.409ZM953.419 249.123L959.655 247.241L953.673 244.663L953.419 249.123Z" fill="#696969"/>
<path d="M266.608 266.28C450.324 77.3796 751.894 -50.1502 885.261 83.2181C1018.6 216.554 891.132 518.19 702.201 701.875C518.517 890.808 216.882 1018.27 83.5475 884.937C-49.82 751.569 77.6762 449.965 266.608 266.28Z" fill="#87E871"/>
</svg>
