<svg width="974" height="975" viewBox="0 0 974 975" fill="none" xmlns="http://www.w3.org/2000/svg">
<path d="M590.73 40.2833C591.34 40.2155 591.881 40.3305 592.353 40.6285C592.834 40.9233 593.171 41.3434 593.365 41.8887C593.649 42.6891 593.602 43.4089 593.225 44.0478C592.856 44.6837 592.175 45.178 591.181 45.5307L586.84 47.071L583.53 37.7428L587.766 36.24C588.716 35.9029 589.523 35.849 590.189 36.0782C590.855 36.3075 591.323 36.8048 591.595 37.57C591.795 38.133 591.812 38.6566 591.647 39.1409C591.479 39.6165 591.174 39.9973 590.73 40.2833ZM587.14 40.7553L588.617 40.2309C589.4 39.9532 589.673 39.48 589.436 38.8115C589.199 38.143 588.68 37.9508 587.879 38.2348L586.428 38.7498L587.14 40.7553ZM590.055 43.8652C590.891 43.5687 591.187 43.0774 590.944 42.3914C590.825 42.0571 590.623 41.8366 590.338 41.7299C590.049 41.6145 589.702 41.6285 589.298 41.7721L587.701 42.3386L588.446 44.4364L590.055 43.8652ZM594.295 33.4465L597.721 43.2237L595.461 44.0154L592.035 34.2382L594.295 33.4465ZM605.022 36.4381C605.084 36.624 605.13 36.835 605.159 37.0711L600.019 38.7844C600.232 39.3334 600.508 39.689 600.847 39.8514C601.184 40.0049 601.551 40.0152 601.95 39.8824C602.286 39.7702 602.537 39.5931 602.702 39.3511C602.867 39.1091 602.941 38.8435 602.924 38.5542L605.328 37.7529C605.404 38.3078 605.348 38.8479 605.159 39.3733C604.967 39.8898 604.659 40.3517 604.234 40.759C603.806 41.1574 603.282 41.4599 602.662 41.6665C601.936 41.9086 601.24 41.9735 600.573 41.8613C599.912 41.7373 599.326 41.4407 598.815 40.9714C598.304 40.5021 597.921 39.8823 597.664 39.112C597.404 38.3328 597.335 37.6082 597.456 36.9382C597.583 36.2565 597.88 35.6706 598.346 35.1807C598.809 34.6819 599.404 34.3115 600.13 34.0695C600.865 33.8245 601.562 33.7596 602.22 33.8747C602.878 33.9898 603.449 34.2717 603.933 34.7203C604.423 35.1571 604.786 35.7297 605.022 36.4381ZM602.609 36.8586C602.456 36.3687 602.202 36.0499 601.848 35.9023C601.5 35.7429 601.126 35.7297 600.728 35.8625C600.312 36.0012 600.008 36.2403 599.816 36.5797C599.624 36.9191 599.59 37.3338 599.714 37.8237L602.609 36.8586ZM609.843 30.9333C610.697 30.662 611.464 30.7319 612.143 31.1429C612.831 31.5511 613.333 32.2533 613.65 33.2496L615.023 37.5726L612.741 38.2975L611.453 34.2413C611.294 33.7432 611.038 33.3987 610.684 33.2077C610.335 33.005 609.943 32.9729 609.507 33.1114C609.045 33.2583 608.722 33.5224 608.54 33.9036C608.366 34.2819 608.365 34.7423 608.538 35.2849L609.793 39.2344L607.511 39.9593L605.146 32.5141L607.427 31.7891L607.86 33.1501C607.932 32.6375 608.136 32.1858 608.472 31.795C608.817 31.4014 609.274 31.1142 609.843 30.9333ZM616.946 30.3349C617.091 29.7919 617.345 29.3178 617.708 28.9126C618.08 28.5046 618.529 28.2194 619.055 28.0569L619.811 30.5048L619.156 30.7072C618.55 30.8945 618.117 31.1698 617.858 31.5331C617.608 31.8936 617.578 32.3815 617.768 32.9968L618.817 36.3945L616.53 37.1009L614.225 29.6368L616.512 28.9303L616.946 30.3349ZM628.332 29.3057C628.387 29.494 628.424 29.7067 628.444 29.9438L623.239 31.4482C623.429 32.0053 623.69 32.3718 624.023 32.5477C624.353 32.7146 624.72 32.7398 625.123 32.6232C625.464 32.5247 625.722 32.3579 625.897 32.1227C626.071 31.8876 626.156 31.6251 626.15 31.3354L628.584 30.6318C628.639 31.1893 628.561 31.7267 628.351 32.244C628.138 32.7524 627.811 33.2015 627.37 33.5913C626.927 33.9721 626.391 34.2532 625.763 34.4346C625.028 34.6471 624.329 34.6839 623.667 34.5449C623.012 34.3943 622.438 34.0743 621.947 33.5848C621.456 33.0953 621.098 32.4605 620.872 31.6804C620.644 30.8914 620.604 30.1646 620.752 29.5C620.906 28.8239 621.226 28.2505 621.712 27.7798C622.195 27.3001 622.804 26.954 623.54 26.7415C624.284 26.5264 624.982 26.4897 625.635 26.6313C626.288 26.7729 626.848 27.0775 627.313 27.5453C627.785 28.0016 628.125 28.5884 628.332 29.3057ZM625.904 29.6285C625.771 29.1327 625.53 28.804 625.182 28.6422C624.84 28.4689 624.468 28.4406 624.064 28.5572C623.643 28.679 623.33 28.9056 623.124 29.237C622.919 29.5684 622.868 29.9814 622.972 30.4759L625.904 29.6285ZM633.299 24.013C633.92 23.8437 634.517 23.8505 635.089 24.0331C635.668 24.2044 636.176 24.5446 636.615 25.0539C637.06 25.5517 637.391 26.1969 637.607 26.9893C637.82 27.7728 637.862 28.4964 637.734 29.1602C637.614 29.8216 637.349 30.3774 636.94 30.8275C636.537 31.2662 636.025 31.5701 635.404 31.7394C634.827 31.8964 634.297 31.9008 633.811 31.7525C633.326 31.6042 632.927 31.3307 632.615 30.932L633.966 35.8893L631.656 36.5186L628.624 25.3883L630.934 24.759L631.305 26.1232C631.372 25.6215 631.576 25.1836 631.92 24.8096C632.263 24.4356 632.722 24.1701 633.299 24.013ZM633.108 26.2416C632.621 26.3741 632.266 26.6498 632.042 27.0689C631.824 27.4765 631.792 27.964 631.947 28.5313C632.099 29.0896 632.373 29.4936 632.77 29.7434C633.176 29.9907 633.622 30.0482 634.109 29.9157C634.604 29.7807 634.956 29.5107 635.165 29.1055C635.383 28.6979 635.413 28.206 635.256 27.6297C635.099 27.0533 634.823 26.6448 634.429 26.404C634.043 26.1608 633.603 26.1066 633.108 26.2416ZM644.484 24.4157C644.392 24.0347 644.398 23.6635 644.502 23.3021C644.607 22.9406 644.791 22.6317 645.055 22.3755C645.329 22.117 645.651 21.9426 646.023 21.8524C646.404 21.7599 646.771 21.767 647.123 21.8735C647.485 21.9779 647.795 22.1667 648.053 22.4402C648.312 22.7136 648.487 23.0408 648.58 23.4217C648.67 23.7936 648.663 24.1602 648.558 24.5217C648.452 24.8741 648.262 25.1796 647.988 25.438C647.722 25.6852 647.398 25.855 647.017 25.9475C646.645 26.0377 646.28 26.0352 645.921 25.94C645.568 25.8334 645.264 25.648 645.008 25.3836C644.749 25.1102 644.575 24.7875 644.484 24.4157ZM660.439 17.5409C661.123 17.3913 661.758 17.4148 662.346 17.6111C662.94 17.7963 663.447 18.1488 663.867 18.6686C664.293 19.1772 664.592 19.8236 664.764 20.6077C664.933 21.3827 664.931 22.0949 664.758 22.7443C664.592 23.3825 664.278 23.9144 663.817 24.3401C663.356 24.7657 662.788 25.0523 662.114 25.1999C661.348 25.3674 660.658 25.3129 660.043 25.0365C659.428 24.7601 658.95 24.3201 658.608 23.7166L659.828 29.2967L658.871 29.5061L656.466 18.51L657.423 18.3006L657.872 20.3521C657.931 19.6609 658.182 19.0614 658.625 18.5537C659.068 18.046 659.673 17.7084 660.439 17.5409ZM660.364 18.4457C659.836 18.5613 659.384 18.7891 659.009 19.129C658.643 19.4669 658.392 19.8897 658.255 20.3975C658.115 20.8961 658.11 21.4417 658.24 22.0344C658.37 22.627 658.603 23.1254 658.94 23.5294C659.274 23.9244 659.678 24.1991 660.152 24.3535C660.634 24.506 661.14 24.5244 661.668 24.4088C662.516 24.2233 663.133 23.8114 663.519 23.1729C663.903 22.5252 663.994 21.741 663.793 20.8201C663.591 19.8992 663.182 19.2291 662.565 18.81C661.946 18.3817 661.212 18.2602 660.364 18.4457ZM667.12 17.8484C667.235 17.265 667.506 16.7793 667.934 16.3914C668.363 16.0035 668.925 15.7415 669.621 15.6056L669.825 16.6499L669.509 16.7116C668.785 16.8529 668.224 17.167 667.824 17.6539C667.423 18.1316 667.308 18.8102 667.48 19.6896L668.282 23.798L667.306 23.9885L665.842 16.4861L666.817 16.2957L667.12 17.8484ZM670.285 13.3089C670.246 13.1073 670.279 12.9345 670.384 12.7905C670.498 12.6447 670.661 12.5514 670.872 12.5105C671.082 12.4697 671.263 12.4963 671.415 12.5906C671.566 12.6848 671.661 12.8327 671.701 13.0343C671.738 13.2267 671.704 13.3949 671.599 13.5389C671.494 13.6829 671.336 13.7753 671.125 13.8162C670.914 13.8571 670.729 13.8313 670.568 13.7388C670.417 13.6446 670.322 13.5013 670.285 13.3089ZM671.913 15.3034L673.368 22.8076L672.392 22.9969L670.937 15.4927L671.913 15.3034ZM683.262 13.159C684.126 13.0082 684.874 13.1667 685.505 13.6345C686.143 14.0915 686.557 14.8578 686.744 15.9336L687.51 20.3193L686.544 20.4878L685.791 16.171C685.65 15.3619 685.344 14.7758 684.873 14.4126C684.412 14.0479 683.841 13.9249 683.16 14.0437C682.434 14.1704 681.896 14.5106 681.548 15.0641C681.199 15.6176 681.106 16.3587 681.268 17.2873L681.966 21.2869L681.014 21.453L680.261 17.1362C680.119 16.3271 679.813 15.741 679.343 15.3778C678.881 15.0131 678.31 14.8901 677.63 15.0089C676.903 15.1356 676.366 15.4758 676.017 16.0293C675.668 16.5828 675.575 17.3239 675.737 18.2525L676.435 22.2521L675.456 22.423L674.142 14.8928L675.121 14.7219L675.434 16.5148C675.507 15.8483 675.755 15.3124 676.177 14.9072C676.606 14.4911 677.138 14.2277 677.773 14.117C678.435 14.0015 679.035 14.0767 679.574 14.3426C680.113 14.6086 680.534 15.0657 680.837 15.714C680.922 15.0075 681.187 14.4354 681.631 13.9978C682.075 13.551 682.618 13.2714 683.262 13.159ZM692.745 18.8168C693.429 18.7188 693.977 18.4658 694.39 18.0577C694.803 17.6497 695.014 17.148 695.023 16.5527L696.048 16.4057C696.025 17.2293 695.735 17.9357 695.178 18.5246C694.622 19.1136 693.863 19.4769 692.902 19.6146C692.181 19.7179 691.517 19.6575 690.91 19.4334C690.311 19.1988 689.812 18.8129 689.415 18.2759C689.016 17.7296 688.759 17.0592 688.646 16.2647C688.532 15.4701 688.59 14.7593 688.821 14.1323C689.05 13.4959 689.42 12.9856 689.931 12.6013C690.449 12.2064 691.069 11.9573 691.789 11.854C692.529 11.748 693.189 11.8137 693.769 12.051C694.358 12.2778 694.828 12.63 695.18 13.1076C695.54 13.5839 695.764 14.127 695.852 14.7367C695.889 14.9954 695.904 15.2337 695.898 15.4515L689.634 16.3494C689.734 16.9855 689.94 17.5028 690.252 17.9013C690.572 18.2892 690.949 18.5557 691.385 18.7006C691.821 18.8456 692.274 18.8844 692.745 18.8168ZM691.903 12.6439C691.413 12.7141 690.98 12.8799 690.602 13.1415C690.225 13.403 689.937 13.7648 689.739 14.2269C689.55 14.6784 689.49 15.2196 689.562 15.8505L694.911 15.0837C694.86 14.4594 694.683 13.9519 694.382 13.5614C694.081 13.1708 693.712 12.9031 693.277 12.7581C692.841 12.6131 692.383 12.575 691.903 12.6439ZM696.623 8.9726C696.595 8.76922 696.637 8.59844 696.749 8.46027C696.871 8.32081 697.039 8.23629 697.251 8.20672C697.464 8.17715 697.643 8.21345 697.789 8.31563C697.936 8.41781 698.023 8.57058 698.051 8.77396C698.078 8.96809 698.035 9.13424 697.922 9.27242C697.81 9.4106 697.647 9.49447 697.434 9.52404C697.222 9.55361 697.038 9.51795 696.882 9.41706C696.736 9.31488 696.65 9.16673 696.623 8.9726ZM698.142 11.0512L699.195 18.6223L698.21 18.7592L697.157 11.1881L698.142 11.0512ZM701.595 12.2189C701.755 11.6463 702.063 11.1833 702.52 10.8301C702.978 10.4768 703.559 10.2597 704.263 10.1786L704.385 11.2356L704.065 11.2724C703.333 11.3567 702.748 11.6259 702.312 12.0801C701.875 12.525 701.707 13.1925 701.81 14.0826L702.288 18.2412L701.301 18.3548L700.427 10.7609L701.414 10.6473L701.595 12.2189ZM709.066 9.70597C709.79 9.6287 710.452 9.71763 711.052 9.97275C711.66 10.2176 712.158 10.6197 712.546 11.179C712.933 11.729 713.169 12.403 713.255 13.2012C713.34 13.9993 713.251 14.708 712.989 15.3274C712.726 15.9467 712.324 16.4449 711.783 16.8218C711.25 17.1978 710.622 17.4244 709.898 17.5017C709.174 17.579 708.508 17.4905 707.899 17.2364C707.29 16.9823 706.787 16.5807 706.39 16.0317C706.002 15.4724 705.766 14.7983 705.682 14.0095C705.596 13.2113 705.685 12.5026 705.947 11.8832C706.218 11.2536 706.625 10.755 707.168 10.3873C707.709 10.0103 708.342 9.78323 709.066 9.70597ZM709.157 10.5551C708.656 10.6086 708.203 10.7695 707.8 11.0378C707.397 11.3061 707.09 11.6862 706.88 12.1779C706.669 12.6604 706.599 13.2358 706.67 13.904C706.741 14.5722 706.931 15.1198 707.24 15.5468C707.548 15.9738 707.928 16.2759 708.378 16.4531C708.829 16.6302 709.305 16.6921 709.806 16.6386C710.298 16.5861 710.741 16.4262 711.135 16.1589C711.538 15.8906 711.845 15.5152 712.056 15.0327C712.268 14.5502 712.338 13.9749 712.266 13.3067C712.195 12.6385 712.005 12.0908 711.697 11.6638C711.387 11.2275 711.007 10.9208 710.557 10.7436C710.115 10.5655 709.649 10.5026 709.157 10.5551ZM722.307 15.5881C722.996 15.5391 723.561 15.3258 724.002 14.9482C724.443 14.5706 724.689 14.0852 724.74 13.4921L725.773 13.4185C725.691 14.2384 725.352 14.9222 724.755 15.47C724.157 16.0178 723.375 16.3262 722.406 16.3951C721.68 16.4468 721.022 16.3392 720.432 16.0724C719.851 15.7957 719.382 15.3753 719.023 14.8113C718.664 14.238 718.456 13.551 718.399 12.7504C718.342 11.9498 718.451 11.2449 718.726 10.6359C719 10.0175 719.406 9.53484 719.942 9.18786C720.488 8.8309 721.123 8.62657 721.85 8.57488C722.594 8.52187 723.248 8.63441 723.811 8.9125C724.382 9.18062 724.825 9.56542 725.142 10.0669C725.468 10.5677 725.652 11.1253 725.696 11.7398C725.715 12.0004 725.713 12.2392 725.691 12.4559L719.379 12.9052C719.434 13.547 719.603 14.0776 719.885 14.4973C720.176 14.907 720.534 15.1997 720.958 15.3753C721.382 15.551 721.832 15.6219 722.307 15.5881ZM721.906 9.37087C721.413 9.40599 720.969 9.54054 720.574 9.77451C720.179 10.0085 719.866 10.3489 719.636 10.7957C719.414 11.2325 719.317 11.7681 719.343 12.4025L724.733 12.0188C724.726 11.3924 724.586 10.8737 724.314 10.4627C724.041 10.0517 723.693 9.75832 723.269 9.58266C722.845 9.40701 722.39 9.33641 721.906 9.37087ZM737.712 7.89235L737.986 15.5315L737.006 15.5665L736.939 13.6777C736.766 14.3469 736.43 14.8633 735.929 15.2267C735.429 15.5902 734.847 15.7837 734.185 15.8074C733.29 15.8394 732.552 15.5856 731.972 15.046C731.402 14.4967 731.097 13.6764 731.058 12.5851L730.899 8.1359L731.878 8.10089L732.034 12.4661C732.064 13.3056 732.297 13.9417 732.733 14.3744C733.168 14.7978 733.75 14.9964 734.477 14.9704C735.242 14.9431 735.84 14.6789 736.27 14.1779C736.709 13.6672 736.912 12.9362 736.878 11.9848L736.733 7.92736L737.712 7.89235ZM736.609 5.62033L733.801 7.41577L733.775 6.68824L736.579 4.79486L736.609 5.62033ZM743.867 7.65866C744.754 7.64945 745.476 7.92664 746.032 8.49023C746.598 9.04438 746.887 9.86743 746.898 10.9594L746.944 15.4111L745.978 15.4212L745.933 11.0394C745.924 10.2088 745.707 9.57632 745.283 9.14204C744.858 8.69843 744.282 8.4804 743.554 8.48796C742.789 8.49591 742.18 8.74958 741.728 9.24896C741.285 9.73892 741.068 10.4599 741.078 11.4118L741.12 15.4716L740.127 15.4819L740.047 7.83834L741.041 7.82802L741.061 9.70392C741.25 9.04858 741.599 8.5456 742.109 8.19495C742.619 7.8443 743.205 7.66554 743.867 7.65866ZM748.908 5.49951C748.91 5.29419 748.978 5.13166 749.11 5.0119C749.251 4.89226 749.429 4.83373 749.644 4.83631C749.859 4.83889 750.03 4.90163 750.16 5.02452C750.289 5.14742 750.352 5.31153 750.35 5.51685C750.347 5.71283 750.28 5.8707 750.148 5.99045C750.016 6.11021 749.843 6.16879 749.628 6.16621C749.413 6.16363 749.237 6.10084 749.098 5.97783C748.969 5.85494 748.905 5.6955 748.908 5.49951ZM750.098 7.78199L750.007 15.4254L749.013 15.4135L749.105 7.77004L750.098 7.78199ZM755.716 7.82188C756.686 7.84872 757.481 8.12749 758.102 8.65818C758.731 9.18913 759.104 9.88105 759.221 10.7339L758.199 10.7057C758.113 10.0964 757.842 9.6127 757.385 9.25459C756.928 8.88715 756.359 8.69401 755.678 8.67516C755.184 8.66148 754.724 8.76079 754.298 8.97309C753.881 9.18564 753.54 9.52168 753.275 9.9812C753.02 10.4316 752.883 10.9927 752.865 11.6645C752.846 12.3362 752.952 12.9087 753.181 13.3819C753.42 13.846 753.742 14.1957 754.147 14.431C754.56 14.6665 755.014 14.7911 755.509 14.8048C756.19 14.8237 756.768 14.6669 757.244 14.3346C757.721 13.993 758.019 13.5204 758.138 12.9168L759.16 12.9451C758.996 13.7902 758.585 14.4604 757.927 14.9558C757.279 15.4514 756.469 15.6857 755.499 15.6589C754.771 15.6387 754.127 15.4669 753.567 15.1432C753.016 14.8105 752.59 14.3459 752.289 13.7494C751.988 13.1435 751.849 12.4393 751.871 11.637C751.893 10.8346 752.071 10.144 752.404 9.56495C752.738 8.97663 753.189 8.53626 753.758 8.24387C754.335 7.94241 754.988 7.80174 755.716 7.82188ZM764.736 8.20516C765.463 8.24627 766.102 8.44132 766.652 8.7903C767.213 9.13049 767.639 9.608 767.932 10.2228C768.224 10.8283 768.348 11.5318 768.303 12.3332C768.258 13.1346 768.055 13.8196 767.696 14.3882C767.337 14.9568 766.859 15.3832 766.263 15.6673C765.677 15.952 765.02 16.0738 764.294 16.0326C763.567 15.9915 762.923 15.7962 762.364 15.4467C761.804 15.0972 761.373 14.6194 761.071 14.0134C760.778 13.3986 760.654 12.6951 760.699 11.903C760.744 11.1017 760.947 10.4167 761.306 9.84805C761.675 9.27064 762.157 8.84453 762.753 8.5697C763.348 8.28555 764.01 8.16404 764.736 8.20516ZM764.688 9.05779C764.185 9.02933 763.713 9.11479 763.271 9.31419C762.83 9.51358 762.466 9.83886 762.179 10.29C761.892 10.7319 761.729 11.2883 761.692 11.9592C761.654 12.6301 761.752 13.2013 761.987 13.6726C762.222 14.144 762.548 14.5036 762.964 14.7515C763.38 14.9994 763.839 15.1376 764.343 15.166C764.837 15.194 765.299 15.108 765.731 14.9081C766.173 14.7087 766.537 14.388 766.823 13.9462C767.11 13.5043 767.273 12.948 767.311 12.277C767.348 11.6061 767.25 11.035 767.015 10.5636C766.78 10.0829 766.455 9.71863 766.039 9.47074C765.632 9.22338 765.182 9.08573 764.688 9.05779ZM779.376 14.7757L774.906 14.3175L773.769 16.6215L772.724 16.5145L777.329 7.28992L778.429 7.40269L781.067 17.3696L780.008 17.2611L779.376 14.7757ZM779.164 13.9658L777.771 8.47511L775.264 13.5661L779.164 13.9658ZM791.196 13.7695C791.057 14.7772 790.737 15.6235 790.237 16.3082C789.739 16.9837 789.074 17.4665 788.242 17.7568C787.421 18.039 786.465 18.1048 785.374 17.9541L782.421 17.5459L783.771 7.76882L786.725 8.17696C788.371 8.40435 789.578 9.0139 790.345 10.0056C791.123 10.9894 791.407 12.244 791.196 13.7695ZM785.426 17.0708C786.803 17.2611 787.901 17.0548 788.72 16.4518C789.539 15.8395 790.036 14.9001 790.211 13.6334C790.386 12.3668 790.162 11.3323 789.538 10.53C788.915 9.7185 787.915 9.21755 786.537 9.02721L784.637 8.7647L783.526 16.8083L785.426 17.0708ZM798.321 9.90932C799.487 10.119 800.401 10.5771 801.061 11.2836C801.722 11.981 802.12 12.8538 802.254 13.9021L801.235 13.7188C801.103 12.9744 800.776 12.3419 800.253 11.8212C799.73 11.3006 799.028 10.961 798.146 10.8025C797.475 10.682 796.835 10.7376 796.224 10.9692C795.623 11.2025 795.11 11.5988 794.688 12.1582C794.265 12.7175 793.98 13.406 793.833 14.2236C793.686 15.0411 793.713 15.7857 793.915 16.4573C794.118 17.1197 794.461 17.665 794.944 18.0931C795.436 18.5228 796.017 18.798 796.687 18.9185C797.569 19.077 798.346 19.0032 799.017 18.6971C799.689 18.391 800.216 17.912 800.598 17.2601L801.618 17.4433C801.127 18.3793 800.45 19.0636 799.585 19.4961C798.722 19.9194 797.707 20.0263 796.54 19.8166C795.649 19.6565 794.892 19.3024 794.27 18.7544C793.648 18.2064 793.211 17.5256 792.959 16.7122C792.708 15.8896 792.669 15.0006 792.841 14.0453C793.014 13.0807 793.361 12.2565 793.882 11.5726C794.404 10.8886 795.05 10.4027 795.823 10.1148C796.597 9.81768 797.43 9.74919 798.321 9.90932ZM811.305 14.8828C812.058 15.0637 812.651 15.4125 813.084 15.9291C813.525 16.4479 813.769 17.0535 813.814 17.7458L814.304 15.7038L815.243 15.9293L813.459 23.3621L812.519 23.1365L813.01 21.0946C812.655 21.691 812.163 22.12 811.534 22.3817C810.914 22.6455 810.228 22.687 809.474 22.5062C808.803 22.3449 808.236 22.0457 807.775 21.6086C807.323 21.1736 807.015 20.6343 806.853 19.9907C806.702 19.3401 806.719 18.6291 806.905 17.8577C807.092 17.0772 807.4 16.436 807.827 15.934C808.266 15.4251 808.785 15.084 809.383 14.9109C809.984 14.7288 810.624 14.7194 811.305 14.8828ZM811.347 15.7857C810.512 15.5852 809.776 15.6917 809.14 16.1051C808.514 16.5116 808.091 17.1732 807.871 18.0898C807.651 19.0064 807.726 19.7924 808.097 20.4477C808.479 21.0961 809.087 21.5205 809.922 21.721C810.448 21.8474 810.95 21.8382 811.426 21.6934C811.911 21.5508 812.325 21.2854 812.668 20.8974C813.022 20.5025 813.27 20.0101 813.412 19.4202C813.553 18.8303 813.555 18.2835 813.417 17.78C813.29 17.2696 813.042 16.8406 812.675 16.4932C812.316 16.1479 811.873 15.9121 811.347 15.7857ZM821.314 17.4534C822.167 17.6952 822.781 18.1651 823.155 18.8631C823.541 19.5546 823.585 20.4256 823.288 21.4762L822.073 25.7594L821.144 25.496L822.339 21.2801C822.566 20.4809 822.537 19.813 822.252 19.2765C821.97 18.7309 821.479 18.3588 820.779 18.1603C820.042 17.9516 819.387 18.0228 818.812 18.374C818.249 18.7187 817.837 19.3491 817.577 20.265L816.47 24.1711L815.514 23.9L817.599 16.5457L818.555 16.8168L818.043 18.6217C818.41 18.0466 818.887 17.6629 819.475 17.4707C820.064 17.2785 820.676 17.2727 821.314 17.4534ZM827.624 26.585L827.36 27.4119L826.493 27.1353C825.791 26.9112 825.319 26.5793 825.077 26.1397C824.838 25.6912 824.845 25.0712 825.097 24.2799L826.463 19.9985L825.356 19.6453L825.616 18.8317L826.723 19.1849L827.31 17.3443L828.257 17.6464L827.67 19.487L829.67 20.1253L829.411 20.9389L827.41 20.3006L826.04 24.5953C825.875 25.111 825.855 25.4965 825.98 25.7517C826.107 25.998 826.406 26.1963 826.877 26.3467L827.624 26.585ZM831.845 18.4541C831.911 18.2595 832.025 18.1255 832.187 18.0523C832.359 17.982 832.546 17.9811 832.749 18.0497C832.953 18.1182 833.097 18.2308 833.182 18.3875C833.267 18.5443 833.277 18.7199 833.211 18.9145C833.149 19.1002 833.036 19.2297 832.874 19.303C832.711 19.3762 832.528 19.3786 832.325 19.3101C832.121 19.2415 831.973 19.1274 831.879 18.9677C831.794 18.811 831.782 18.6398 831.845 18.4541ZM832.275 20.9922L829.834 28.2361L828.892 27.9187L831.333 20.6749L832.275 20.9922ZM837.623 25.1075L837.337 25.8825L832.214 23.9934L832.5 23.2184L837.623 25.1075ZM844.203 28.2686C844.727 28.6142 845.081 29.0668 845.266 29.6263C845.45 30.1859 845.426 30.7507 845.192 31.3208C844.892 32.0551 844.398 32.5486 843.709 32.8014C843.024 33.0456 842.207 32.9732 841.257 32.5844L838.082 31.2854L841.82 22.1506L844.956 23.4337C845.871 23.8084 846.473 24.2967 846.761 24.8987C847.062 25.4956 847.071 26.1395 846.788 26.8306C846.544 27.4266 846.188 27.8406 845.72 28.0726C845.255 28.296 844.75 28.3613 844.203 28.2686ZM841.07 26.6086L843.169 27.4675C843.808 27.7291 844.352 27.7802 844.8 27.6208C845.261 27.4563 845.597 27.1149 845.809 26.5966C846.018 26.087 846.018 25.6182 845.81 25.1901C845.602 24.7621 845.157 24.4085 844.474 24.1293L842.427 23.2915L841.07 26.6086ZM841.419 31.7434C842.102 32.0226 842.697 32.0845 843.204 31.9291C843.715 31.765 844.085 31.4022 844.315 30.8407C844.541 30.2879 844.525 29.7721 844.267 29.2935C844.013 28.8061 843.544 28.4229 842.862 28.1436L840.789 27.2953L839.32 30.8844L841.419 31.7434ZM853.871 27.2769C854.945 27.7793 855.71 28.4568 856.166 29.3092C856.627 30.1532 856.787 31.099 856.647 32.1465L855.709 31.7073C855.773 30.9541 855.619 30.2587 855.248 29.6212C854.876 28.9836 854.285 28.475 853.473 28.0952C852.856 27.8064 852.223 27.6955 851.573 27.7624C850.932 27.8334 850.335 28.0848 849.783 28.5166C849.23 28.9485 848.778 29.5406 848.426 30.293C848.074 31.0454 847.909 31.772 847.931 32.4729C847.957 33.1653 848.149 33.7804 848.505 34.3181C848.87 34.8598 849.361 35.275 849.978 35.5638C850.789 35.9436 851.559 36.0719 852.286 35.9486C853.014 35.8253 853.646 35.4978 854.184 34.9661L855.122 35.4053C854.407 36.1837 853.577 36.6709 852.63 36.8666C851.687 37.0539 850.679 36.8964 849.605 36.394C848.785 36.0102 848.145 35.4736 847.684 34.7841C847.224 34.0946 846.976 33.3244 846.942 32.4735C846.911 31.6142 847.101 30.7449 847.513 29.8657C847.928 28.9781 848.476 28.2708 849.155 27.7438C849.834 27.2167 850.584 26.9134 851.405 26.8336C852.229 26.7454 853.051 26.8932 853.871 27.2769ZM868.388 35.1081L863.793 43.6054L862.931 43.1393L866.78 36.0212L859.988 41.5478L859.212 41.1283L860.092 32.4367L856.256 39.5302L855.382 39.0574L859.977 30.56L860.999 31.1127L860.185 40.27L867.378 34.562L868.388 35.1081ZM871.759 45.6151L867.933 43.257L865.907 44.8367L865.013 44.2857L873.173 37.9844L874.115 38.5648L872.152 48.6861L871.246 48.1278L871.759 45.6151ZM871.92 44.7935L873.055 39.2436L868.583 42.7365L871.92 44.7935ZM883.429 47.0861C884.058 47.5386 884.475 48.0858 884.68 48.7277C884.892 49.3751 884.888 50.0277 884.668 50.6856L885.894 48.981L886.678 49.5453L882.213 55.7497L881.429 55.1855L882.656 53.481C882.102 53.8989 881.485 54.1099 880.803 54.114C880.13 54.1236 879.478 53.9021 878.849 53.4496C878.289 53.0462 877.878 52.5549 877.616 51.9757C877.362 51.4019 877.282 50.7864 877.375 50.1292C877.482 49.4699 877.767 48.8183 878.23 48.1744C878.699 47.5229 879.226 47.0457 879.812 46.7429C880.411 46.438 881.02 46.3186 881.64 46.3848C882.264 46.4435 882.861 46.6772 883.429 47.0861ZM883.126 47.9378C882.429 47.4363 881.708 47.2563 880.962 47.398C880.229 47.5375 879.588 47.9899 879.037 48.755C878.486 49.5202 878.259 50.2761 878.354 51.0229C878.462 51.7676 878.864 52.3907 879.561 52.8923C880 53.2085 880.468 53.3897 880.964 53.4359C881.467 53.4876 881.951 53.3987 882.415 53.1693C882.892 52.9377 883.308 52.5757 883.662 52.0833C884.016 51.5908 884.225 51.0854 884.287 50.567C884.363 50.0465 884.296 49.5559 884.087 49.0951C883.886 48.6398 883.566 48.254 883.126 47.9378ZM891.939 53.557C892.484 53.9951 892.866 54.5045 893.082 55.085C893.311 55.664 893.355 56.28 893.214 56.9327C893.086 57.5841 892.771 58.2227 892.269 58.8487C891.772 59.4673 891.217 59.9132 890.603 60.1862C890.002 60.4578 889.391 60.5479 888.77 60.4565C888.149 60.3651 887.569 60.1032 887.031 59.6709C886.419 59.1801 886.028 58.6088 885.857 57.9569C885.686 57.3051 885.728 56.6565 885.983 56.0112L882.407 60.4656L881.643 59.8522L888.689 51.0744L889.454 51.6878L888.139 53.3255C888.714 52.9372 889.338 52.7561 890.011 52.782C890.685 52.8079 891.327 53.0662 891.939 53.557ZM891.188 54.0673C890.766 53.7285 890.305 53.52 889.805 53.4419C889.312 53.3697 888.825 53.4396 888.344 53.6516C887.868 53.8563 887.441 54.1952 887.061 54.6683C886.681 55.1414 886.44 55.6359 886.337 56.1517C886.24 56.6603 886.28 57.1472 886.457 57.6125C886.641 58.0836 886.945 58.4886 887.367 58.8275C888.044 59.3708 888.752 59.5921 889.491 59.4913C890.236 59.3832 890.904 58.9616 891.494 58.2264C892.084 57.4913 892.348 56.752 892.287 56.0085C892.231 55.2578 891.865 54.6107 891.188 54.0673ZM895.952 59.0443C896.482 58.776 897.032 58.6917 897.602 58.7912C898.171 58.8907 898.723 59.1734 899.258 59.6391L898.559 60.4416L898.316 60.2302C897.76 59.7461 897.167 59.496 896.538 59.4801C895.914 59.4571 895.308 59.7835 894.72 60.4593L891.972 63.6165L891.222 62.9639L896.241 57.1984L896.991 57.8511L895.952 59.0443ZM902.932 63.1463C903.461 63.6464 903.823 64.2072 904.019 64.8289C904.228 65.4502 904.246 66.0901 904.073 66.7486C903.907 67.4004 903.548 68.0179 902.997 68.6013C902.445 69.1847 901.849 69.5779 901.208 69.7809C900.566 69.9839 899.927 70.0019 899.288 69.8351C898.656 69.6747 898.076 69.3445 897.547 68.8445C897.018 68.3444 896.652 67.7804 896.449 67.1523C896.247 66.5242 896.225 65.8811 896.385 65.2229C896.558 64.5644 896.916 63.9469 897.461 63.3703C898.013 62.7869 898.609 62.3937 899.25 62.1907C899.905 61.9874 900.548 61.9725 901.18 62.1461C901.819 62.3129 902.403 62.6463 902.932 63.1463ZM902.345 63.767C901.979 63.4209 901.563 63.1817 901.097 63.0497C900.631 62.9176 900.143 62.9314 899.632 63.091C899.128 63.2439 898.645 63.5646 898.184 64.053C897.722 64.5414 897.429 65.0416 897.305 65.5535C897.181 66.0653 897.198 66.5501 897.356 67.0078C897.514 67.4655 897.777 67.8674 898.143 68.2136C898.502 68.5534 898.912 68.7861 899.371 68.9118C899.837 69.0438 900.322 69.0334 900.826 68.8805C901.33 68.7276 901.813 68.407 902.274 67.9186C902.736 67.4302 903.029 66.93 903.153 66.4181C903.283 65.8995 903.27 65.4113 903.111 64.9536C902.96 64.5023 902.705 64.1068 902.345 63.767ZM904.373 73.8889L910.857 71.195L911.596 71.9609L903.956 75.0497L903.178 74.2434L906.543 66.7204L907.281 67.4863L904.373 73.8889ZM914.9 75.5474C915.411 76.1297 915.694 76.7566 915.75 77.4282C915.811 78.1068 915.661 78.7418 915.298 79.3332L916.876 77.948L917.514 78.674L911.768 83.7163L911.131 82.9903L912.71 81.605C912.076 81.8878 911.427 81.9547 910.762 81.8055C910.103 81.6634 909.518 81.3012 909.007 80.719C908.552 80.1999 908.262 79.6288 908.137 79.0056C908.018 78.3894 908.078 77.7716 908.317 77.1523C908.569 76.5338 908.993 75.9629 909.589 75.4396C910.193 74.9101 910.814 74.5636 911.453 74.4003C912.105 74.2377 912.725 74.2583 913.314 74.462C913.909 74.6595 914.438 75.0213 914.9 75.5474ZM914.414 76.3094C913.847 75.664 913.185 75.3266 912.426 75.297C911.681 75.2683 910.954 75.5648 910.245 76.1866C909.537 76.8084 909.145 77.4939 909.07 78.2429C909.007 78.9928 909.26 79.6905 909.826 80.3358C910.183 80.7427 910.598 81.0243 911.071 81.1808C911.549 81.3443 912.041 81.3664 912.544 81.2471C913.061 81.1286 913.548 80.8693 914.004 80.4691C914.46 80.069 914.776 79.6233 914.954 79.1323C915.145 78.642 915.19 78.149 915.09 77.653C914.996 77.1641 914.771 76.7163 914.414 76.3094ZM921.2 83.0818C921.679 83.6901 921.929 84.331 921.949 85.0045C921.975 85.6854 921.789 86.308 921.39 86.8723L925.171 83.8896L925.778 84.659L917.644 91.0753L917.037 90.3059L918.686 89.0053C918.044 89.2618 917.396 89.2982 916.739 89.1144C916.089 88.938 915.524 88.5456 915.044 87.9374C914.616 87.3952 914.357 86.8096 914.265 86.1807C914.179 85.5592 914.271 84.9454 914.542 84.3394C914.826 83.735 915.279 83.1871 915.902 82.6957C916.532 82.1986 917.171 81.8852 917.817 81.7555C918.477 81.6274 919.096 81.6805 919.673 81.9147C920.257 82.1432 920.766 82.5323 921.2 83.0818ZM920.674 83.8173C920.142 83.1431 919.498 82.7714 918.742 82.7021C917.999 82.6343 917.258 82.8923 916.518 83.4762C915.778 84.06 915.35 84.7239 915.236 85.468C915.135 86.2136 915.35 86.9235 915.882 87.5977C916.217 88.0227 916.617 88.3257 917.08 88.5067C917.55 88.6951 918.039 88.7429 918.549 88.6502C919.071 88.559 919.57 88.3255 920.047 87.9498C920.523 87.5741 920.863 87.1457 921.066 86.6646C921.282 86.185 921.353 85.695 921.279 85.1945C921.211 84.7014 921.009 84.2423 920.674 83.8173ZM927.232 91.1224C927.653 91.7165 927.899 92.3375 927.969 92.9855C928.052 93.6357 927.945 94.2668 927.646 94.8786C927.355 95.4851 926.882 96.0203 926.227 96.4843C925.572 96.9483 924.91 97.217 924.242 97.2903C923.573 97.3637 922.942 97.256 922.349 96.9672C921.76 96.6861 921.256 96.2485 920.835 95.6545C920.414 95.0605 920.166 94.4356 920.091 93.78C920.015 93.1244 920.12 92.4895 920.406 91.8755C920.704 91.2636 921.177 90.7284 921.824 90.2698C922.479 89.8058 923.141 89.5371 923.81 89.4637C924.491 89.3926 925.125 89.5041 925.711 89.7982C926.305 90.087 926.812 90.5284 927.232 91.1224ZM926.536 91.6161C926.244 91.2048 925.883 90.8888 925.452 90.6679C925.021 90.4471 924.54 90.3649 924.008 90.4215C923.484 90.4726 922.947 90.6924 922.399 91.0809C921.851 91.4693 921.465 91.9024 921.243 92.38C921.021 92.8576 920.943 93.3363 921.008 93.8161C921.074 94.2959 921.252 94.7415 921.543 95.1527C921.829 95.5564 922.185 95.8648 922.611 96.078C923.042 96.2989 923.519 96.3837 924.044 96.3326C924.568 96.2815 925.104 96.0617 925.652 95.6732C926.201 95.2848 926.586 94.8517 926.808 94.3741C927.038 93.8911 927.12 93.4097 927.055 92.9299C926.995 92.4577 926.822 92.0197 926.536 91.6161ZM934.795 102.687C935.158 103.285 935.342 103.894 935.347 104.513C935.364 105.136 935.195 105.73 934.84 106.295C934.497 106.864 933.982 107.356 933.296 107.772C932.618 108.184 931.944 108.413 931.273 108.46C930.615 108.51 930.011 108.386 929.458 108.087C928.906 107.789 928.451 107.345 928.093 106.755C927.686 106.084 927.514 105.414 927.576 104.743C927.638 104.072 927.899 103.477 928.359 102.957L923.476 105.921L922.968 105.083L932.59 99.2429L933.098 100.081L931.303 101.17C931.976 101.002 932.625 101.045 933.249 101.3C933.872 101.554 934.388 102.016 934.795 102.687ZM933.915 102.91C933.634 102.447 933.272 102.093 932.829 101.849C932.391 101.613 931.909 101.512 931.384 101.547C930.867 101.577 930.35 101.749 929.831 102.064C929.312 102.379 928.917 102.761 928.644 103.21C928.379 103.655 928.25 104.126 928.257 104.624C928.269 105.13 928.416 105.614 928.697 106.077C929.147 106.819 929.737 107.269 930.466 107.427C931.203 107.58 931.974 107.412 932.78 106.923C933.586 106.434 934.087 105.829 934.284 105.11C934.488 104.385 934.365 103.652 933.915 102.91ZM939.238 110.446C939.606 111.127 939.741 111.802 939.645 112.469C939.553 113.144 939.265 113.729 938.779 114.225L940.627 113.228L941.086 114.078L934.358 117.707L933.9 116.857L935.748 115.86C935.067 115.994 934.419 115.914 933.805 115.619C933.195 115.334 932.706 114.85 932.338 114.168C932.01 113.56 931.855 112.938 931.873 112.303C931.895 111.676 932.092 111.087 932.463 110.537C932.847 109.991 933.388 109.529 934.086 109.152C934.793 108.771 935.476 108.573 936.135 108.556C936.807 108.544 937.407 108.703 937.935 109.033C938.471 109.359 938.906 109.83 939.238 110.446ZM938.594 111.08C938.186 110.324 937.616 109.847 936.883 109.648C936.163 109.453 935.388 109.58 934.558 110.027C933.729 110.475 933.193 111.055 932.952 111.768C932.724 112.485 932.814 113.222 933.221 113.978C933.478 114.454 933.82 114.821 934.245 115.08C934.675 115.346 935.149 115.477 935.667 115.474C936.197 115.474 936.729 115.33 937.263 115.042C937.797 114.754 938.206 114.391 938.489 113.952C938.784 113.517 938.939 113.046 938.952 112.54C938.97 112.043 938.851 111.556 938.594 111.08ZM941.21 117.814C941.803 117.772 942.343 117.907 942.829 118.219C943.315 118.531 943.715 119.006 944.028 119.642L943.073 120.112L942.931 119.823C942.605 119.161 942.156 118.701 941.581 118.442C941.015 118.18 940.33 118.246 939.526 118.641L935.77 120.487L935.331 119.595L942.191 116.224L942.63 117.116L941.21 117.814ZM945.962 124.063C946.276 124.771 946.36 125.454 946.213 126.111C946.07 126.777 945.737 127.339 945.215 127.796L947.134 126.943L947.526 127.826L940.54 130.929L940.148 130.046L942.067 129.194C941.378 129.275 940.739 129.146 940.148 128.805C939.562 128.473 939.111 127.954 938.797 127.246C938.517 126.614 938.41 125.983 938.476 125.351C938.546 124.727 938.788 124.155 939.2 123.635C939.625 123.12 940.199 122.701 940.924 122.379C941.658 122.053 942.354 121.907 943.013 121.941C943.684 121.98 944.27 122.185 944.771 122.554C945.281 122.92 945.678 123.423 945.962 124.063ZM945.271 124.646C944.922 123.861 944.39 123.341 943.675 123.087C942.972 122.838 942.189 122.905 941.328 123.287C940.466 123.67 939.888 124.208 939.593 124.9C939.311 125.598 939.344 126.339 939.692 127.124C939.912 127.618 940.224 128.011 940.629 128.301C941.037 128.599 941.5 128.767 942.016 128.803C942.545 128.844 943.087 128.741 943.641 128.495C944.196 128.248 944.631 127.917 944.946 127.501C945.274 127.09 945.464 126.633 945.516 126.13C945.572 125.635 945.491 125.14 945.271 124.646ZM951.16 136.834C951.412 137.517 951.487 138.18 951.387 138.824C951.298 139.474 951.03 140.055 950.583 140.568C950.144 141.078 949.549 141.472 948.795 141.75C948.042 142.028 947.334 142.116 946.669 142.013C946.004 141.91 945.423 141.642 944.925 141.209C944.43 140.784 944.056 140.231 943.804 139.548C943.552 138.865 943.475 138.197 943.573 137.544C943.67 136.891 943.936 136.306 944.372 135.787C944.819 135.274 945.415 134.88 946.159 134.605C946.912 134.327 947.621 134.24 948.286 134.343C948.962 134.451 949.545 134.723 950.035 135.16C950.533 135.593 950.908 136.151 951.16 136.834ZM950.359 137.129C950.184 136.657 949.917 136.258 949.559 135.932C949.2 135.607 948.756 135.403 948.228 135.319C947.709 135.232 947.134 135.305 946.503 135.538C945.873 135.77 945.388 136.088 945.05 136.492C944.711 136.895 944.511 137.337 944.449 137.818C944.388 138.298 944.444 138.774 944.619 139.247C944.79 139.711 945.053 140.102 945.409 140.418C945.768 140.743 946.207 140.949 946.726 141.036C947.246 141.123 947.821 141.05 948.451 140.818C949.082 140.585 949.566 140.267 949.905 139.863C950.252 139.457 950.457 139.013 950.518 138.533C950.583 138.061 950.53 137.593 950.359 137.129ZM948.781 151.244L947.953 151.503L947.681 150.634C947.461 149.93 947.462 149.353 947.683 148.903C947.913 148.45 948.424 148.099 949.217 147.851L953.506 146.511L953.16 145.402L953.975 145.147L954.322 146.256L956.166 145.68L956.462 146.629L954.618 147.205L955.244 149.209L954.429 149.464L953.803 147.46L949.5 148.804C948.983 148.966 948.656 149.171 948.519 149.419C948.39 149.665 948.4 150.023 948.547 150.496L948.781 151.244ZM954.511 152.333C955.102 152.396 955.61 152.624 956.033 153.017C956.457 153.41 956.766 153.948 956.962 154.629L955.94 154.923L955.851 154.614C955.647 153.905 955.286 153.373 954.766 153.017C954.255 152.659 953.569 152.603 952.708 152.85L948.685 154.006L948.41 153.05L955.757 150.941L956.032 151.896L954.511 152.333ZM958.1 159.274C958.289 160.025 958.254 160.712 957.997 161.335C957.742 161.967 957.319 162.463 956.726 162.824L958.763 162.312L958.998 163.249L951.585 165.113L951.35 164.176L953.386 163.664C952.693 163.627 952.085 163.39 951.562 162.954C951.04 162.527 950.685 161.937 950.496 161.186C950.328 160.516 950.33 159.876 950.504 159.264C950.68 158.662 951.015 158.14 951.51 157.698C952.017 157.262 952.654 156.948 953.424 156.754C954.202 156.558 954.913 156.534 955.556 156.68C956.211 156.833 956.753 157.134 957.184 157.584C957.624 158.032 957.929 158.595 958.1 159.274ZM957.319 159.73C957.11 158.897 956.674 158.295 956.013 157.922C955.363 157.556 954.58 157.488 953.666 157.718C952.752 157.948 952.091 158.379 951.682 159.011C951.284 159.65 951.19 160.386 951.4 161.219C951.532 161.744 951.772 162.184 952.121 162.539C952.473 162.903 952.9 163.146 953.402 163.27C953.917 163.401 954.468 163.392 955.056 163.244C955.644 163.096 956.13 162.844 956.512 162.488C956.905 162.139 957.17 161.721 957.308 161.234C957.448 160.756 957.451 160.255 957.319 159.73ZM953.661 170.388L952.813 170.574L952.619 169.685C952.461 168.964 952.512 168.39 952.772 167.96C953.041 167.529 953.581 167.224 954.392 167.047L958.782 166.087L958.534 164.952L959.368 164.769L959.617 165.904L961.504 165.491L961.716 166.462L959.829 166.875L960.278 168.927L959.443 169.109L958.995 167.058L954.591 168.021C954.062 168.137 953.718 168.312 953.559 168.547C953.41 168.781 953.388 169.139 953.494 169.622L953.661 170.388ZM961.328 173.9C961.47 174.661 961.394 175.345 961.099 175.951C960.805 176.566 960.352 177.035 959.738 177.359L961.802 176.973L961.98 177.923L954.466 179.327L954.288 178.377L956.353 177.991C955.664 177.911 955.071 177.637 954.576 177.17C954.082 176.711 953.763 176.101 953.621 175.34C953.494 174.661 953.536 174.022 953.747 173.422C953.96 172.832 954.327 172.331 954.848 171.92C955.38 171.517 956.036 171.243 956.816 171.097C957.605 170.95 958.316 170.969 958.949 171.154C959.593 171.347 960.116 171.682 960.518 172.157C960.929 172.631 961.199 173.212 961.328 173.9ZM960.521 174.307C960.363 173.463 959.966 172.835 959.328 172.422C958.702 172.017 957.925 171.901 956.999 172.074C956.072 172.247 955.385 172.637 954.938 173.242C954.502 173.856 954.363 174.584 954.521 175.428C954.62 175.96 954.833 176.414 955.16 176.79C955.488 177.175 955.899 177.445 956.393 177.599C956.898 177.761 957.449 177.787 958.045 177.675C958.642 177.564 959.142 177.342 959.545 177.01C959.959 176.686 960.25 176.285 960.417 175.808C960.586 175.339 960.62 174.839 960.521 174.307ZM963.794 189.547C963.914 190.416 963.73 191.158 963.24 191.772C962.761 192.395 961.981 192.781 960.899 192.931L956.49 193.544L956.355 192.573L960.695 191.97C961.509 191.857 962.105 191.572 962.485 191.114C962.865 190.665 963.008 190.099 962.913 189.415C962.812 188.685 962.49 188.136 961.949 187.768C961.408 187.4 960.671 187.281 959.737 187.411L955.716 187.969L955.583 187.012L959.923 186.41C960.737 186.297 961.333 186.011 961.713 185.553C962.093 185.105 962.236 184.538 962.141 183.854C962.04 183.124 961.718 182.575 961.177 182.207C960.636 181.839 959.899 181.72 958.965 181.85L954.944 182.408L954.807 181.424L962.378 180.373L962.515 181.357L960.712 181.607C961.376 181.704 961.903 181.97 962.293 182.406C962.694 182.849 962.939 183.39 963.027 184.028C963.12 184.694 963.024 185.291 962.739 185.821C962.455 186.35 961.983 186.755 961.325 187.035C962.028 187.144 962.59 187.429 963.012 187.889C963.443 188.347 963.704 188.9 963.794 189.547ZM957.753 198.842C957.819 199.53 958.045 200.089 958.433 200.521C958.821 200.953 959.312 201.188 959.906 201.225L960.004 202.257C959.183 202.194 958.491 201.871 957.929 201.286C957.367 200.702 957.041 199.927 956.949 198.961C956.88 198.236 956.972 197.576 957.225 196.98C957.488 196.392 957.897 195.913 958.453 195.541C959.017 195.169 959.699 194.945 960.498 194.869C961.297 194.793 962.005 194.885 962.62 195.146C963.245 195.405 963.737 195.799 964.096 196.328C964.466 196.864 964.685 197.495 964.754 198.22C964.824 198.963 964.727 199.619 964.463 200.188C964.208 200.765 963.834 201.218 963.34 201.546C962.847 201.884 962.294 202.082 961.681 202.14C961.42 202.165 961.182 202.168 960.964 202.152L960.367 195.852C959.726 195.922 959.2 196.103 958.787 196.396C958.384 196.696 958.1 197.061 957.934 197.489C957.769 197.917 957.708 198.368 957.753 198.842ZM963.959 198.295C963.913 197.803 963.768 197.362 963.525 196.972C963.281 196.583 962.934 196.279 962.482 196.059C962.04 195.848 961.502 195.763 960.868 195.804L961.379 201.184C962.005 201.162 962.52 201.01 962.925 200.728C963.329 200.446 963.614 200.091 963.78 199.662C963.945 199.234 964.005 198.778 963.959 198.295ZM965.533 207.624C965.59 208.509 965.351 209.244 964.818 209.83C964.295 210.425 963.489 210.757 962.399 210.826L957.956 211.11L957.894 210.146L962.268 209.867C963.097 209.814 963.717 209.564 964.128 209.117C964.548 208.669 964.735 208.082 964.689 207.355C964.64 206.592 964.354 205.997 963.831 205.572C963.318 205.156 962.587 204.978 961.637 205.039L957.585 205.298L957.522 204.306L965.15 203.819L965.214 204.811L963.341 204.93C964.006 205.084 964.527 205.406 964.904 205.897C965.281 206.387 965.491 206.963 965.533 207.624ZM959.072 216.609L958.205 216.644L958.168 215.735C958.138 214.998 958.288 214.441 958.618 214.063C958.957 213.685 959.542 213.479 960.372 213.445L964.862 213.262L964.815 212.101L965.668 212.066L965.716 213.228L967.646 213.149L967.687 214.142L965.756 214.221L965.842 216.319L964.988 216.354L964.903 214.255L960.399 214.439C959.858 214.461 959.489 214.574 959.292 214.778C959.104 214.982 959.02 215.331 959.04 215.825L959.072 216.609ZM966.048 221.578C966.061 222.306 965.914 222.957 965.606 223.532C965.309 224.116 964.864 224.577 964.273 224.914C963.691 225.251 962.998 225.426 962.196 225.441C961.393 225.455 960.695 225.304 960.101 224.988C959.508 224.671 959.047 224.227 958.72 223.654C958.392 223.09 958.222 222.445 958.209 221.717C958.196 220.989 958.343 220.333 958.65 219.749C958.957 219.164 959.402 218.699 959.984 218.353C960.575 218.016 961.268 217.84 962.061 217.826C962.863 217.812 963.561 217.963 964.155 218.279C964.758 218.604 965.219 219.053 965.537 219.627C965.865 220.2 966.035 220.85 966.048 221.578ZM965.194 221.593C965.185 221.089 965.065 220.624 964.833 220.199C964.602 219.774 964.25 219.435 963.779 219.182C963.317 218.928 962.75 218.808 962.078 218.82C961.407 218.832 960.844 218.972 960.392 219.242C959.939 219.511 959.604 219.862 959.388 220.296C959.172 220.729 959.068 221.197 959.077 221.701C959.086 222.196 959.206 222.651 959.437 223.067C959.669 223.492 960.016 223.832 960.477 224.085C960.939 224.338 961.506 224.459 962.178 224.447C962.85 224.435 963.412 224.294 963.865 224.025C964.327 223.755 964.666 223.404 964.882 222.971C965.099 222.547 965.203 222.088 965.194 221.593ZM966.016 234.312C965.997 235.086 965.78 235.739 965.366 236.27C964.951 236.811 964.41 237.171 963.743 237.351L968.557 237.47L968.533 238.449L958.176 238.194L958.2 237.214L960.3 237.266C959.642 237.053 959.119 236.667 958.732 236.107C958.344 235.556 958.16 234.893 958.179 234.118C958.196 233.428 958.37 232.811 958.7 232.269C959.031 231.735 959.494 231.322 960.09 231.029C960.694 230.745 961.393 230.613 962.186 230.632C962.988 230.652 963.68 230.818 964.26 231.132C964.85 231.454 965.292 231.89 965.586 232.439C965.89 232.988 966.034 233.612 966.016 234.312ZM965.142 234.542C965.164 233.684 964.905 232.987 964.368 232.451C963.839 231.924 963.104 231.649 962.161 231.626C961.219 231.603 960.466 231.841 959.903 232.34C959.349 232.85 959.061 233.533 959.04 234.392C959.027 234.933 959.141 235.421 959.382 235.857C959.623 236.301 959.969 236.651 960.421 236.905C960.881 237.168 961.414 237.307 962.021 237.322C962.627 237.337 963.162 237.224 963.626 236.984C964.098 236.753 964.466 236.421 964.729 235.989C964.991 235.566 965.129 235.084 965.142 234.542ZM965.666 244.142C965.631 244.87 965.442 245.51 965.097 246.063C964.762 246.627 964.288 247.057 963.676 247.355C963.073 247.653 962.371 247.783 961.569 247.744C960.767 247.706 960.08 247.509 959.509 247.155C958.937 246.8 958.507 246.326 958.217 245.733C957.928 245.149 957.8 244.494 957.835 243.767C957.87 243.039 958.06 242.394 958.405 241.832C958.749 241.269 959.223 240.834 959.827 240.526C960.439 240.229 961.142 240.099 961.934 240.137C962.736 240.175 963.422 240.372 963.994 240.726C964.575 241.091 965.005 241.569 965.285 242.162C965.574 242.755 965.701 243.415 965.666 244.142ZM964.813 244.101C964.837 243.598 964.748 243.127 964.545 242.687C964.342 242.247 964.013 241.886 963.56 241.602C963.115 241.32 962.558 241.162 961.886 241.13C961.215 241.098 960.645 241.201 960.175 241.44C959.706 241.679 959.349 242.008 959.105 242.426C958.861 242.844 958.726 243.305 958.702 243.808C958.678 244.302 958.768 244.764 958.972 245.195C959.175 245.634 959.499 245.996 959.943 246.278C960.387 246.561 960.945 246.719 961.616 246.751C962.288 246.783 962.858 246.68 963.327 246.441C963.806 246.202 964.167 245.874 964.412 245.456C964.656 245.047 964.789 244.596 964.813 244.101ZM964.324 262.879C964.246 263.753 963.9 264.434 963.285 264.923C962.678 265.422 961.831 265.623 960.743 265.526L956.309 265.13L956.396 264.154L960.76 264.543C961.578 264.616 962.224 264.472 962.696 264.112C963.168 263.76 963.435 263.24 963.496 262.552C963.562 261.818 963.372 261.211 962.928 260.731C962.483 260.251 961.792 259.969 960.853 259.885L956.809 259.524L956.895 258.562L961.259 258.951C962.077 259.024 962.723 258.881 963.195 258.52C963.667 258.168 963.934 257.649 963.995 256.961C964.061 256.226 963.871 255.619 963.427 255.139C962.982 254.659 962.291 254.377 961.352 254.293L957.308 253.932L957.396 252.942L965.01 253.622L964.921 254.612L963.109 254.45C963.733 254.693 964.187 255.071 964.469 255.583C964.76 256.106 964.877 256.688 964.82 257.329C964.76 257.999 964.532 258.559 964.135 259.011C963.739 259.463 963.189 259.751 962.484 259.876C963.144 260.141 963.628 260.545 963.936 261.088C964.253 261.631 964.382 262.229 964.324 262.879ZM965.966 268.114C966.17 268.138 966.325 268.222 966.43 268.366C966.535 268.519 966.574 268.703 966.549 268.916C966.524 269.129 966.444 269.293 966.308 269.409C966.172 269.525 966.002 269.571 965.798 269.547C965.604 269.524 965.454 269.44 965.349 269.297C965.243 269.153 965.203 268.974 965.228 268.761C965.253 268.548 965.334 268.379 965.471 268.254C965.607 268.138 965.772 268.092 965.966 268.114ZM963.572 269.06L955.98 268.169L956.096 267.182L963.688 268.073L963.572 269.06ZM956.015 273.672C955.929 274.357 956.028 274.953 956.312 275.459C956.597 275.965 957.025 276.302 957.596 276.468L957.467 277.496C956.679 277.255 956.074 276.789 955.654 276.096C955.233 275.403 955.083 274.575 955.205 273.612C955.296 272.89 955.529 272.266 955.906 271.739C956.291 271.223 956.795 270.845 957.418 270.603C958.05 270.363 958.765 270.293 959.561 270.394C960.358 270.494 961.028 270.738 961.571 271.127C962.124 271.516 962.519 272.008 962.754 272.602C962.998 273.207 963.074 273.87 962.983 274.593C962.89 275.333 962.652 275.952 962.269 276.45C961.895 276.958 961.431 277.318 960.877 277.53C960.322 277.752 959.739 277.824 959.128 277.747C958.869 277.715 958.635 277.666 958.427 277.602L959.218 271.324C958.578 271.253 958.025 271.315 957.558 271.51C957.099 271.716 956.742 272.009 956.487 272.391C956.232 272.773 956.075 273.2 956.015 273.672ZM962.191 274.493C962.253 274.002 962.208 273.54 962.056 273.107C961.903 272.674 961.63 272.301 961.237 271.988C960.852 271.685 960.346 271.485 959.718 271.387L959.042 276.749C959.658 276.864 960.194 276.828 960.651 276.641C961.107 276.454 961.463 276.169 961.718 275.788C961.973 275.406 962.131 274.974 962.191 274.493ZM964.726 281.408L954.471 279.939L954.612 278.955L964.867 280.424L964.726 281.408ZM961.276 286.645C961.165 287.364 960.908 287.981 960.507 288.495C960.114 289.019 959.597 289.397 958.957 289.628C958.326 289.861 957.613 289.915 956.82 289.792C956.027 289.669 955.365 289.401 954.834 288.988C954.303 288.574 953.926 288.058 953.701 287.437C953.475 286.826 953.418 286.16 953.529 285.441C953.641 284.722 953.898 284.101 954.301 283.577C954.703 283.054 955.221 282.672 955.853 282.43C956.494 282.199 957.206 282.145 957.99 282.266C958.783 282.39 959.445 282.658 959.976 283.071C960.514 283.495 960.892 284.016 961.107 284.635C961.332 285.256 961.388 285.926 961.276 286.645ZM960.433 286.514C960.51 286.016 960.471 285.538 960.316 285.079C960.16 284.62 959.872 284.226 959.451 283.896C959.039 283.568 958.501 283.352 957.837 283.249C957.173 283.145 956.595 283.188 956.103 283.376C955.611 283.564 955.221 283.853 954.934 284.243C954.647 284.632 954.464 285.076 954.387 285.574C954.311 286.063 954.352 286.532 954.508 286.982C954.664 287.44 954.947 287.834 955.359 288.162C955.771 288.491 956.309 288.707 956.973 288.81C957.637 288.913 958.215 288.871 958.707 288.683C959.208 288.496 959.603 288.208 959.89 287.818C960.176 287.437 960.357 287.003 960.433 286.514ZM958.746 301.461C958.589 302.324 958.182 302.971 957.525 303.402C956.876 303.844 956.014 303.967 954.94 303.772L950.559 302.976L950.734 302.011L955.046 302.795C955.854 302.942 956.51 302.857 957.013 302.541C957.515 302.233 957.827 301.74 957.951 301.06C958.083 300.335 957.949 299.713 957.55 299.195C957.151 298.676 956.488 298.333 955.56 298.164L951.565 297.438L951.738 296.488L956.05 297.271C956.858 297.418 957.513 297.333 958.017 297.017C958.518 296.71 958.831 296.216 958.955 295.537C959.086 294.811 958.953 294.189 958.554 293.671C958.155 293.153 957.491 292.809 956.564 292.641L952.569 291.915L952.747 290.937L960.268 292.304L960.09 293.281L958.299 292.956C958.9 293.255 959.317 293.672 959.552 294.208C959.794 294.755 959.857 295.345 959.742 295.979C959.622 296.64 959.344 297.178 958.908 297.592C958.473 298.006 957.898 298.243 957.185 298.303C957.819 298.627 958.264 299.073 958.522 299.642C958.788 300.212 958.863 300.818 958.746 301.461ZM957.085 309.734C956.927 310.492 956.596 311.095 956.093 311.543C955.587 312 954.989 312.262 954.299 312.327L956.354 312.756L956.157 313.702L948.674 312.141L948.871 311.196L950.927 311.624C950.32 311.288 949.877 310.809 949.596 310.188C949.314 309.577 949.252 308.891 949.41 308.133C949.551 307.457 949.833 306.882 950.256 306.408C950.677 305.942 951.207 305.619 951.846 305.438C952.491 305.267 953.202 305.263 953.979 305.425C954.765 305.589 955.415 305.877 955.93 306.289C956.452 306.713 956.808 307.221 956.999 307.814C957.199 308.408 957.228 309.048 957.085 309.734ZM956.184 309.803C956.359 308.963 956.23 308.23 955.798 307.606C955.373 306.993 954.699 306.59 953.776 306.398C952.853 306.205 952.07 306.304 951.426 306.694C950.79 307.096 950.384 307.716 950.208 308.557C950.098 309.087 950.122 309.588 950.281 310.06C950.438 310.54 950.716 310.946 951.114 311.277C951.519 311.619 952.019 311.852 952.613 311.976C953.207 312.1 953.753 312.085 954.252 311.932C954.759 311.789 955.18 311.529 955.516 311.151C955.851 310.782 956.073 310.333 956.184 309.803ZM952.836 328.614C952.631 329.467 952.188 330.09 951.508 330.484C950.835 330.888 949.967 330.962 948.906 330.707L944.577 329.666L944.806 328.713L949.067 329.738C949.865 329.93 950.525 329.882 951.045 329.595C951.563 329.316 951.903 328.841 952.065 328.17C952.237 327.453 952.139 326.824 951.77 326.284C951.4 325.744 950.757 325.364 949.841 325.143L945.894 324.194L946.12 323.255L950.38 324.28C951.179 324.472 951.838 324.424 952.358 324.136C952.877 323.858 953.216 323.383 953.378 322.711C953.55 321.994 953.452 321.366 953.083 320.826C952.713 320.286 952.071 319.906 951.154 319.685L947.207 318.736L947.439 317.769L954.871 319.557L954.639 320.524L952.869 320.098C953.452 320.43 953.845 320.87 954.049 321.418C954.26 321.978 954.29 322.571 954.14 323.197C953.982 323.85 953.675 324.371 953.216 324.76C952.758 325.149 952.171 325.354 951.456 325.374C952.07 325.733 952.49 326.203 952.715 326.785C952.949 327.369 952.989 327.979 952.836 328.614ZM949.796 339.984L942.402 338.046L942.65 337.098L944.479 337.577C943.887 337.22 943.49 336.749 943.286 336.165C943.082 335.581 943.064 334.968 943.232 334.327C943.459 333.46 943.914 332.827 944.598 332.427C945.288 332.039 946.162 331.983 947.218 332.26L951.525 333.388L951.276 334.336L947.051 333.229C946.238 333.016 945.562 333.056 945.022 333.349C944.492 333.644 944.134 334.144 943.949 334.848C943.755 335.588 943.836 336.237 944.192 336.793C944.555 337.361 945.196 337.765 946.117 338.007L950.045 339.036L949.796 339.984ZM952.29 339.581L951.379 336.375L952.083 336.56L953.089 339.79L952.29 339.581ZM951.555 343.854L941.576 341.072L941.843 340.114L951.822 342.896L951.555 343.854ZM940.887 346.692L940.052 346.455L940.301 345.58C940.502 344.87 940.819 344.388 941.251 344.132C941.691 343.879 942.311 343.866 943.11 344.093L947.433 345.321L947.751 344.203L948.572 344.436L948.255 345.554L950.113 346.082L949.842 347.038L947.983 346.51L947.409 348.53L946.588 348.297L947.162 346.277L942.825 345.045C942.304 344.897 941.918 344.889 941.667 345.022C941.425 345.157 941.237 345.462 941.101 345.938L940.887 346.692ZM949.207 350.5C949.405 350.556 949.544 350.664 949.625 350.823C949.704 350.991 949.714 351.178 949.655 351.384C949.596 351.591 949.491 351.74 949.338 351.833C949.186 351.925 949.011 351.944 948.813 351.887C948.625 351.834 948.49 351.728 948.409 351.569C948.328 351.41 948.317 351.227 948.375 351.021C948.434 350.814 948.541 350.66 948.696 350.559C948.848 350.466 949.019 350.447 949.207 350.5ZM946.693 351.052L939.34 348.964L939.611 348.007L946.964 350.096L946.693 351.052ZM944.963 357.161C944.759 357.831 944.429 358.374 943.97 358.791C943.518 359.22 942.963 359.49 942.305 359.602C941.653 359.726 940.943 359.672 940.175 359.439C939.416 359.208 938.795 358.859 938.313 358.391C937.837 357.934 937.526 357.401 937.379 356.791C937.233 356.181 937.26 355.545 937.46 354.884C937.688 354.134 938.073 353.558 938.614 353.157C939.155 352.755 939.772 352.552 940.466 352.548L935 350.89L935.285 349.952L946.056 353.221L945.771 354.158L943.762 353.548C944.336 353.937 944.737 354.449 944.964 355.084C945.191 355.718 945.19 356.411 944.963 357.161ZM944.209 356.654C944.366 356.136 944.388 355.631 944.274 355.138C944.158 354.654 943.912 354.228 943.536 353.86C943.168 353.495 942.695 353.225 942.114 353.048C941.533 352.872 940.985 352.832 940.468 352.929C939.96 353.029 939.523 353.247 939.157 353.585C938.788 353.931 938.525 354.364 938.368 354.882C938.116 355.712 938.175 356.452 938.544 357.1C938.921 357.751 939.561 358.214 940.463 358.487C941.365 358.761 942.15 358.731 942.817 358.397C943.493 358.066 943.957 357.485 944.209 356.654ZM945.621 363.993L935.713 360.964L936.004 360.014L945.911 363.043L945.621 363.993ZM941.359 368.68C941.133 369.372 940.78 369.939 940.302 370.382C939.83 370.836 939.259 371.126 938.589 371.251C937.929 371.379 937.217 371.318 936.454 371.069C935.691 370.82 935.081 370.449 934.624 369.956C934.166 369.462 933.876 368.892 933.754 368.243C933.63 367.603 933.68 366.937 933.906 366.245C934.132 365.553 934.486 364.982 934.967 364.53C935.449 364.079 936.021 363.784 936.684 363.648C937.353 363.523 938.065 363.583 938.819 363.83C939.582 364.079 940.192 364.45 940.65 364.943C941.113 365.448 941.402 366.023 941.515 366.669C941.637 367.317 941.585 367.988 941.359 368.68ZM940.547 368.415C940.703 367.936 940.742 367.457 940.662 366.979C940.583 366.502 940.362 366.066 939.999 365.673C939.646 365.283 939.149 364.983 938.511 364.774C937.872 364.566 937.294 364.515 936.779 364.621C936.263 364.727 935.832 364.95 935.485 365.288C935.139 365.627 934.888 366.036 934.731 366.515C934.578 366.985 934.542 367.455 934.625 367.923C934.704 368.401 934.921 368.835 935.275 369.226C935.628 369.616 936.124 369.916 936.763 370.124C937.402 370.333 937.979 370.384 938.495 370.278C939.02 370.174 939.455 369.953 939.802 369.614C940.145 369.285 940.393 368.885 940.547 368.415ZM936.567 376.211L935.97 376.011L937.091 372.666L937.596 372.835L938.42 374.869C938.579 375.247 938.748 375.55 938.927 375.777C939.104 376.014 939.338 376.181 939.63 376.279C939.905 376.371 940.134 376.364 940.317 376.258C940.506 376.164 940.64 375.997 940.721 375.758C940.815 375.475 940.803 375.22 940.682 374.992C940.567 374.777 940.348 374.595 940.023 374.447L940.273 373.703C940.712 373.89 941.032 374.184 941.232 374.586C941.429 374.997 941.437 375.472 941.256 376.012C941.096 376.489 940.847 376.82 940.51 377.002C940.182 377.187 939.819 377.213 939.421 377.08C939.049 376.955 938.75 376.732 938.523 376.41C938.306 376.09 938.11 375.646 937.937 375.076L937.422 373.663L936.567 376.211Z" fill="#696969"/>
<path d="M269.006 269.677C452.723 80.7769 754.292 -46.7529 887.66 86.6154C1020.99 219.951 893.531 521.588 704.599 705.273C520.915 894.206 219.281 1021.67 85.9459 888.334C-47.4216 754.966 80.0746 453.362 269.006 269.677Z" fill="#87E871"/>
</svg>
