<svg width="1299" height="164" viewBox="0 0 1299 164" fill="none" xmlns="http://www.w3.org/2000/svg">
<g clip-path="url(#clip0_549_16224)">
<path d="M232.045 0.350041C259.214 0.350041 278.798 16.5035 278.798 41.9667C278.798 60.0857 269.006 73.541 253.585 79.6611C271.696 85.7812 283.695 99.978 283.695 120.054C283.695 146.732 262.404 163.627 233.027 163.627H168.405C150.777 163.627 139.037 151.878 139.037 134.25V4.51349C139.037 2.06546 140.744 0.350041 143.192 0.350041H232.045ZM177.705 64.7316H224.218C233.519 64.7316 240.13 58.8617 240.13 49.3108C240.13 39.7599 233.519 34.1312 224.218 34.1312H177.705V64.7316ZM225.442 129.846C236.95 129.846 245.026 123.484 245.026 113.451C245.026 103.418 236.95 97.0475 225.442 97.0475H177.705V122.993C177.705 127.157 180.404 129.846 184.567 129.846H225.442ZM357.27 0.350041C359.718 0.350041 361.424 2.06546 361.424 4.51349V122.984C361.424 127.148 364.122 129.837 368.277 129.837H425.806C428.254 129.837 429.969 131.552 429.969 134V159.455C429.969 161.903 428.254 163.618 425.806 163.618H352.123C334.496 163.618 322.756 151.869 322.756 134.242V4.50458C322.756 2.05654 324.471 0.341125 326.919 0.341125H357.279L357.27 0.350041ZM575.672 0.350041C578.12 0.350041 579.835 2.06546 579.835 4.51349V29.9677C579.835 32.4158 578.12 34.1312 575.672 34.1312H501.498V64.7316L567.595 64.4904C570.043 64.4904 572 66.2058 572 68.895V92.8751C572 95.3231 570.284 97.0385 567.836 97.0385H501.498V122.984C501.498 127.148 504.196 129.837 508.351 129.837H575.672C578.12 129.837 579.835 131.552 579.835 134V159.455C579.835 161.903 578.12 163.618 575.672 163.618H492.197C474.57 163.618 462.821 151.869 462.821 134.242V4.50458C462.821 2.05654 464.536 0.341125 466.985 0.341125H575.672V0.350041ZM656.18 0.350041C658.869 0.350041 661.559 1.57408 663.033 3.78089L732.793 97.5299V4.51349C732.793 2.06546 734.258 0.350041 736.956 0.350041H767.065C769.513 0.350041 771.229 2.06546 771.229 4.51349V159.463C771.229 161.912 769.513 163.627 767.065 163.627H736.956C734.258 163.627 731.81 162.162 730.345 160.205L660.585 64.2492V159.472C660.585 161.92 658.869 163.636 656.18 163.636H626.071C623.373 163.636 621.908 161.92 621.908 159.472V4.52244C621.908 2.0744 623.373 0.358985 626.071 0.358985H656.18V0.350041ZM899.786 0.350041C933.568 0.350041 958.039 21.891 958.039 56.1635C958.039 77.213 948.738 93.3665 933.809 102.667L960.246 159.946C961.229 162.144 960.246 163.618 957.798 163.618H923.775C921.327 163.618 918.879 162.153 917.905 159.946L896.856 111.727H857.205V159.463C857.205 161.912 855.49 163.627 852.8 163.627H822.691C819.993 163.627 818.528 161.912 818.528 159.463V4.51349C818.528 2.06546 819.993 0.350041 822.691 0.350041H899.804H899.786ZM857.196 77.9546H898.321C910.803 77.4632 919.621 69.1452 919.621 56.1635C919.621 43.1817 910.07 34.1312 896.856 34.1312H857.205V77.9456L857.196 77.9546ZM1112.04 0.350041C1114.49 0.350041 1116.2 2.06546 1116.2 4.51349V29.9677C1116.2 32.4158 1114.49 34.1312 1112.04 34.1312H1037.87V64.7316L1103.96 64.4904C1106.4 64.4904 1108.36 66.2058 1108.36 68.895V92.8751C1108.36 95.3231 1106.65 97.0385 1104.2 97.0385H1037.87V122.984C1037.87 127.148 1040.57 129.837 1044.72 129.837H1112.03C1114.48 129.837 1116.19 131.552 1116.19 134V159.455C1116.19 161.903 1114.48 163.618 1112.03 163.618H1028.56C1010.93 163.618 999.191 151.869 999.191 134.242V4.50458C999.191 2.05654 1000.91 0.341125 1003.35 0.341125H1112.03L1112.04 0.350041ZM1239.75 0.350041C1273.77 0.350041 1298.25 21.891 1298.25 56.1635C1298.25 90.436 1273.77 111.727 1239.75 111.727H1197.16V159.463C1197.16 161.912 1195.44 163.627 1193.01 163.627H1162.65C1160.2 163.627 1158.49 161.912 1158.49 159.463V4.51349C1158.49 2.06546 1160.2 0.350041 1162.65 0.350041H1239.76H1239.75ZM1197.15 77.9546H1238.28C1250.76 77.4632 1259.58 69.1452 1259.58 56.1635C1259.58 43.1817 1250.28 34.1312 1237.06 34.1312H1197.16V77.9456L1197.15 77.9546Z" fill="#FF6F61"/>
</g>
<g clip-path="url(#clip1_549_16224)">
<path d="M93.0075 0.350041C120.177 0.350041 139.761 16.5035 139.761 41.9667C139.761 60.0857 129.969 73.541 114.548 79.6611C132.658 85.7812 144.657 99.978 144.657 120.054C144.657 146.732 123.367 163.627 93.9902 163.627H29.3675C11.7398 163.627 0 151.878 0 134.25V4.51349C0 2.06546 1.70644 0.350041 4.15448 0.350041H93.0075ZM38.6682 64.7316H85.1809C94.4816 64.7316 101.093 58.8617 101.093 49.3108C101.093 39.7599 94.4816 34.1312 85.1809 34.1312H38.6682V64.7316ZM86.4049 129.846C97.9125 129.846 105.989 123.484 105.989 113.451C105.989 103.418 97.9125 97.0475 86.4049 97.0475H38.6682V122.993C38.6682 127.157 41.3664 129.846 45.5299 129.846H86.4049ZM218.232 0.350041C220.681 0.350041 222.387 2.06546 222.387 4.51349V122.984C222.387 127.148 225.085 129.837 229.24 129.837H286.769C289.217 129.837 290.932 131.552 290.932 134V159.455C290.932 161.903 289.217 163.618 286.769 163.618H213.086C195.459 163.618 183.719 151.869 183.719 134.242V4.50458C183.719 2.05654 185.434 0.341125 187.882 0.341125H218.241L218.232 0.350041ZM436.635 0.350041C439.083 0.350041 440.798 2.06546 440.798 4.51349V29.9677C440.798 32.4158 439.083 34.1312 436.635 34.1312H362.461V64.7316L428.558 64.4904C431.006 64.4904 432.963 66.2058 432.963 68.895V92.8751C432.963 95.3231 431.247 97.0385 428.799 97.0385H362.461V122.984C362.461 127.148 365.159 129.837 369.314 129.837H436.635C439.083 129.837 440.798 131.552 440.798 134V159.455C440.798 161.903 439.083 163.618 436.635 163.618H353.16C335.533 163.618 323.784 151.869 323.784 134.242V4.50458C323.784 2.05654 325.499 0.341125 327.947 0.341125H436.635V0.350041ZM517.143 0.350041C519.832 0.350041 522.522 1.57408 523.996 3.78089L593.756 97.5299V4.51349C593.756 2.06546 595.221 0.350041 597.919 0.350041H628.028C630.476 0.350041 632.192 2.06546 632.192 4.51349V159.463C632.192 161.912 630.476 163.627 628.028 163.627H597.919C595.221 163.627 592.773 162.162 591.308 160.205L521.548 64.2492V159.472C521.548 161.92 519.832 163.636 517.143 163.636H487.034C484.336 163.636 482.871 161.92 482.871 159.472V4.52244C482.871 2.0744 484.336 0.358985 487.034 0.358985H517.143V0.350041ZM760.749 0.350041C794.53 0.350041 819.002 21.891 819.002 56.1635C819.002 77.213 809.701 93.3665 794.772 102.667L821.209 159.946C822.191 162.144 821.209 163.618 818.761 163.618H784.738C782.29 163.618 779.842 162.153 778.868 159.946L757.819 111.727H718.168V159.463C718.168 161.912 716.452 163.627 713.763 163.627H683.654C680.956 163.627 679.491 161.912 679.491 159.463V4.51349C679.491 2.06546 680.956 0.350041 683.654 0.350041H760.767H760.749ZM718.159 77.9546H759.284C771.766 77.4632 780.584 69.1452 780.584 56.1635C780.584 43.1817 771.033 34.1312 757.819 34.1312H718.168V77.9456L718.159 77.9546ZM973.005 0.350041C975.453 0.350041 977.159 2.06546 977.159 4.51349V29.9677C977.159 32.4158 975.453 34.1312 973.005 34.1312H898.831V64.7316L964.919 64.4904C967.367 64.4904 969.324 66.2058 969.324 68.895V92.8751C969.324 95.3231 967.608 97.0385 965.16 97.0385H898.831V122.984C898.831 127.148 901.529 129.837 905.684 129.837H972.996C975.444 129.837 977.15 131.552 977.15 134V159.455C977.15 161.903 975.444 163.618 972.996 163.618H889.521C871.894 163.618 860.154 151.869 860.154 134.242V4.50458C860.154 2.05654 861.869 0.341125 864.308 0.341125H972.996L973.005 0.350041ZM1100.71 0.350041C1134.74 0.350041 1159.22 21.891 1159.22 56.1635C1159.22 90.436 1134.74 111.727 1100.71 111.727H1058.12V159.463C1058.12 161.912 1056.41 163.627 1053.97 163.627H1023.61C1021.16 163.627 1019.45 161.912 1019.45 159.463V4.51349C1019.45 2.06546 1021.16 0.350041 1023.61 0.350041H1100.72H1100.71ZM1058.11 77.9546H1099.24C1111.72 77.4632 1120.54 69.1452 1120.54 56.1635C1120.54 43.1817 1111.24 34.1312 1098.02 34.1312H1058.12V77.9456L1058.11 77.9546Z" fill="#FF6F61"/>
</g>
<defs>
<clipPath id="clip0_549_16224">
<rect width="488.652" height="163.645" fill="white" transform="translate(809.602 0.341125)"/>
</clipPath>
<clipPath id="clip1_549_16224">
<rect width="634.03" height="163.645" fill="white" transform="translate(0 0.341125)"/>
</clipPath>
</defs>
</svg>
