<svg width="181" height="102" viewBox="0 0 181 102" fill="none" xmlns="http://www.w3.org/2000/svg">
<path d="M50.9023 50.9166H53.1808V55.2069C53.5136 54.8242 54.2951 54.0097 55.6922 54.0097C57.604 54.0097 59.3169 55.3898 59.3169 58.4328C59.3169 61.4759 57.571 63.0229 55.7082 63.0229C55.1925 63.0229 53.9453 62.84 53.0639 61.5589H53.0309V62.823H50.9023V50.9166ZM53.9284 60.7274C54.3441 61.1271 54.8428 61.2101 55.1586 61.2101C55.9411 61.2101 56.9714 60.6614 56.9714 58.5328C56.9714 57.5684 56.7556 55.7555 55.0756 55.7555C54.0113 55.7555 53.1629 56.57 53.1629 58.3159C53.1629 59.5631 53.3788 60.1948 53.9284 60.7274ZM68.644 60.4615C68.4612 60.9932 67.7466 63.0229 64.8864 63.0229C64.1379 63.0229 62.1422 62.923 61.2278 60.9612C60.845 60.1297 60.7121 59.2813 60.7121 58.5667C60.7121 56.2382 61.9423 54.0106 64.6696 54.0106C67.9125 54.0106 68.81 56.6219 68.76 59.1653H63.0396C63.0726 60.1957 63.6213 61.277 64.9185 61.277C65.9828 61.277 66.2486 60.4785 66.3646 60.0798L68.6431 60.4625L68.644 60.4615ZM66.4984 57.7682C66.4485 55.8885 65.1513 55.7565 64.8025 55.7565C63.7212 55.7565 63.0726 56.6379 63.0896 57.7682H66.4984ZM152.197 60.4615C152.014 60.9932 151.3 63.0229 148.44 63.0229C147.691 63.0229 145.695 62.923 144.781 60.9612C144.398 60.1297 144.265 59.2813 144.265 58.5667C144.265 56.2382 145.496 54.0106 148.223 54.0106C151.466 54.0106 152.363 56.6219 152.313 59.1653H146.593C146.626 60.1957 147.174 61.277 148.472 61.277C149.536 61.277 149.802 60.4785 149.918 60.0798L152.196 60.4625L152.197 60.4615ZM150.053 57.7682C150.003 55.8885 148.705 55.7565 148.357 55.7565C147.275 55.7565 146.627 56.6379 146.644 57.7682H150.053ZM70.5643 50.9166H72.8429V62.823H70.5643V50.9166ZM74.8923 56.4541C75.2741 55.074 76.0566 54.0097 78.617 54.0097C82.2426 54.0097 82.2586 55.7056 82.2586 57.2526C82.2586 57.7843 82.2256 60.1127 82.2426 60.5954C82.2926 61.7267 82.4085 62.1085 82.7413 62.824H80.4967C80.4468 62.708 80.3968 62.5911 80.3308 62.3413L80.1979 61.8756C79.7482 62.3243 78.9167 63.0229 77.5196 63.0229C75.7907 63.0229 74.6595 61.9755 74.6595 60.4785C74.6595 58.3668 76.6052 57.9841 77.8025 57.7513C79.0836 57.5184 79.5653 57.3855 80.0141 57.2026V56.9698C80.0141 56.4041 80.0141 55.7555 78.451 55.7555C77.3368 55.7555 77.1039 56.4041 76.954 56.8368L74.8923 56.4541ZM80.0131 58.6827C79.7803 58.7656 79.5814 58.8325 79.0487 58.9485C78.9318 58.9655 78.3662 59.0814 78.2672 59.1154C77.8515 59.1983 76.9361 59.4312 76.9361 60.2296C76.9361 60.7123 77.3189 61.4109 78.2003 61.4109C78.732 61.4109 79.1807 61.178 79.5304 60.8782C80.0131 60.4625 80.0131 59.9138 80.0131 59.1323V58.6836V58.6827ZM90.1067 58.4168C90.1067 57.0028 90.1067 55.7565 88.7096 55.7565C87.995 55.7565 87.3464 56.1383 87.0636 56.7708C86.8308 57.2695 86.8138 58.2179 86.8138 58.9164V62.824H84.5353V54.2104H86.6639V55.4737H86.6969C87.5444 54.3094 88.6257 54.0106 89.5071 54.0106C89.8899 54.0106 90.7713 54.0775 91.4859 54.6422C92.4003 55.3408 92.3673 56.621 92.3833 57.4694V62.824H90.1048V58.4178L90.1067 58.4168ZM98.8456 56.0223H97.2986V59.4981C97.2986 60.7283 97.2986 61.128 97.9302 61.128C98.23 61.128 98.4958 61.0451 98.7787 60.9282L98.8456 60.9112L99.0455 62.6741C98.2969 62.9899 97.4824 63.0238 97.2496 63.0238C96.551 63.0238 95.6536 62.791 95.3208 62.1424C95.038 61.6107 95.005 61.0951 95.005 59.7809V56.0233H93.9577V54.2114H95.005V52.4985L97.2996 51.1514V54.2114H98.8465V56.0233L98.8456 56.0223ZM100.555 56.4541C100.937 55.074 101.719 54.0097 104.279 54.0097C107.905 54.0097 107.921 55.7056 107.921 57.2526C107.921 57.7843 107.888 60.1127 107.905 60.5954C107.955 61.7267 108.071 62.1085 108.404 62.824H106.159C106.11 62.708 106.059 62.5911 105.993 62.3413L105.86 61.8756C105.412 62.3243 104.58 63.0229 103.183 63.0229C101.454 63.0229 100.323 61.9755 100.323 60.4785C100.323 58.3668 102.269 57.9841 103.466 57.7513C104.746 57.5184 105.229 57.3855 105.677 57.2026V56.9698C105.677 56.4041 105.677 55.7555 104.114 55.7555C103 55.7555 102.767 56.4041 102.617 56.8368L100.556 56.4541H100.555ZM105.676 58.6827C105.444 58.7656 105.245 58.8325 104.712 58.9485C104.596 58.9655 104.03 59.0814 103.931 59.1154C103.515 59.1983 102.6 59.4312 102.6 60.2296C102.6 60.7123 102.983 61.4109 103.865 61.4109C104.396 61.4109 104.845 61.178 105.195 60.8782C105.677 60.4625 105.677 59.9138 105.677 59.1323V58.6836L105.676 58.6827ZM112.496 54.2095V55.3738H112.529C113.526 54.1096 114.558 54.0097 115.173 54.0097C116.836 54.0097 117.402 55.007 117.618 55.3738C118 54.9081 118.832 54.0097 120.245 54.0097C123.072 54.0097 123.072 56.3542 123.072 57.3025V62.823H120.794V57.9012C120.794 56.8868 120.794 55.7555 119.58 55.7555C118.981 55.7555 118.365 56.1373 118.149 56.703C117.95 57.1847 117.867 57.6174 117.867 58.6817V62.8221H115.588V58.1001C115.588 56.637 115.605 55.7555 114.407 55.7555C113.808 55.7555 113.193 56.0883 112.96 56.587C112.777 56.9698 112.661 57.3685 112.661 58.6327V62.823H110.382V54.2095H112.494H112.496ZM124.981 56.4541C125.363 55.074 126.145 54.0097 128.706 54.0097C132.331 54.0097 132.348 55.7056 132.348 57.2526C132.348 57.7843 132.315 60.1127 132.331 60.5954C132.381 61.7267 132.497 62.1085 132.829 62.824H130.585C130.535 62.708 130.485 62.5911 130.419 62.3413L130.286 61.8756C129.837 62.3243 129.006 63.0229 127.608 63.0229C125.879 63.0229 124.748 61.9755 124.748 60.4785C124.748 58.3668 126.694 57.9841 127.891 57.7513C129.172 57.5184 129.653 57.3855 130.103 57.2026V56.9698C130.103 56.4041 130.103 55.7555 128.541 55.7555C127.427 55.7555 127.194 56.4041 127.044 56.8368L124.982 56.4541H124.981ZM130.103 58.6827C129.87 58.7656 129.671 58.8325 129.139 58.9485C129.022 58.9655 128.457 59.0814 128.357 59.1154C127.941 59.1983 127.027 59.4312 127.027 60.2296C127.027 60.7123 127.41 61.4109 128.291 61.4109C128.823 61.4109 129.272 61.178 129.62 60.8782C130.103 60.4625 130.103 59.9138 130.103 59.1323V58.6836V58.6827ZM134.653 50.9166H136.932V55.2069C137.264 54.8242 138.046 54.0097 139.442 54.0097C141.355 54.0097 143.067 55.3898 143.067 58.4328C143.067 61.4759 141.321 63.0229 139.459 63.0229C138.944 63.0229 137.697 62.84 136.815 61.5589H136.781V62.823H134.652V50.9166H134.653ZM137.68 60.7274C138.095 61.1271 138.595 61.2101 138.911 61.2101C139.692 61.2101 140.723 60.6614 140.723 58.5328C140.723 57.5684 140.507 55.7555 138.827 55.7555C137.762 55.7555 136.915 56.57 136.915 58.3159C136.915 59.5631 137.131 60.1948 137.68 60.7274ZM53.0139 68.8526V70.0168H53.0469C54.0443 68.7527 55.0756 68.6537 55.6912 68.6537C57.3542 68.6537 57.9189 69.6511 58.1357 70.0168C58.5184 69.5511 59.3499 68.6537 60.763 68.6537C63.5902 68.6537 63.5902 70.9982 63.5902 71.9466V77.468H61.3117V72.5461C61.3117 71.5318 61.3117 70.4005 60.0975 70.4005C59.4988 70.4005 58.8832 70.7823 58.6674 71.3479C58.4675 71.8297 58.3846 72.2624 58.3846 73.3267V77.4671H56.106V72.7441C56.106 71.281 56.123 70.3996 54.9248 70.3996C54.3262 70.3996 53.7106 70.7324 53.4778 71.231C53.2958 71.6138 53.1789 72.0126 53.1789 73.2767V77.4671H50.9004V68.8526H53.0121H53.0139ZM65.3597 71.0972C65.7414 69.7171 66.5239 68.6527 69.0843 68.6527C72.71 68.6527 72.726 70.3487 72.726 71.8957C72.726 72.4273 72.693 74.7558 72.7099 75.2385C72.7599 76.3688 72.8759 76.7515 73.2086 77.4671H70.9641C70.9141 77.3502 70.8641 77.2342 70.7981 76.9844L70.6652 76.5187C70.2165 76.9674 69.385 77.666 67.9879 77.666C66.2581 77.666 65.1277 76.6177 65.1277 75.1216C65.1277 73.0099 67.0735 72.6272 68.2707 72.3953C69.5509 72.1624 70.0327 72.0295 70.4823 71.8466V71.6138C70.4823 71.0482 70.4823 70.3996 68.9203 70.3996C67.806 70.3996 67.5731 71.0482 67.4232 71.4799L65.3615 71.0981L65.3597 71.0972ZM70.4814 73.3257C70.2485 73.4087 70.0496 73.4756 69.517 73.5916C69.4001 73.6086 68.8345 73.7245 68.7355 73.7584C68.3198 73.8414 67.4044 74.0743 67.4044 74.8727C67.4044 75.3554 67.7871 76.0539 68.6686 76.0539C69.2002 76.0539 69.649 75.8211 69.9978 75.5223C70.4804 75.1065 70.4804 74.5579 70.4804 73.7754V73.3267L70.4814 73.3257ZM132.233 71.0972C132.615 69.7171 133.398 68.6527 135.958 68.6527C139.584 68.6527 139.6 70.3487 139.6 71.8957C139.6 72.4273 139.567 74.7558 139.584 75.2385C139.634 76.3688 139.75 76.7515 140.082 77.4671H137.838C137.788 77.3502 137.738 77.2342 137.672 76.9844L137.539 76.5187C137.09 76.9674 136.259 77.666 134.862 77.666C133.132 77.666 132.002 76.6177 132.002 75.1216C132.002 73.0099 133.947 72.6272 135.145 72.3953C136.425 72.1624 136.907 72.0295 137.356 71.8466V71.6138C137.356 71.0482 137.356 70.3996 135.794 70.3996C134.68 70.3996 134.447 71.0482 134.297 71.4799L132.235 71.0981L132.233 71.0972ZM137.354 73.3257C137.121 73.4087 136.923 73.4756 136.39 73.5916C136.273 73.6086 135.707 73.7245 135.608 73.7584C135.193 73.8414 134.277 74.0743 134.277 74.8727C134.277 75.3554 134.66 76.0539 135.541 76.0539C136.073 76.0539 136.522 75.8211 136.871 75.5223C137.353 75.1065 137.353 74.5579 137.353 73.7754V73.3267L137.354 73.3257ZM75.5136 68.8526V68.187C75.5136 67.1727 75.5136 65.3608 78.1739 65.3608C78.6226 65.3608 79.3542 65.4277 80.0697 65.6436L79.7699 67.2396C79.3542 67.1397 78.8715 67.1067 78.7216 67.1067C77.7902 67.1067 77.7902 67.7393 77.7902 68.2379V68.8526H79.5031V70.6654H77.7902V77.4671H75.5126V70.6654H74.2484V68.8526H75.5126H75.5136ZM84.8511 68.6527C87.8442 68.6527 89.3073 70.9473 89.3073 73.1259C89.3073 75.5034 87.6443 77.666 84.8671 77.666C83.503 77.666 80.4109 77.0344 80.4109 73.0429C80.4109 70.9973 81.7911 68.6527 84.8511 68.6527ZM84.8511 75.8032C85.8824 75.8032 86.9628 75.0556 86.9628 73.1429C86.9628 71.413 86.0153 70.5155 84.8511 70.5155C83.7538 70.5155 82.7554 71.347 82.7554 73.1598C82.7554 74.9727 83.7698 75.8032 84.8511 75.8032ZM96.8819 77.4661V76.202H96.8489C95.9675 77.4831 94.7203 77.666 94.2056 77.666C92.3428 77.666 90.5969 76.169 90.5969 73.0759C90.5969 69.9829 92.3098 68.6527 94.2226 68.6527C95.6196 68.6527 96.4012 69.4672 96.7339 69.85V65.5597H99.0125V77.4661H96.8838H96.8819ZM94.8363 70.3996C93.1564 70.3996 92.9405 72.2115 92.9405 73.1768C92.9405 75.3054 93.9718 75.8531 94.7533 75.8531C95.0691 75.8531 95.5678 75.7702 95.9845 75.3714C96.5331 74.8388 96.749 74.2072 96.749 72.96C96.749 71.2141 95.9015 70.3996 94.8372 70.3996M105.101 68.6527C108.095 68.6527 109.559 70.9473 109.559 73.1259C109.559 75.5034 107.896 77.666 105.118 77.666C103.754 77.666 100.662 77.0344 100.662 73.0429C100.662 70.9973 102.042 68.6527 105.101 68.6527ZM105.101 75.8032C106.133 75.8032 107.213 75.0556 107.213 73.1429C107.213 71.413 106.265 70.5155 105.101 70.5155C104.004 70.5155 103.007 71.347 103.007 73.1598C103.007 74.9727 104.021 75.8032 105.101 75.8032ZM115.446 70.6654H113.899V74.1412C113.899 75.3714 113.899 75.7711 114.53 75.7711C114.83 75.7711 115.095 75.6882 115.378 75.5713L115.445 75.5543L115.644 77.3172C114.895 77.633 114.081 77.6669 113.848 77.6669C113.149 77.6669 112.252 77.4341 111.919 76.7855C111.636 76.2538 111.603 75.7381 111.603 74.424V70.6664H110.556V68.8535H111.603V67.1406L113.899 65.7935V68.8535H115.446V70.6664V70.6654ZM117.678 65.621H119.957V67.7327H117.678V65.621ZM117.678 68.8526H119.957V77.4671H117.678V68.8526ZM127.87 73.0599C127.87 71.6458 127.87 70.3996 126.473 70.3996C125.758 70.3996 125.109 70.7814 124.827 71.4139C124.594 71.9126 124.577 72.861 124.577 73.5595V77.468H122.298V68.8535H124.427V70.1177H124.461C125.308 68.9535 126.39 68.6546 127.271 68.6546C127.654 68.6546 128.535 68.7216 129.25 69.2862C130.164 69.9848 130.131 71.265 130.147 72.1134V77.468H127.869V73.0608L127.87 73.0599Z" fill="#333333"/>
<path d="M60.7159 30.952C63.5827 30.952 65.6491 32.6564 65.6491 35.3431C65.6491 37.2549 64.6159 38.6746 62.9888 39.3204C64.8997 39.9661 66.1657 41.4641 66.1657 43.5824C66.1657 46.3973 63.9193 48.18 60.8196 48.18H54.001C52.1411 48.18 50.9023 46.9403 50.9023 45.0803V31.3913C50.9023 31.133 51.0824 30.952 51.3407 30.952H60.7159ZM54.9824 37.7451H59.8901C60.8715 37.7451 61.5691 37.1258 61.5691 36.118C61.5691 35.1102 60.8715 34.5163 59.8901 34.5163H54.9824V37.7451ZM60.0193 44.6156C61.2335 44.6156 62.0857 43.9444 62.0857 42.8857C62.0857 41.827 61.2335 41.1549 60.0193 41.1549H54.9824V43.8925C54.9824 44.3318 55.2671 44.6156 55.7064 44.6156H60.0193ZM73.9289 30.952C74.1872 30.952 74.3673 31.133 74.3673 31.3913V43.8916C74.3673 44.3309 74.652 44.6146 75.0903 44.6146H81.1605C81.4188 44.6146 81.5998 44.7956 81.5998 45.0539V47.7397C81.5998 47.998 81.4188 48.179 81.1605 48.179H73.3859C71.526 48.179 70.2873 46.9394 70.2873 45.0794V31.3903C70.2873 31.132 70.4683 30.951 70.7266 30.951H73.9299L73.9289 30.952ZM96.9734 30.952C97.2317 30.952 97.4127 31.133 97.4127 31.3913V34.077C97.4127 34.3353 97.2317 34.5163 96.9734 34.5163H89.1471V37.7451L96.1212 37.7197C96.3795 37.7197 96.586 37.9007 96.586 38.1844V40.7146C96.586 40.973 96.405 41.1539 96.1467 41.1539H89.1471V43.8916C89.1471 44.3309 89.4318 44.6146 89.8701 44.6146H96.9734C97.2317 44.6146 97.4127 44.7956 97.4127 45.0539V47.7397C97.4127 47.998 97.2317 48.179 96.9734 48.179H88.1657C86.3058 48.179 85.0661 46.9394 85.0661 45.0794V31.3903C85.0661 31.132 85.2471 30.951 85.5054 30.951H96.9734V30.952ZM105.468 30.952C105.752 30.952 106.036 31.0811 106.191 31.314L113.552 41.2058V31.3913C113.552 31.133 113.707 30.952 113.991 30.952H117.168C117.426 30.952 117.607 31.133 117.607 31.3913V47.7407C117.607 47.999 117.426 48.18 117.168 48.18H113.991C113.707 48.18 113.448 48.0254 113.294 47.8189L105.933 37.6942V47.7416C105.933 47.9999 105.752 48.1809 105.468 48.1809H102.291C102.007 48.1809 101.852 47.9999 101.852 47.7416V31.3922C101.852 31.1339 102.007 30.9529 102.291 30.9529H105.468V30.952ZM131.172 30.952C134.736 30.952 137.319 33.2248 137.319 36.8411C137.319 39.0621 136.337 40.7665 134.762 41.7479L137.551 47.7916C137.655 48.0235 137.551 48.179 137.293 48.179H133.703C133.445 48.179 133.187 48.0244 133.084 47.7916L130.863 42.7038H126.679V47.7407C126.679 47.999 126.498 48.18 126.214 48.18H123.037C122.753 48.18 122.598 47.999 122.598 47.7407V31.3913C122.598 31.133 122.753 30.952 123.037 30.952H131.174H131.172ZM126.678 39.1403H131.017C132.334 39.0885 133.265 38.2108 133.265 36.8411C133.265 35.4713 132.257 34.5163 130.863 34.5163H126.679V39.1394L126.678 39.1403ZM153.568 30.952C153.826 30.952 154.006 31.133 154.006 31.3913V34.077C154.006 34.3353 153.826 34.5163 153.568 34.5163H145.742V37.7451L152.715 37.7197C152.973 37.7197 153.18 37.9007 153.18 38.1844V40.7146C153.18 40.973 152.999 41.1539 152.74 41.1539H145.742V43.8916C145.742 44.3309 146.026 44.6146 146.465 44.6146H153.567C153.825 44.6146 154.005 44.7956 154.005 45.0539V47.7397C154.005 47.998 153.825 48.179 153.567 48.179H144.759C142.899 48.179 141.661 46.9394 141.661 45.0794V31.3903C141.661 31.132 141.842 30.951 142.099 30.951H153.567L153.568 30.952ZM167.043 30.952C170.633 30.952 173.216 33.2248 173.216 36.8411C173.216 40.4573 170.633 42.7038 167.043 42.7038H162.549V47.7407C162.549 47.999 162.368 48.18 162.111 48.18H158.907C158.649 48.18 158.469 47.999 158.469 47.7407V31.3913C158.469 31.133 158.649 30.952 158.907 30.952H167.044H167.043ZM162.548 39.1403H166.888C168.204 39.0885 169.135 38.2108 169.135 36.8411C169.135 35.4713 168.154 34.5163 166.759 34.5163H162.549V39.1394L162.548 39.1403Z" fill="#333333"/>
<path d="M22.3613 45.5253C22.466 45.7506 26.5234 54.465 37.6737 48.7616C43.2489 45.5356 45.5859 39.1554 42.8926 34.5107C40.6216 30.5918 35.4951 29.1599 30.6006 30.7455C32.8216 37.7706 28.8029 45.3942 22.3613 45.5253Z" fill="#90C369"/>
<path d="M30.6006 30.7455C24.1496 32.6913 19.7519 40.1405 22.3603 45.5244C17.3442 45.5244 13.3528 40.7316 13.3462 34.8039C13.3386 28.8771 17.3442 24.0664 22.2915 24.0608C26.0463 24.0561 29.2629 26.821 30.5996 30.7446M35.3989 47.225C33.8274 45.6582 31.0304 45.9146 29.1507 47.7982C27.2709 49.6817 27.0211 52.4778 28.5926 54.0455C30.1641 55.6123 32.9611 55.3559 34.8409 53.4723C36.7206 51.5888 36.9704 48.7918 35.3989 47.225ZM19.6633 48.3072C16.0225 45.6205 11.2449 45.8911 8.99368 48.9134C6.74249 51.9357 7.86808 56.5635 11.5098 59.2502C15.1505 61.9369 19.9272 61.6654 22.1793 58.644C24.4305 55.6226 23.3049 50.9939 19.6642 48.3072" fill="#EC6D63"/>
<path d="M22.3618 45.5253C28.8656 45.3933 32.8523 37.8639 30.6011 30.7455C24.1096 32.7035 19.7025 40.0368 22.3618 45.5253Z" fill="#333333"/>
</svg>
