<svg width="375" height="169" viewBox="0 0 375 169" fill="none" xmlns="http://www.w3.org/2000/svg">
<mask id="mask0_549_16082" style="mask-type:alpha" maskUnits="userSpaceOnUse" x="0" y="0" width="375" height="169">
<path d="M106.899 12.0898L76.2194 23.5946C50.6531 33.395 35.7394 50.8653 31.0523 69.1879L22.9563 109.242C15.3726 130.524 4.38164 140.309 0.798828 168.896H374.067C367.96 145.668 365.767 137.829 357.023 116.059C350.631 89.2148 343.813 68.3356 327.195 40.2127L314.838 28.7079L294.811 18.4814L243.679 0.584961L106.899 12.0898Z" fill="#D9D9D9"/>
</mask>
<g mask="url(#mask0_549_16082)">
<path d="M371.786 -6.64996C405.567 -6.64996 430.039 14.891 430.039 49.1635C430.039 70.213 420.738 86.3665 405.808 95.6672L432.245 152.946C433.228 155.144 432.245 156.618 429.797 156.618H395.775C393.327 156.618 390.879 155.153 389.905 152.946L368.856 104.727H329.205V152.463C329.205 154.911 327.489 156.627 324.8 156.627H294.691C291.993 156.627 290.527 154.911 290.527 152.463V-2.48651C290.527 -4.93455 291.993 -6.64996 294.691 -6.64996H371.804H371.786ZM329.196 70.9546H370.321C382.802 70.4632 391.62 62.1452 391.62 49.1635C391.62 36.1817 382.07 27.1312 368.856 27.1312H329.205V70.9456L329.196 70.9546Z" stroke="white" stroke-width="2.55663" stroke-linejoin="round"/>
<path d="M-10.8545 -6.64996C-8.16521 -6.64996 -5.47597 -5.42592 -4.00179 -3.21912L65.7583 90.5299V-2.48651C65.7583 -4.93455 67.2235 -6.64996 69.9217 -6.64996H100.031C102.479 -6.64996 104.194 -4.93455 104.194 -2.48651V152.463C104.194 154.911 102.479 156.627 100.031 156.627H69.9217C67.2235 156.627 64.7756 155.162 63.3103 153.205L-6.44981 57.2491V152.472C-6.44981 154.92 -8.16521 156.636 -10.8545 156.636H-40.9636C-43.6618 156.636 -45.127 154.92 -45.127 152.472V-2.47757C-45.127 -4.92561 -43.6618 -6.64102 -40.9636 -6.64102H-10.8545V-6.64996Z" stroke="white" stroke-width="2.55663" stroke-linejoin="round"/>
</g>
</svg>
