<svg width="143" height="40" viewBox="0 0 143 40" fill="none" xmlns="http://www.w3.org/2000/svg">
<path d="M7.28924 35.767H9.94424C14.4109 35.767 16.6442 33.787 16.6442 29.827V29.616C16.6313 29.0506 16.681 28.4855 16.7922 27.931C16.9887 27.2261 17.235 26.536 17.5292 25.866C17.5364 25.8337 17.5313 25.7998 17.5149 25.771C17.4986 25.7421 17.4721 25.7204 17.4406 25.7099C17.4092 25.6995 17.3749 25.7011 17.3446 25.7144C17.3142 25.7277 17.2899 25.7518 17.2762 25.782C16.567 27.236 15.4567 28.4567 14.0762 29.3001C12.7708 30.0056 11.3049 30.3612 9.82124 30.332C8.10192 30.3394 6.41489 29.8652 4.95124 28.963C3.44204 28.043 2.20069 26.7431 1.35124 25.193C0.442755 23.5575 -0.0226142 21.7129 0.00124474 19.8421C-0.0275879 17.9619 0.444946 16.108 1.37024 14.471C2.23399 12.9345 3.48297 11.6493 4.99424 10.742C6.44701 9.85694 8.11609 9.39044 9.81724 9.39405C11.3303 9.36095 12.8281 9.70132 14.1782 10.385C15.5558 11.1831 16.642 12.4007 17.2782 13.86C17.3342 13.973 17.4042 14.007 17.4882 13.966C17.5722 13.925 17.5882 13.846 17.5312 13.734C17.237 13.064 16.9907 12.374 16.7942 11.669C16.6841 11.1289 16.6345 10.5782 16.6462 10.027V9.81705H20.6902V28.9C20.6902 32.6914 19.7286 35.4157 17.8052 37.073C15.5769 38.8318 12.7826 39.7155 9.94824 39.5581H7.28924V35.767ZM4.88924 23.297C5.42227 24.3073 6.22188 25.1522 7.20124 25.74C8.20805 26.3364 9.36019 26.6427 10.5302 26.625C11.6722 26.6424 12.7962 26.3399 13.7753 25.7518C14.7543 25.1637 15.5492 24.3134 16.0702 23.297C16.6241 22.2305 16.9061 21.0437 16.8912 19.8421C16.9044 18.661 16.6222 17.4953 16.0702 16.451C15.5444 15.4493 14.7613 14.6057 13.8012 14.007C12.8213 13.4006 11.6886 13.0863 10.5362 13.101C9.35419 13.0866 8.19238 13.4084 7.18624 14.029C6.20693 14.6277 5.40665 15.4788 4.86924 16.493C4.32061 17.5235 4.03838 18.6747 4.04824 19.8421C4.03299 21.0463 4.32164 22.2348 4.88924 23.297Z" fill="black"/>
<path d="M26.0112 29.6793C24.7374 29.2745 23.5358 28.6704 22.4512 27.8893L24.2212 24.6893C25.1083 25.3563 26.0978 25.8747 27.1512 26.2243C28.1339 26.5642 29.1654 26.7422 30.2052 26.7513C32.5918 26.7513 33.7852 25.979 33.7852 24.4343C33.8072 24.0616 33.7242 23.6902 33.5454 23.3624C33.3667 23.0346 33.0994 22.7636 32.7742 22.5803C31.7986 22.0689 30.7666 21.6733 29.6992 21.4013C28.5882 21.134 27.5017 20.7737 26.4512 20.3243C25.4859 19.9035 24.6755 19.1928 24.132 18.2909C23.5886 17.3889 23.3391 16.3403 23.4182 15.2903C23.3857 14.4745 23.5416 13.6622 23.8739 12.9165C24.2062 12.1708 24.7059 11.5116 25.3342 10.9903C26.7669 9.87224 28.5528 9.3046 30.3682 9.3903C31.6746 9.38424 32.9744 9.57642 34.2232 9.9603C35.3538 10.2896 36.4076 10.8406 37.3232 11.5813L35.3852 14.5343C33.9774 13.512 32.28 12.9658 30.5402 12.9753C29.6843 12.913 28.8303 13.1192 28.0972 13.5653C27.8381 13.7516 27.6293 13.9994 27.4897 14.2863C27.35 14.5733 27.2839 14.8904 27.2972 15.2093C27.2807 15.5369 27.3594 15.8623 27.5237 16.1462C27.688 16.4301 27.9309 16.6604 28.2232 16.8093C29.1938 17.2789 30.2102 17.6475 31.2562 17.9093C32.3905 18.2016 33.5027 18.5742 34.5842 19.0243C35.471 19.4175 36.2402 20.0347 36.8162 20.8153C37.478 21.7789 37.8035 22.9339 37.7422 24.1013C37.7967 24.9727 37.6482 25.8448 37.3082 26.6489C36.9683 27.4531 36.4462 28.1673 35.7832 28.7353C34.1358 29.9067 32.1339 30.472 30.1172 30.3353C28.7219 30.3368 27.3352 30.1164 26.0092 29.6823" fill="black"/>
<path d="M39.5293 0H43.5733V17.947L51.0733 9.817H56.2553L50.4833 15.967C49.751 16.7853 48.9238 17.5134 48.0193 18.136C47.3955 18.5494 46.6793 18.8025 45.9343 18.873C45.8213 18.873 45.7653 18.923 45.7653 19.02C45.7653 19.117 45.8213 19.168 45.9343 19.168C46.7034 19.2482 47.441 19.5161 48.0823 19.948C48.9778 20.5578 49.7853 21.2876 50.4823 22.117L57.3493 29.826H51.9193L43.5773 20.432V29.826H39.5293V0Z" fill="black"/>
<path d="M111.879 9.79302H115.923V10.003C115.927 10.4991 115.87 10.9937 115.754 11.476C115.594 12.0555 115.383 12.6194 115.122 13.161C115.094 13.274 115.115 13.344 115.185 13.371C115.255 13.398 115.318 13.371 115.375 13.288C116.08 12.111 117.036 11.1041 118.175 10.339C119.384 9.6459 120.765 9.3099 122.157 9.37002C123.207 9.33404 124.252 9.52034 125.225 9.91671C126.198 10.3131 127.076 10.9106 127.802 11.67C129.263 13.2034 129.993 15.47 129.993 18.47V29.804H125.948V19.314C126.066 17.6862 125.644 16.065 124.748 14.701C124.292 14.1682 123.717 13.751 123.068 13.4837C122.42 13.2163 121.718 13.1064 121.019 13.163C117.619 13.163 115.919 15.073 115.919 18.893V29.804H111.875L111.879 9.79302Z" fill="#FF6E00"/>
<path d="M94.4739 28.897C92.8866 27.9855 91.5762 26.6609 90.6819 25.064C89.7695 23.4523 89.2974 21.6289 89.3129 19.7769C89.2994 17.9452 89.7718 16.1427 90.6819 14.5529C91.5784 12.9683 92.8892 11.6574 94.4739 10.7609C96.1089 9.82865 97.9628 9.34854 99.8449 9.36995C101.701 9.34874 103.528 9.82934 105.133 10.7609C106.698 11.6679 107.993 12.9771 108.882 14.5529C109.791 16.1429 110.264 17.9453 110.251 19.7769C110.266 21.6288 109.794 23.452 108.882 25.064C107.985 26.6692 106.673 28.0035 105.083 28.9264C103.493 29.8493 101.683 30.3269 99.8449 30.309C97.9601 30.3303 96.1045 29.8425 94.4739 28.897ZM94.1999 23.231C94.7373 24.2452 95.5375 25.0963 96.5169 25.695C97.5188 26.3043 98.6724 26.6183 99.8449 26.601C100.997 26.6164 102.13 26.302 103.11 25.695C104.077 25.0943 104.863 24.2427 105.385 23.231C105.94 22.165 106.222 20.9785 106.207 19.7769C106.217 18.6095 105.934 17.4581 105.385 16.4279C104.858 15.425 104.073 14.5811 103.11 13.9839C102.13 13.3773 100.997 13.063 99.8449 13.0779C98.6724 13.0611 97.519 13.3751 96.5169 13.9839C95.5419 14.5793 94.7424 15.4226 94.1999 16.4279C93.6373 17.4539 93.3471 18.6069 93.3569 19.7769C93.3419 20.981 93.6319 22.1692 94.1999 23.231Z" fill="#FF6E00"/>
<path d="M141.4 20.2707C141.101 20.1171 140.787 19.9931 140.464 19.9007C140.458 19.8988 140.453 19.8951 140.449 19.89C140.445 19.885 140.444 19.8789 140.444 19.8727C140.444 19.8665 140.445 19.8605 140.449 19.8555C140.453 19.8504 140.458 19.8467 140.464 19.8447C140.787 19.7524 141.101 19.6285 141.4 19.4747C141.917 19.1747 142.241 18.8507 142.175 18.2837C141.797 13.3125 139.555 8.66724 135.899 5.27751C132.243 1.88777 127.442 0.00351586 122.457 0.0017395H81.9877C77.0286 0.00332425 72.251 1.86712 68.6009 5.22403C64.9509 8.58094 62.6945 13.1862 62.2787 18.1277C62.2742 18.3811 62.3456 18.6299 62.4837 18.8424C62.6218 19.0548 62.8203 19.221 63.0537 19.3197C63.3528 19.4735 63.6663 19.5974 63.9897 19.6897C63.9955 19.6918 64.0005 19.6956 64.0041 19.7006C64.0077 19.7056 64.0096 19.7116 64.0097 19.7177C64.0098 19.7239 64.0079 19.73 64.0043 19.735C64.0007 19.7401 63.9956 19.7438 63.9897 19.7457C63.6663 19.838 63.3527 19.9619 63.0537 20.1157C62.8109 20.2137 62.6051 20.3854 62.4651 20.6066C62.3252 20.8279 62.2582 21.0874 62.2737 21.3487C62.6617 26.3118 64.9068 30.9461 68.5609 34.327C72.215 37.7079 77.0094 39.5868 81.9877 39.5887H122.462C127.427 39.5858 132.21 37.7159 135.86 34.3502C139.511 30.9846 141.762 26.3694 142.168 21.4207C142.163 21.1755 142.088 20.9367 141.952 20.7328C141.816 20.5289 141.624 20.3685 141.399 20.2707M121.709 35.8807H82.7287C78.4246 35.9149 74.2826 34.2407 71.211 31.2254C68.1395 28.2101 66.3891 24.0997 66.3437 19.7957C66.3886 15.491 68.139 11.3799 71.211 8.36408C74.2831 5.34828 78.4259 3.67408 82.7307 3.70874H121.711C126.015 3.67461 130.157 5.34904 133.229 8.36479C136.301 11.3805 138.051 15.4914 138.096 19.7957C138.051 24.1001 136.3 28.2108 133.228 31.2264C130.157 34.242 126.014 35.9161 121.71 35.8817" fill="#FF6E00"/>
</svg>
