<svg width="430" height="1107" viewBox="0 0 430 1107" fill="none" xmlns="http://www.w3.org/2000/svg">
<path opacity="0.25" d="M257.391 789.221C422.841 952.746 691.24 1060.05 806.629 940.007C921.989 819.995 804.225 555.983 634.263 397.152C468.843 233.597 200.386 126.353 85.026 246.365C-30.3626 366.407 87.4301 630.389 257.391 789.221Z" fill="#87E871"/>
<path opacity="0.5" d="M284.06 714.874C406.624 912.592 642.44 1079.75 782.727 990.064C922.98 900.398 870.302 616.151 742.253 421.941C619.724 224.202 383.839 57.0848 243.586 146.751C103.299 236.44 156.011 520.664 284.06 714.874Z" fill="#87E871"/>
<path opacity="0.9" d="M288.92 617.307C340.656 844.105 509.431 1078.77 671.237 1039.48C833.002 1000.21 875.458 714.255 817.395 488.993C765.698 262.185 596.844 27.5403 435.078 66.8173C273.273 106.104 230.856 392.046 288.92 617.307Z" fill="#87E871"/>
</svg>
