<svg version="1.2" xmlns="http://www.w3.org/2000/svg" viewBox="0 0 165 54" width="165" height="54"><style>.a{fill:#333}.b{fill:#90c369}.c{fill:#ec6d63}</style><path class="a" d="m42.9 26.9h2.3v4.3c0.3-0.4 1.1-1.2 2.5-1.2 1.9 0 3.6 1.4 3.6 4.4 0 3.1-1.7 4.6-3.6 4.6-0.5 0-1.8-0.2-2.6-1.4h-0.1v1.2h-2.1zm3 9.8c0.4 0.4 0.9 0.5 1.3 0.5 0.7 0 1.8-0.5 1.8-2.7 0-0.9-0.2-2.7-1.9-2.7-1.1 0-1.9 0.8-1.9 2.5 0 1.3 0.2 1.9 0.7 2.4zm14.7-0.2c-0.1 0.5-0.9 2.5-3.7 2.5-0.8 0-2.8-0.1-3.7-2-0.4-0.9-0.5-1.7-0.5-2.4 0-2.4 1.2-4.6 4-4.6 3.2 0 4.1 2.6 4.1 5.2h-5.8c0.1 1 0.6 2.1 1.9 2.1 1.1 0 1.3-0.8 1.5-1.2l2.2 0.4zm-2.1-2.7c-0.1-1.9-1.3-2-1.7-2-1.1 0-1.7 0.8-1.7 2zm85.7 2.7c-0.2 0.5-0.9 2.5-3.8 2.5-0.7 0-2.7-0.1-3.6-2-0.4-0.9-0.5-1.7-0.5-2.4 0-2.4 1.2-4.6 3.9-4.6 3.3 0 4.2 2.6 4.1 5.2h-5.7c0 1 0.6 2.1 1.9 2.1 1 0 1.3-0.8 1.4-1.2l2.3 0.4zm-2.2-2.7c0-1.9-1.3-2-1.7-2-1 0-1.7 0.8-1.7 2zm-79.5-6.9h2.3v11.9h-2.3zm4.4 5.6c0.4-1.4 1.1-2.5 3.7-2.5 3.6 0 3.6 1.7 3.6 3.3 0 0.5 0 2.8 0 3.3 0.1 1.1 0.2 1.5 0.5 2.2h-2.2c-0.1-0.1-0.1-0.2-0.2-0.4l-0.1-0.5c-0.5 0.4-1.3 1.1-2.7 1.1-1.7 0-2.9-1-2.9-2.5 0-2.1 2-2.5 3.2-2.7 1.3-0.3 1.7-0.4 2.2-0.6v-0.2c0-0.6 0-1.2-1.6-1.2-1.1 0-1.3 0.6-1.5 1.1zm5.2 2.2c-0.3 0.1-0.5 0.1-1 0.2-0.1 0.1-0.7 0.2-0.8 0.2-0.4 0.1-1.3 0.3-1.3 1.1 0 0.5 0.4 1.2 1.2 1.2 0.6 0 1-0.2 1.4-0.5 0.5-0.4 0.5-1 0.5-1.8v-0.4zm10-0.3c0-1.4 0-2.6-1.3-2.6-0.8 0-1.4 0.3-1.7 1-0.2 0.5-0.2 1.4-0.2 2.1v3.9h-2.3v-8.6h2.1v1.3c0.9-1.2 2-1.5 2.8-1.5 0.4 0 1.3 0.1 2 0.6 0.9 0.7 0.9 2 0.9 2.9v5.3h-2.3v-4.4zm8.8-2.4h-1.6v3.5c0 1.2 0 1.6 0.7 1.6 0.3 0 0.5-0.1 0.8-0.2h0.1l0.2 1.8c-0.8 0.3-1.6 0.3-1.8 0.3-0.7 0-1.6-0.2-1.9-0.9-0.3-0.5-0.4-1-0.4-2.3v-3.8h-1v-1.8h1v-1.7l2.3-1.3v3h1.6v1.8zm1.7 0.5c0.4-1.4 1.2-2.5 3.7-2.5 3.6 0 3.7 1.7 3.7 3.3 0 0.5-0.1 2.8-0.1 3.3 0.1 1.1 0.2 1.5 0.5 2.2h-2.2c0-0.1-0.1-0.2-0.2-0.5l-0.1-0.4c-0.4 0.4-1.3 1.1-2.7 1.1-1.7 0-2.8-1-2.8-2.5 0-2.1 1.9-2.5 3.1-2.7 1.3-0.3 1.8-0.4 2.2-0.6v-0.2c0-0.6 0-1.2-1.5-1.2-1.2 0-1.4 0.6-1.5 1l-2.1-0.3zm5.1 2.2c-0.2 0.1-0.4 0.1-0.9 0.2-0.2 0.1-0.7 0.2-0.8 0.2-0.4 0.1-1.4 0.3-1.4 1.1 0 0.5 0.4 1.2 1.3 1.2 0.5 0 1-0.2 1.3-0.5 0.5-0.4 0.5-1 0.5-1.8v-0.4zm6.8-4.5v1.2h0.1c1-1.3 2-1.4 2.6-1.4 1.7 0 2.2 1 2.5 1.4 0.3-0.5 1.2-1.4 2.6-1.4 2.8 0 2.8 2.4 2.8 3.3v5.5h-2.3v-4.9c0-1 0-2.1-1.2-2.1-0.6 0-1.2 0.3-1.4 0.9-0.2 0.5-0.3 0.9-0.3 2v4.1h-2.3v-4.7c0-1.5 0-2.3-1.1-2.3-0.6 0-1.3 0.3-1.5 0.8-0.2 0.4-0.3 0.8-0.3 2v4.2h-2.3v-8.6h2.1zm12.5 2.3c0.4-1.4 1.2-2.5 3.7-2.5 3.7 0 3.7 1.7 3.7 3.3 0 0.5 0 2.8 0 3.3 0 1.1 0.1 1.5 0.5 2.2h-2.3c0-0.1-0.1-0.2-0.1-0.5l-0.2-0.4c-0.4 0.4-1.3 1.1-2.7 1.1-1.7 0-2.8-1-2.8-2.5 0-2.1 1.9-2.5 3.1-2.7 1.3-0.3 1.8-0.4 2.2-0.6v-0.2c0-0.6 0-1.2-1.5-1.2-1.1 0-1.4 0.6-1.5 1l-2.1-0.3zm5.1 2.2c-0.2 0.1-0.4 0.1-0.9 0.2-0.1 0.1-0.7 0.2-0.8 0.2-0.4 0.1-1.3 0.3-1.3 1.1 0 0.5 0.4 1.2 1.2 1.2 0.6 0 1-0.2 1.4-0.5 0.4-0.4 0.4-1 0.4-1.8v-0.4zm4.6-7.8h2.3v4.3c0.3-0.4 1.1-1.2 2.5-1.2 1.9 0 3.6 1.4 3.6 4.4 0 3.1-1.7 4.6-3.6 4.6-0.5 0-1.8-0.2-2.6-1.4h-0.1v1.2h-2.1v-11.9zm3 9.8c0.4 0.4 0.9 0.5 1.3 0.5 0.7 0 1.8-0.5 1.8-2.7 0-0.9-0.3-2.7-1.9-2.7-1.1 0-1.9 0.8-1.9 2.5 0 1.3 0.2 1.9 0.7 2.4zm-84.6 8.2v1.1c1-1.2 2-1.3 2.6-1.3 1.7 0 2.3 1 2.5 1.3 0.4-0.4 1.2-1.3 2.6-1.3 2.8 0 2.8 2.3 2.8 3.2v5.6h-2.2v-5c0-1 0-2.1-1.3-2.1-0.6 0-1.2 0.4-1.4 1-0.2 0.4-0.3 0.9-0.3 1.9v4.2h-2.3v-4.8c0-1.4 0.1-2.3-1.1-2.3-0.6 0-1.2 0.3-1.5 0.8-0.2 0.4-0.3 0.8-0.3 2.1v4.2h-2.3v-8.6h2.2zm12.3 2.2c0.4-1.4 1.2-2.4 3.7-2.4 3.6 0 3.7 1.7 3.7 3.2 0 0.5-0.1 2.9-0.1 3.3 0.1 1.2 0.2 1.6 0.5 2.3h-2.2c0-0.1-0.1-0.3-0.2-0.5l-0.1-0.5c-0.4 0.5-1.3 1.2-2.7 1.2-1.7 0-2.8-1.1-2.8-2.6 0-2.1 1.9-2.5 3.1-2.7 1.3-0.2 1.8-0.4 2.2-0.6v-0.2c0-0.5 0-1.2-1.5-1.2-1.2 0-1.4 0.7-1.5 1.1l-2.1-0.4zm5.1 2.2c-0.2 0.1-0.4 0.2-0.9 0.3-0.2 0-0.7 0.1-0.8 0.2-0.4 0-1.4 0.3-1.4 1.1 0 0.5 0.4 1.2 1.3 1.2 0.5 0 1-0.3 1.3-0.6 0.5-0.4 0.5-0.9 0.5-1.7v-0.5zm61.8-2.2c0.4-1.4 1.1-2.4 3.7-2.4 3.6 0 3.6 1.7 3.6 3.2 0 0.5 0 2.9 0 3.3 0.1 1.2 0.2 1.6 0.5 2.3h-2.2c-0.1-0.1-0.1-0.3-0.2-0.5l-0.1-0.5c-0.5 0.5-1.3 1.2-2.7 1.2-1.7 0-2.9-1.1-2.9-2.6 0-2.1 2-2.5 3.2-2.7 1.3-0.2 1.7-0.4 2.2-0.5v-0.3c0-0.5 0-1.2-1.6-1.2-1.1 0-1.3 0.7-1.5 1.1l-2-0.4zm5.1 2.2c-0.2 0.1-0.4 0.2-1 0.3-0.1 0-0.7 0.1-0.8 0.2-0.4 0-1.3 0.3-1.3 1.1 0 0.5 0.4 1.2 1.3 1.2 0.5 0 1-0.3 1.3-0.6 0.5-0.4 0.5-0.9 0.5-1.7v-0.5zm-61.8-4.4v-0.7c0-1 0-2.8 2.6-2.8 0.5 0 1.2 0 1.9 0.2l-0.3 1.6c-0.4-0.1-0.9-0.1-1-0.1-1 0-1 0.6-1 1.1v0.7h1.7v1.8h-1.7v6.8h-2.2v-6.8h-1.3v-1.8h1.3zm9.3-0.2c3 0 4.4 2.3 4.4 4.4 0 2.4-1.6 4.6-4.4 4.6-1.4 0-4.4-0.7-4.4-4.7 0-2 1.3-4.3 4.4-4.3zm0 7.1c1 0 2.1-0.7 2.1-2.7 0-1.7-0.9-2.6-2.1-2.6-1.1 0-2.1 0.9-2.1 2.7 0 1.8 1 2.6 2.1 2.6zm12 1.7v-1.3c-0.9 1.3-2.1 1.5-2.7 1.5-1.8 0-3.6-1.5-3.6-4.6 0-3.1 1.7-4.4 3.7-4.4 1.4 0 2.1 0.8 2.5 1.2v-4.3h2.3v11.9h-2.2zm-2-7.1c-1.7 0-1.9 1.8-1.9 2.8 0 2.1 1 2.7 1.8 2.7 0.3 0 0.8-0.1 1.2-0.5 0.6-0.6 0.8-1.2 0.8-2.4 0-1.8-0.9-2.6-1.9-2.6zm10.2-1.7c3 0 4.5 2.3 4.5 4.4 0 2.4-1.7 4.6-4.4 4.6-1.4 0-4.5-0.7-4.5-4.7 0-2 1.4-4.3 4.4-4.3zm0 7.1c1.1 0 2.2-0.7 2.2-2.7 0-1.7-1-2.6-2.2-2.6-1.1 0-2.1 0.9-2.1 2.7 0 1.8 1.1 2.6 2.1 2.6zm10.4-5.1h-1.6v3.4c0 1.3 0 1.7 0.7 1.7 0.3 0 0.5-0.1 0.8-0.2h0.1l0.2 1.7c-0.8 0.3-1.6 0.4-1.8 0.4-0.7 0-1.6-0.3-1.9-0.9-0.3-0.5-0.4-1.1-0.4-2.4v-3.7h-1v-1.8h1v-1.8l2.3-1.3v3.1h1.6v1.8zm2.2-5.1h2.3v2.1h-2.3zm0 3.3h2.3v8.6h-2.3zm10.2 4.2c0-1.4 0-2.7-1.4-2.7-0.7 0-1.3 0.4-1.6 1-0.3 0.5-0.3 1.5-0.3 2.2v3.9h-2.3v-8.6h2.2v1.3c0.8-1.2 1.9-1.5 2.8-1.5 0.4 0 1.3 0.1 2 0.6 0.9 0.7 0.9 2 0.9 2.8v5.4h-2.3v-4.4z"/><path class="a" d="m52.7 7c2.9 0 4.9 1.7 4.9 4.3 0 2-1 3.4-2.6 4 1.9 0.7 3.2 2.2 3.2 4.3 0 2.8-2.3 4.6-5.4 4.6h-6.8c-1.9 0-3.1-1.3-3.1-3.1v-13.7c0-0.3 0.2-0.4 0.4-0.4zm-5.7 6.7h4.9c1 0 1.7-0.6 1.7-1.6 0-1-0.7-1.6-1.7-1.6h-4.9zm5 6.9c1.3 0 2.1-0.7 2.1-1.7 0-1.1-0.8-1.8-2.1-1.8h-5v2.8c0 0.4 0.3 0.7 0.7 0.7zm13.9-13.7c0.3 0 0.5 0.2 0.5 0.5v12.5c0 0.4 0.3 0.7 0.7 0.7h6.1c0.2 0 0.4 0.2 0.4 0.4v2.7c0 0.3-0.2 0.5-0.4 0.5h-7.8c-1.9 0-3.1-1.3-3.1-3.1v-13.7c0-0.3 0.2-0.5 0.4-0.5h3.2zm23.1 0c0.2 0 0.4 0.2 0.4 0.5v2.6c0 0.3-0.2 0.5-0.4 0.5h-7.8v3.2h6.9c0.3 0 0.5 0.2 0.5 0.5v2.5c0 0.2-0.2 0.4-0.4 0.4h-7v2.8c0 0.4 0.2 0.7 0.7 0.7h7.1c0.2 0 0.4 0.2 0.4 0.4v2.7c0 0.3-0.2 0.4-0.4 0.4h-8.8c-1.9 0-3.1-1.2-3.1-3.1v-13.6c0-0.3 0.2-0.5 0.4-0.5h11.5zm8.5 0c0.3 0 0.5 0.2 0.7 0.4l7.4 9.9v-9.8c0-0.3 0.1-0.5 0.4-0.5h3.2c0.2 0 0.4 0.2 0.4 0.5v16.3c0 0.3-0.2 0.4-0.4 0.4h-3.2c-0.3 0-0.5-0.1-0.7-0.3l-7.4-10.1v10c0 0.3-0.1 0.5-0.4 0.5h-3.2c-0.3 0-0.4-0.2-0.4-0.5v-16.3c0-0.3 0.1-0.5 0.4-0.5h3.2zm25.7 0c3.5 0 6.1 2.3 6.1 5.9 0 2.2-1 3.9-2.5 4.9l2.8 6.1c0.1 0.2 0 0.3-0.3 0.3h-3.6c-0.2 0-0.5-0.1-0.6-0.3l-2.2-5.1h-4.2v5c0 0.3-0.2 0.5-0.5 0.5h-3.2c-0.2 0-0.4-0.2-0.4-0.5v-16.3c0-0.3 0.2-0.5 0.4-0.5h8.2zm-4.5 8.2h4.3c1.3 0 2.3-0.9 2.3-2.3 0-1.4-1-2.3-2.4-2.3h-4.2v4.6zm26.9-8.2c0.2 0 0.4 0.2 0.4 0.5v2.6c0 0.3-0.2 0.5-0.4 0.5h-7.8v3.2h6.9c0.3 0 0.5 0.2 0.5 0.5v2.5c0 0.2-0.2 0.4-0.4 0.4h-7v2.8c0 0.4 0.2 0.7 0.7 0.7h7.1c0.2 0 0.4 0.2 0.4 0.4v2.7c0 0.3-0.2 0.4-0.4 0.4h-8.8c-1.9 0-3.1-1.2-3.1-3.1v-13.6c0-0.3 0.2-0.5 0.4-0.5h11.5zm13.5 0c3.5 0 6.1 2.3 6.1 5.9 0 3.6-2.6 5.9-6.1 5.9h-4.5v5c0 0.3-0.2 0.4-0.5 0.4h-3.2c-0.2 0-0.4-0.1-0.4-0.4v-16.3c0-0.3 0.2-0.5 0.4-0.5h8.2zm-4.5 8.2h4.3c1.3 0 2.3-0.9 2.3-2.3 0-1.4-1-2.3-2.4-2.3h-4.2v4.6z"/><path class="b" d="m14.4 21.5c0.1 0.3 4.1 9 15.3 3.3 5.5-3.3 7.9-9.6 5.2-14.3-2.3-3.9-7.4-5.3-12.3-3.8 2.2 7.1-1.8 14.7-8.2 14.8z"/><path class="c" d="m22.6 6.7c-6.5 2-10.8 9.4-8.2 14.8-5.1 0-9-4.8-9.1-10.7 0-5.9 4-10.7 9-10.7 3.7 0 7 2.7 8.3 6.6zm4.8 16.5c-1.6-1.5-4.4-1.3-6.2 0.6-1.9 1.9-2.2 4.7-0.6 6.2 1.6 1.6 4.4 1.4 6.2-0.5 1.9-1.9 2.2-4.7 0.6-6.3zm-15.7 1.1c-3.7-2.7-8.5-2.4-10.7 0.6-2.3 3-1.1 7.7 2.5 10.4 3.7 2.6 8.4 2.4 10.7-0.7 2.2-3 1.1-7.6-2.5-10.3z"/><path class="a" d="m14.4 21.5c6.5-0.1 10.5-7.6 8.2-14.8-6.5 2-10.9 9.3-8.2 14.8z"/></svg>